<?xml version="1.0" encoding="iso-8859-1"?>
<!-- Generator: Adobe Illustrator 18.0.0, SVG Export Plug-In . SVG Version: 6.00 Build 0)  -->
<!DOCTYPE svg PUBLIC "-//W3C//DTD SVG 1.1//EN" "http://www.w3.org/Graphics/SVG/1.1/DTD/svg11.dtd">
<svg version="1.1" id="Capa_1" xmlns="http://www.w3.org/2000/svg" xmlns:xlink="http://www.w3.org/1999/xlink" x="0px" y="0px"
	 viewBox="0 0 32 32" style="enable-background:new 0 0 32 32;" xml:space="preserve">
<g id="Check">
	<g>
		<path style="fill-rule:evenodd;clip-rule:evenodd;" d="M16,0C7.164,0,0,7.164,0,16c0,8.836,7.164,16,16,16c8.836,0,16-7.164,16-16
			C32,7.164,24.836,0,16,0z M16,29C8.832,29,3,23.168,3,16C3,8.832,8.832,3,16,3c7.168,0,13,5.832,13,13C29,23.168,23.168,29,16,29z
			 M22.56,11.012c-0.403-0.017-0.812,0.119-1.12,0.428l-6.94,6.939l-3.94-3.939c-0.308-0.309-0.717-0.444-1.12-0.428
			c-0.363,0.015-0.724,0.15-1.001,0.428c-0.277,0.277-0.413,0.638-0.428,1.001c-0.017,0.403,0.119,0.812,0.428,1.12l5,5
			C13.732,21.854,14.116,22,14.5,22c0.384,0,0.768-0.146,1.061-0.439l8-8c0.309-0.309,0.444-0.717,0.428-1.12
			c-0.015-0.363-0.15-0.724-0.428-1.001C23.283,11.162,22.923,11.026,22.56,11.012z"/>
	</g>
</g>
<g>
</g>
<g>
</g>
<g>
</g>
<g>
</g>
<g>
</g>
<g>
</g>
<g>
</g>
<g>
</g>
<g>
</g>
<g>
</g>
<g>
</g>
<g>
</g>
<g>
</g>
<g>
</g>
<g>
</g>
</svg>
