<?xml version="1.0" encoding="iso-8859-1"?>
<!-- Generator: Adobe Illustrator 18.0.0, SVG Export Plug-In . SVG Version: 6.00 Build 0)  -->
<!DOCTYPE svg PUBLIC "-//W3C//DTD SVG 1.1//EN" "http://www.w3.org/Graphics/SVG/1.1/DTD/svg11.dtd">
<svg version="1.1" id="Capa_1" xmlns="http://www.w3.org/2000/svg" xmlns:xlink="http://www.w3.org/1999/xlink" x="0px" y="0px"
	 viewBox="0 0 32 32" style="enable-background:new 0 0 32 32;" xml:space="preserve">
<g id="Add">
	<g>
		<path style="fill-rule:evenodd;clip-rule:evenodd;" d="M21,14h-3v-3c0-1.104-0.896-2-2-2s-2,0.895-2,2v3h-3c-1.104,0-2,0.895-2,2
			c0,1.104,0.896,2,2,2h3v3c0,1.104,0.896,2,2,2s2-0.895,2-2v-3h3c1.104,0,2-0.896,2-2C23,14.896,22.104,14,21,14z M16,0
			C7.163,0,0,7.163,0,16s7.163,16,16,16c8.837,0,16-7.163,16-16S24.837,0,16,0z M16,29C8.832,29,3,23.168,3,16S8.832,3,16,3
			c7.168,0,13,5.832,13,13S23.168,29,16,29z"/>
	</g>
</g>
<g>
</g>
<g>
</g>
<g>
</g>
<g>
</g>
<g>
</g>
<g>
</g>
<g>
</g>
<g>
</g>
<g>
</g>
<g>
</g>
<g>
</g>
<g>
</g>
<g>
</g>
<g>
</g>
<g>
</g>
</svg>
