<?xml version="1.0" encoding="iso-8859-1"?>
<!-- Generator: Adobe Illustrator 18.0.0, SVG Export Plug-In . SVG Version: 6.00 Build 0)  -->
<!DOCTYPE svg PUBLIC "-//W3C//DTD SVG 1.1//EN" "http://www.w3.org/Graphics/SVG/1.1/DTD/svg11.dtd">
<svg version="1.1" id="Capa_1" xmlns="http://www.w3.org/2000/svg" xmlns:xlink="http://www.w3.org/1999/xlink" x="0px" y="0px"
	 viewBox="0 0 32 32.001" style="enable-background:new 0 0 32 32.001;" xml:space="preserve">
<g id="Paper_x5F_plane">
	<g>
		<path style="fill-rule:evenodd;clip-rule:evenodd;" d="M31.56,0.44c-0.411-0.412-1.024-0.55-1.571-0.35l-29,10.5
			c-0.567,0.205-0.957,0.732-0.987,1.335c-0.03,0.604,0.305,1.166,0.85,1.427l12.024,5.772l5.772,12.025
			c0.25,0.522,0.777,0.851,1.352,0.851c0.025,0,0.05-0.001,0.075-0.002c0.602-0.03,1.13-0.419,1.335-0.987l10.5-29
			C32.108,1.464,31.973,0.853,31.56,0.44z M5.371,12.194l19.303-6.988L13.691,16.188L5.371,12.194z M19.807,26.631l-3.994-8.321
			L26.796,7.326L19.807,26.631z"/>
	</g>
</g>
<g>
</g>
<g>
</g>
<g>
</g>
<g>
</g>
<g>
</g>
<g>
</g>
<g>
</g>
<g>
</g>
<g>
</g>
<g>
</g>
<g>
</g>
<g>
</g>
<g>
</g>
<g>
</g>
<g>
</g>
</svg>
