<?xml version="1.0" encoding="iso-8859-1"?>
<!-- Generator: Adobe Illustrator 18.0.0, SVG Export Plug-In . SVG Version: 6.00 Build 0)  -->
<!DOCTYPE svg PUBLIC "-//W3C//DTD SVG 1.1//EN" "http://www.w3.org/Graphics/SVG/1.1/DTD/svg11.dtd">
<svg version="1.1" id="Capa_1" xmlns="http://www.w3.org/2000/svg" xmlns:xlink="http://www.w3.org/1999/xlink" x="0px" y="0px"
	 viewBox="0 0 28.66 32" style="enable-background:new 0 0 28.66 32;" xml:space="preserve">
<g id="Anchor">
	<g>
		<path style="fill-rule:evenodd;clip-rule:evenodd;" d="M28.298,18.524C28.013,18.191,27.597,18,27.16,18h-4.83
			c-0.828,0-1.5,0.671-1.5,1.5c0,0.829,0.672,1.5,1.5,1.5h2.937c-1.352,4.191-5.064,7.301-9.437,7.891V10.788
			c2.308-0.654,4-2.771,4-5.288c0-3.038-2.463-5.5-5.5-5.5c-3.038,0-5.5,2.462-5.5,5.5c0,2.517,1.692,4.634,4,5.288v18.103
			C8.458,28.301,4.745,25.191,3.393,21h2.936c0.829,0,1.5-0.671,1.5-1.5c0-0.829-0.671-1.5-1.5-1.5H1.5
			c-0.438,0-0.854,0.191-1.139,0.524c-0.285,0.333-0.41,0.773-0.343,1.206C1.105,26.725,7.258,32,14.33,32
			c7.072,0,13.225-5.275,14.312-12.27C28.709,19.297,28.584,18.857,28.298,18.524z M11.83,5.5c0-1.378,1.122-2.5,2.5-2.5
			c1.379,0,2.5,1.122,2.5,2.5c0,1.378-1.121,2.5-2.5,2.5C12.951,8,11.83,6.878,11.83,5.5z"/>
	</g>
</g>
<g>
</g>
<g>
</g>
<g>
</g>
<g>
</g>
<g>
</g>
<g>
</g>
<g>
</g>
<g>
</g>
<g>
</g>
<g>
</g>
<g>
</g>
<g>
</g>
<g>
</g>
<g>
</g>
<g>
</g>
</svg>
