<?xml version="1.0" encoding="iso-8859-1"?>
<!-- Generator: Adobe Illustrator 18.0.0, SVG Export Plug-In . SVG Version: 6.00 Build 0)  -->
<!DOCTYPE svg PUBLIC "-//W3C//DTD SVG 1.1//EN" "http://www.w3.org/Graphics/SVG/1.1/DTD/svg11.dtd">
<svg version="1.1" id="Capa_1" xmlns="http://www.w3.org/2000/svg" xmlns:xlink="http://www.w3.org/1999/xlink" x="0px" y="0px"
	 viewBox="0 0 35 32" style="enable-background:new 0 0 35 32;" xml:space="preserve">
<g id="Clip">
	<g>
		<path style="fill-rule:evenodd;clip-rule:evenodd;" d="M32.34,2.767l-0.164-0.162c-3.625-3.51-9.431-3.473-13.011,0.108
			L2.593,19.29C1.344,20.541,0,22.813,0,24.846c0,1.909,0.745,3.706,2.096,5.056C3.448,31.255,5.246,32,7.159,32H7.16
			c1.913-0.001,3.711-0.746,5.062-2.099l14.306-14.307c0.983-0.983,1.521-2.345,1.473-3.739c-0.045-1.279-0.568-2.48-1.473-3.383
			c-0.952-0.951-2.216-1.475-3.562-1.475c-1.346,0-2.611,0.523-3.56,1.475L8.45,19.429c-0.276,0.273-0.449,0.651-0.449,1.069
			c0,0.828,0.671,1.5,1.5,1.5c0.414,0,0.788-0.168,1.059-0.439l0.001,0.001l10.967-10.969C21.92,10.2,22.461,10.008,23,10.017
			c0.517,0.008,1.031,0.201,1.408,0.577c0.365,0.365,0.576,0.851,0.595,1.364c0.02,0.572-0.192,1.111-0.596,1.515L10.101,27.78
			C9.315,28.566,8.271,28.999,7.16,29H7.159c-1.111,0-2.156-0.434-2.942-1.22C3.433,26.996,3,25.954,3,24.846
			c0-0.932,0.786-2.504,1.715-3.435L21.287,4.835c2.428-2.43,6.368-2.447,8.818-0.06l0.159,0.16
			c2.349,2.456,2.316,6.365-0.099,8.781L16.449,27.433c-0.275,0.273-0.446,0.649-0.446,1.067c0,0.828,0.671,1.5,1.5,1.5
			c0.414,0,0.787-0.168,1.059-0.438l0.001,0.001l13.724-13.725C35.887,12.236,35.904,6.39,32.34,2.767z"/>
	</g>
</g>
<g>
</g>
<g>
</g>
<g>
</g>
<g>
</g>
<g>
</g>
<g>
</g>
<g>
</g>
<g>
</g>
<g>
</g>
<g>
</g>
<g>
</g>
<g>
</g>
<g>
</g>
<g>
</g>
<g>
</g>
</svg>
