<?xml version="1.0" encoding="iso-8859-1"?>
<!-- Generator: Adobe Illustrator 18.0.0, SVG Export Plug-In . SVG Version: 6.00 Build 0)  -->
<!DOCTYPE svg PUBLIC "-//W3C//DTD SVG 1.1//EN" "http://www.w3.org/Graphics/SVG/1.1/DTD/svg11.dtd">
<svg version="1.1" id="Capa_1" xmlns="http://www.w3.org/2000/svg" xmlns:xlink="http://www.w3.org/1999/xlink" x="0px" y="0px"
	 viewBox="0 0 36 32" style="enable-background:new 0 0 36 32;" xml:space="preserve">
<g id="Attention">
	<g>
		<path style="fill-rule:evenodd;clip-rule:evenodd;" d="M35.601,27.504l-15-26C20.082,0.606,19.111,0,18,0
			c-1.111,0-2.082,0.606-2.601,1.504l-15,26C0.146,27.944,0,28.455,0,29c0,1.656,1.344,3,3,3h30c1.656,0,3-1.344,3-3
			C36,28.455,35.855,27.944,35.601,27.504z M2.998,29.003L17.997,3H18l0.002,0.003L33,29L2.998,29.003z M18,22c-1.104,0-2,0.896-2,2
			c0,1.105,0.895,2,2,2c1.105,0,2-0.896,2-2C20,22.896,19.105,22,18,22z M16,13c0,0.114,0.01,0.227,0.028,0.336l0.985,5.832
			C17.094,19.641,17.505,20,18,20c0.495,0,0.906-0.359,0.986-0.832l0.985-5.832C19.99,13.227,20,13.114,20,13c0-1.104-0.895-2-2-2
			C16.896,11,16,11.896,16,13z"/>
	</g>
</g>
<g>
</g>
<g>
</g>
<g>
</g>
<g>
</g>
<g>
</g>
<g>
</g>
<g>
</g>
<g>
</g>
<g>
</g>
<g>
</g>
<g>
</g>
<g>
</g>
<g>
</g>
<g>
</g>
<g>
</g>
</svg>
