<?xml version="1.0" encoding="iso-8859-1"?>
<!-- Generator: Adobe Illustrator 18.0.0, SVG Export Plug-In . SVG Version: 6.00 Build 0)  -->
<!DOCTYPE svg PUBLIC "-//W3C//DTD SVG 1.1//EN" "http://www.w3.org/Graphics/SVG/1.1/DTD/svg11.dtd">
<svg version="1.1" id="Capa_1" xmlns="http://www.w3.org/2000/svg" xmlns:xlink="http://www.w3.org/1999/xlink" x="0px" y="0px"
	 viewBox="0 0 32 32" style="enable-background:new 0 0 32 32;" xml:space="preserve">
<g id="Left">
	<g>
		<path style="fill-rule:evenodd;clip-rule:evenodd;" d="M18.5,9c-0.391,0-0.743,0.153-1.011,0.398l-0.003-0.004l-6,5.5
			C11.177,15.179,11,15.579,11,16s0.177,0.821,0.486,1.106l6,5.5l0.003-0.004C17.757,22.847,18.109,23,18.5,23
			c0.828,0,1.5-0.672,1.5-1.5c0-0.437-0.19-0.828-0.489-1.102l0.003-0.004L14.72,16l4.794-4.395l-0.003-0.004
			C19.81,11.328,20,10.938,20,10.5C20,9.672,19.328,9,18.5,9z M16,0C7.164,0,0,7.164,0,16s7.164,16,16,16s16-7.164,16-16
			S24.836,0,16,0z M16,29C8.832,29,3,23.168,3,16S8.832,3,16,3c7.168,0,13,5.832,13,13S23.168,29,16,29z"/>
	</g>
</g>
<g>
</g>
<g>
</g>
<g>
</g>
<g>
</g>
<g>
</g>
<g>
</g>
<g>
</g>
<g>
</g>
<g>
</g>
<g>
</g>
<g>
</g>
<g>
</g>
<g>
</g>
<g>
</g>
<g>
</g>
</svg>
