<?xml version="1.0" encoding="iso-8859-1"?>
<!-- Generator: Adobe Illustrator 18.0.0, SVG Export Plug-In . SVG Version: 6.00 Build 0)  -->
<!DOCTYPE svg PUBLIC "-//W3C//DTD SVG 1.1//EN" "http://www.w3.org/Graphics/SVG/1.1/DTD/svg11.dtd">
<svg version="1.1" id="Capa_1" xmlns="http://www.w3.org/2000/svg" xmlns:xlink="http://www.w3.org/1999/xlink" x="0px" y="0px"
	 viewBox="0 0 29.725 32" style="enable-background:new 0 0 29.725 32;" xml:space="preserve">
<g id="BBQ">
	<g>
		<path style="fill-rule:evenodd;clip-rule:evenodd;" d="M29.705,2.18c0.08-0.548-0.083-1.104-0.445-1.521
			C28.898,0.239,28.371,0,27.818,0H1.907C1.354,0,0.829,0.24,0.466,0.659C0.104,1.077-0.06,1.633,0.02,2.18
			c0.743,5.11,4.068,9.373,8.602,11.452l-2.689,9.411c-2.277,0.221-4.07,2.123-4.07,4.457c0,2.481,2.019,4.5,4.5,4.5
			c2.481,0,4.5-2.018,4.5-4.5c0-1.562-0.801-2.938-2.013-3.745L9.637,21h10.451l2.832,9.912C23.1,31.54,23.678,32,24.363,32
			c0.828,0,1.5-0.672,1.5-1.5c0-0.144-0.021-0.281-0.058-0.412l-4.702-16.456C25.638,11.553,28.962,7.29,29.705,2.18z M6.363,29
			c-0.827,0-1.5-0.673-1.5-1.5c0-0.827,0.673-1.5,1.5-1.5c0.827,0,1.5,0.673,1.5,1.5C7.862,28.327,7.19,29,6.363,29z M10.494,18
			l0.972-3.402C12.559,14.852,13.692,15,14.862,15c1.17,0,2.304-0.148,3.396-0.401L19.231,18H10.494z M14.862,12
			C9.375,12,4.587,8.211,3.24,3h23.244C25.139,8.211,20.351,12,14.862,12z"/>
	</g>
</g>
<g>
</g>
<g>
</g>
<g>
</g>
<g>
</g>
<g>
</g>
<g>
</g>
<g>
</g>
<g>
</g>
<g>
</g>
<g>
</g>
<g>
</g>
<g>
</g>
<g>
</g>
<g>
</g>
<g>
</g>
</svg>
