<?xml version="1.0" encoding="iso-8859-1"?>
<!-- Generator: Adobe Illustrator 18.0.0, SVG Export Plug-In . SVG Version: 6.00 Build 0)  -->
<!DOCTYPE svg PUBLIC "-//W3C//DTD SVG 1.1//EN" "http://www.w3.org/Graphics/SVG/1.1/DTD/svg11.dtd">
<svg version="1.1" id="Capa_1" xmlns="http://www.w3.org/2000/svg" xmlns:xlink="http://www.w3.org/1999/xlink" x="0px" y="0px"
	 viewBox="0 0 31 31" style="enable-background:new 0 0 31 31;" xml:space="preserve">
<g id="Basketball">
	<g>
		<path style="fill-rule:evenodd;clip-rule:evenodd;" d="M15.5,0C6.953,0,0,6.953,0,15.5C0,24.047,6.953,31,15.5,31
			C24.047,31,31,24.047,31,15.5C31,6.953,24.047,0,15.5,0z M4.48,9.609c0.552,1.656,1.494,2.807,2.367,3.854
			c0.842,1.01,1.551,1.881,1.906,3.149c-3.151-0.392-5.118-0.997-5.738-1.424C3.065,13.177,3.584,11.279,4.48,9.609z M6.424,24.068
			c-1.435-1.519-2.489-3.395-3.022-5.481c1.599,0.536,3.576,0.871,5.506,1.079c-0.256,1.69-1.067,2.686-2.06,3.88
			C6.707,23.715,6.565,23.895,6.424,24.068z M14,27.901c-1.927-0.231-3.718-0.903-5.273-1.911c0.141-0.174,0.278-0.347,0.426-0.523
			c1.146-1.375,2.416-2.916,2.754-5.563c0.761,0.04,1.469,0.065,2.093,0.078V27.901z M14,16.982
			c-0.746-0.018-1.453-0.049-2.129-0.089c-0.379-2.513-1.604-4.013-2.718-5.35C7.95,10.101,7,8.961,7,6.503
			c0-0.054,0.007-0.099,0.008-0.149C8.894,4.602,11.314,3.422,14,3.099V16.982z M26.519,9.609c0.896,1.67,1.415,3.567,1.465,5.58
			c-0.62,0.427-2.587,1.032-5.738,1.424c0.356-1.269,1.064-2.14,1.906-3.149C25.026,12.416,25.967,11.266,26.519,9.609z M17,3.099
			c2.685,0.323,5.106,1.503,6.992,3.255C23.993,6.404,24,6.449,24,6.503c0,2.458-0.95,3.598-2.152,5.041
			c-1.114,1.337-2.339,2.837-2.718,5.35c-0.676,0.04-1.383,0.071-2.129,0.089V3.099z M17,27.901v-7.919
			c0.624-0.014,1.332-0.038,2.093-0.078c0.339,2.647,1.609,4.188,2.754,5.563c0.148,0.177,0.286,0.35,0.426,0.523
			C20.718,26.998,18.927,27.67,17,27.901z M24.576,24.068c-0.142-0.174-0.283-0.354-0.424-0.521c-0.993-1.193-1.805-2.19-2.06-3.88
			c1.931-0.208,3.907-0.543,5.506-1.079C27.065,20.674,26.012,22.55,24.576,24.068z"/>
	</g>
</g>
<g>
</g>
<g>
</g>
<g>
</g>
<g>
</g>
<g>
</g>
<g>
</g>
<g>
</g>
<g>
</g>
<g>
</g>
<g>
</g>
<g>
</g>
<g>
</g>
<g>
</g>
<g>
</g>
<g>
</g>
</svg>
