<?xml version="1.0" encoding="iso-8859-1"?>
<!-- Generator: Adobe Illustrator 18.0.0, SVG Export Plug-In . SVG Version: 6.00 Build 0)  -->
<!DOCTYPE svg PUBLIC "-//W3C//DTD SVG 1.1//EN" "http://www.w3.org/Graphics/SVG/1.1/DTD/svg11.dtd">
<svg version="1.1" id="Capa_1" xmlns="http://www.w3.org/2000/svg" xmlns:xlink="http://www.w3.org/1999/xlink" x="0px" y="0px"
	 viewBox="0 0 28 32" style="enable-background:new 0 0 28 32;" xml:space="preserve">
<g id="Bell">
	<g>
		<path style="fill-rule:evenodd;clip-rule:evenodd;" d="M26.305,22.293C24.378,20.627,23,16.2,23,11c0-3.936-2.53-7.273-6.05-8.495
			C16.713,1.085,15.487,0,14,0s-2.713,1.085-2.95,2.505C7.53,3.727,5,7.064,5,11c0,5.199-1.377,9.625-3.305,11.293
			C0.619,23.224,0,24.576,0,26c0,1.657,1.343,3,3,3h8c0,1.657,1.343,3,3,3s3-1.343,3-3h8c1.657,0,3-1.343,3-3
			C28,24.577,27.382,23.224,26.305,22.293z M3,26c0-0.552,0.24-1.077,0.657-1.438C6.336,22.246,8,17.049,8,11c0-3.309,2.691-6,6-6
			c3.309,0,6,2.691,6,6c0,6.049,1.664,11.246,4.343,13.562C24.761,24.924,25,25.448,25,26H3z"/>
	</g>
</g>
<g>
</g>
<g>
</g>
<g>
</g>
<g>
</g>
<g>
</g>
<g>
</g>
<g>
</g>
<g>
</g>
<g>
</g>
<g>
</g>
<g>
</g>
<g>
</g>
<g>
</g>
<g>
</g>
<g>
</g>
</svg>
