<?xml version="1.0" encoding="iso-8859-1"?>
<!-- Generator: Adobe Illustrator 18.0.0, SVG Export Plug-In . SVG Version: 6.00 Build 0)  -->
<!DOCTYPE svg PUBLIC "-//W3C//DTD SVG 1.1//EN" "http://www.w3.org/Graphics/SVG/1.1/DTD/svg11.dtd">
<svg version="1.1" id="Capa_1" xmlns="http://www.w3.org/2000/svg" xmlns:xlink="http://www.w3.org/1999/xlink" x="0px" y="0px"
	 viewBox="0 0 35 30" style="enable-background:new 0 0 35 30;" xml:space="preserve">
<g id="Book">
	<g>
		<path style="fill-rule:evenodd;clip-rule:evenodd;" d="M33,0h-7c-3.674,0-6.766,1.071-8.5,2.749C15.766,1.071,12.674,0,9,0H2
			C0.898,0,0,0.897,0,2v23c0,1.104,0.898,2,2,2h7c2.667,0,5.563,1.146,6.602,2.23c0.471,0.492,1.122,0.77,1.803,0.77h0.2
			c0.676,0,1.323-0.277,1.789-0.767C20.429,28.148,23.328,27,26,27h7c1.103,0,2-0.896,2-2V2C35,0.897,34.103,0,33,0z M16,25.64
			C14.223,24.615,11.779,24,9,24H3V3h6c4.273,0,7,1.777,7,3V25.64z M32,24h-6c-2.779,0-5.223,0.615-7,1.64V6c0-1.223,2.727-3,7-3h6
			V24z"/>
	</g>
</g>
<g>
</g>
<g>
</g>
<g>
</g>
<g>
</g>
<g>
</g>
<g>
</g>
<g>
</g>
<g>
</g>
<g>
</g>
<g>
</g>
<g>
</g>
<g>
</g>
<g>
</g>
<g>
</g>
<g>
</g>
</svg>
