<?xml version="1.0" encoding="iso-8859-1"?>
<!-- Generator: Adobe Illustrator 18.0.0, SVG Export Plug-In . SVG Version: 6.00 Build 0)  -->
<!DOCTYPE svg PUBLIC "-//W3C//DTD SVG 1.1//EN" "http://www.w3.org/Graphics/SVG/1.1/DTD/svg11.dtd">
<svg version="1.1" id="Capa_1" xmlns="http://www.w3.org/2000/svg" xmlns:xlink="http://www.w3.org/1999/xlink" x="0px" y="0px"
	 viewBox="0 0 24 32" style="enable-background:new 0 0 24 32;" xml:space="preserve">
<g id="Ribbon">
	<g>
		<path style="fill-rule:evenodd;clip-rule:evenodd;" d="M18,6H6v3h12V6z M18,12H6v3h12V12z M22,0H2C0.897,0,0,0.897,0,2v28.5
			c0,0.535,0.285,1.029,0.747,1.298c0.463,0.268,1.033,0.271,1.497,0.005L12,26.228l9.756,5.575C21.986,31.935,22.243,32,22.5,32
			c0.26,0,0.52-0.067,0.753-0.202C23.715,31.529,24,31.035,24,30.5V2C24,0.897,23.103,0,22,0z M21,27.915l-8.256-4.718
			C12.514,23.065,12.257,23,12,23c-0.257,0-0.514,0.065-0.744,0.197L3,27.915V3h18V27.915z"/>
	</g>
</g>
<g>
</g>
<g>
</g>
<g>
</g>
<g>
</g>
<g>
</g>
<g>
</g>
<g>
</g>
<g>
</g>
<g>
</g>
<g>
</g>
<g>
</g>
<g>
</g>
<g>
</g>
<g>
</g>
<g>
</g>
</svg>
