<?xml version="1.0" encoding="iso-8859-1"?>
<!-- Generator: Adobe Illustrator 18.0.0, SVG Export Plug-In . SVG Version: 6.00 Build 0)  -->
<!DOCTYPE svg PUBLIC "-//W3C//DTD SVG 1.1//EN" "http://www.w3.org/Graphics/SVG/1.1/DTD/svg11.dtd">
<svg version="1.1" id="Capa_1" xmlns="http://www.w3.org/2000/svg" xmlns:xlink="http://www.w3.org/1999/xlink" x="0px" y="0px"
	 viewBox="0 0 32 28.988" style="enable-background:new 0 0 32 28.988;" xml:space="preserve">
<g id="Brush">
	<g>
		<path style="fill-rule:evenodd;clip-rule:evenodd;" d="M32,4.988c0-0.536-0.209-1.04-0.586-1.414l-3.003-3.003
			c-0.676-0.672-1.799-0.763-2.573-0.211l-7.012,5.008c-0.903-0.24-1.848-0.38-2.826-0.38c-6.075,0-11,4.925-11,11
			c0,3.935-1.986,7.404-5,9.478c4.163,2.246,8.935,3.523,14,3.523c7.18,0,13-5.82,13-13c0-0.979-0.141-1.924-0.381-2.827
			l5.006-7.007C31.87,5.813,32,5.41,32,4.988z M14,25.988c-2.994,0-5.967-0.508-8.771-1.487C7.006,22.057,8,19.086,8,15.988
			c0-4.411,3.589-8,8-8c4.411,0,8,3.589,8,8C24,21.502,19.514,25.988,14,25.988z M25.206,9.978
			c-0.833-1.274-1.922-2.363-3.196-3.196l4.882-3.487l1.802,1.802L25.206,9.978z"/>
	</g>
</g>
<g>
</g>
<g>
</g>
<g>
</g>
<g>
</g>
<g>
</g>
<g>
</g>
<g>
</g>
<g>
</g>
<g>
</g>
<g>
</g>
<g>
</g>
<g>
</g>
<g>
</g>
<g>
</g>
<g>
</g>
</svg>
