<?xml version="1.0" encoding="iso-8859-1"?>
<!-- Generator: Adobe Illustrator 18.0.0, SVG Export Plug-In . SVG Version: 6.00 Build 0)  -->
<!DOCTYPE svg PUBLIC "-//W3C//DTD SVG 1.1//EN" "http://www.w3.org/Graphics/SVG/1.1/DTD/svg11.dtd">
<svg version="1.1" id="Capa_1" xmlns="http://www.w3.org/2000/svg" xmlns:xlink="http://www.w3.org/1999/xlink" x="0px" y="0px"
	 viewBox="0 0 32 32" style="enable-background:new 0 0 32 32;" xml:space="preserve">
<g id="Cap_x5F_cook">
	<g>
		<path style="fill-rule:evenodd;clip-rule:evenodd;" d="M25.5,3c-0.856,0-1.691,0.17-2.472,0.499C21.467,1.333,18.859,0,16,0
			s-5.467,1.333-7.028,3.499C8.191,3.17,7.356,3,6.5,3C2.916,3,0,5.916,0,9.5c0,3.067,2.138,5.639,5,6.318V29c0,1.657,1.343,3,3,3
			h16c1.657,0,3-1.343,3-3V15.818c2.862-0.68,5-3.251,5-6.318C32,5.916,29.084,3,25.5,3z M24,29H8v-2h16V29z M24,24H8v-8.196
			c1.049-0.25,2.024-0.738,2.828-1.459C12.301,15.409,14.115,16,16,16c1.885,0,3.7-0.591,5.172-1.655
			c0.803,0.721,1.778,1.209,2.828,1.459V24z M25.5,13c-1.182,0-2.277-0.597-2.929-1.596c-0.253-0.388-0.67-0.637-1.131-0.676
			c-0.042-0.003-0.083-0.005-0.125-0.005c-0.417,0-0.817,0.174-1.103,0.483C19.161,12.347,17.625,13,16,13s-3.161-0.653-4.212-1.793
			c-0.314-0.341-0.765-0.511-1.228-0.479c-0.461,0.039-0.878,0.288-1.131,0.676C8.777,12.403,7.683,13,6.5,13C4.57,13,3,11.43,3,9.5
			C3,7.57,4.57,6,6.5,6c0.754,0,1.484,0.253,2.111,0.732c0.365,0.279,0.838,0.374,1.284,0.262c0.445-0.114,0.814-0.427,1-0.848
			C11.737,4.235,13.741,3,16,3c2.259,0,4.263,1.234,5.106,3.146c0.185,0.421,0.554,0.734,0.999,0.849
			c0.446,0.112,0.919,0.018,1.284-0.262C24.016,6.253,24.746,6,25.5,6C27.43,6,29,7.57,29,9.5C29,11.43,27.43,13,25.5,13z"/>
	</g>
</g>
<g>
</g>
<g>
</g>
<g>
</g>
<g>
</g>
<g>
</g>
<g>
</g>
<g>
</g>
<g>
</g>
<g>
</g>
<g>
</g>
<g>
</g>
<g>
</g>
<g>
</g>
<g>
</g>
<g>
</g>
</svg>
