<?xml version="1.0" encoding="iso-8859-1"?>
<!-- Generator: Adobe Illustrator 18.0.0, SVG Export Plug-In . SVG Version: 6.00 Build 0)  -->
<!DOCTYPE svg PUBLIC "-//W3C//DTD SVG 1.1//EN" "http://www.w3.org/Graphics/SVG/1.1/DTD/svg11.dtd">
<svg version="1.1" id="Capa_1" xmlns="http://www.w3.org/2000/svg" xmlns:xlink="http://www.w3.org/1999/xlink" x="0px" y="0px"
	 viewBox="0 0 31 33" style="enable-background:new 0 0 31 33;" xml:space="preserve">
<g id="Timer">
	<g>
		<path style="fill-rule:evenodd;clip-rule:evenodd;" d="M27.823,6.591L29.232,8L31,6.232L26.768,2L25,3.768l1.409,1.409
			l-0.694,0.694c-2.144-1.884-4.804-3.181-7.743-3.654C17.829,0.971,16.784,0,15.5,0s-2.329,0.971-2.471,2.217
			C5.655,3.406,0,9.796,0,17.5C0,26.047,6.953,33,15.5,33C24.047,33,31,26.047,31,17.5c0-3.914-1.47-7.483-3.871-10.215
			L27.823,6.591z M28,17.5C28,24.393,22.393,30,15.5,30C8.607,30,3,24.393,3,17.5C3,10.607,8.607,5,15.5,5
			C22.393,5,28,10.607,28,17.5z M17,15.511V9.5C17,8.672,16.329,8,15.5,8C14.671,8,14,8.672,14,9.5v6.011
			c-0.604,0.456-1,1.173-1,1.989c0,0.816,0.396,1.533,1,1.989V21.5c0,0.828,0.671,1.5,1.5,1.5c0.829,0,1.5-0.672,1.5-1.5v-2.011
			c0.603-0.456,1-1.173,1-1.989C18,16.684,17.603,15.967,17,15.511z"/>
	</g>
</g>
<g>
</g>
<g>
</g>
<g>
</g>
<g>
</g>
<g>
</g>
<g>
</g>
<g>
</g>
<g>
</g>
<g>
</g>
<g>
</g>
<g>
</g>
<g>
</g>
<g>
</g>
<g>
</g>
<g>
</g>
</svg>
