<?xml version="1.0" encoding="iso-8859-1"?>
<!-- Generator: Adobe Illustrator 18.0.0, SVG Export Plug-In . SVG Version: 6.00 Build 0)  -->
<!DOCTYPE svg PUBLIC "-//W3C//DTD SVG 1.1//EN" "http://www.w3.org/Graphics/SVG/1.1/DTD/svg11.dtd">
<svg version="1.1" id="Capa_1" xmlns="http://www.w3.org/2000/svg" xmlns:xlink="http://www.w3.org/1999/xlink" x="0px" y="0px"
	 viewBox="0 0 31 31" style="enable-background:new 0 0 31 31;" xml:space="preserve">
<g id="Clock">
	<g>
		<path style="fill-rule:evenodd;clip-rule:evenodd;" d="M22.5,14H17V7.5C17,6.671,16.329,6,15.5,6C14.671,6,14,6.671,14,7.5V17h8.5
			c0.828,0,1.5-0.671,1.5-1.5C24,14.671,23.328,14,22.5,14z M15.5,0C6.94,0,0,6.94,0,15.5S6.94,31,15.5,31
			C24.06,31,31,24.06,31,15.5S24.06,0,15.5,0z M15.5,28C8.607,28,3,22.393,3,15.5C3,8.607,8.607,3,15.5,3C22.393,3,28,8.607,28,15.5
			C28,22.393,22.393,28,15.5,28z"/>
	</g>
</g>
<g>
</g>
<g>
</g>
<g>
</g>
<g>
</g>
<g>
</g>
<g>
</g>
<g>
</g>
<g>
</g>
<g>
</g>
<g>
</g>
<g>
</g>
<g>
</g>
<g>
</g>
<g>
</g>
<g>
</g>
</svg>
