<?xml version="1.0" encoding="iso-8859-1"?>
<!-- Generator: Adobe Illustrator 18.0.0, SVG Export Plug-In . SVG Version: 6.00 Build 0)  -->
<!DOCTYPE svg PUBLIC "-//W3C//DTD SVG 1.1//EN" "http://www.w3.org/Graphics/SVG/1.1/DTD/svg11.dtd">
<svg version="1.1" id="Capa_1" xmlns="http://www.w3.org/2000/svg" xmlns:xlink="http://www.w3.org/1999/xlink" x="0px" y="0px"
	 viewBox="0 0 24 32" style="enable-background:new 0 0 24 32;" xml:space="preserve">
<g id="Notepad">
	<g>
		<path style="fill-rule:evenodd;clip-rule:evenodd;" d="M6,20h12v-3H6V20z M22,3h-3V1c0-0.553-0.447-1-1-1H6C5.447,0,5,0.447,5,1v2
			H2C0.896,3,0,3.895,0,5v25c0,1.105,0.896,2,2,2h20c1.104,0,2-0.896,2-2V5C24,3.895,23.104,3,22,3z M8,3h8v3H8V3z M21,29H3V6h2v2
			c0,0.553,0.447,1,1,1h12c0.553,0,1-0.447,1-1V6h2V29z M6,15h12v-3H6V15z"/>
	</g>
</g>
<g>
</g>
<g>
</g>
<g>
</g>
<g>
</g>
<g>
</g>
<g>
</g>
<g>
</g>
<g>
</g>
<g>
</g>
<g>
</g>
<g>
</g>
<g>
</g>
<g>
</g>
<g>
</g>
<g>
</g>
</svg>
