<?xml version="1.0" encoding="iso-8859-1"?>
<!-- Generator: Adobe Illustrator 18.0.0, SVG Export Plug-In . SVG Version: 6.00 Build 0)  -->
<!DOCTYPE svg PUBLIC "-//W3C//DTD SVG 1.1//EN" "http://www.w3.org/Graphics/SVG/1.1/DTD/svg11.dtd">
<svg version="1.1" id="Capa_1" xmlns="http://www.w3.org/2000/svg" xmlns:xlink="http://www.w3.org/1999/xlink" x="0px" y="0px"
	 viewBox="0 0 32 32" style="enable-background:new 0 0 32 32;" xml:space="preserve">
<g id="Update">
	<g>
		<path style="fill-rule:evenodd;clip-rule:evenodd;" d="M30.5,1C29.672,1,29,1.672,29,2.5v4.175C26.022,2.51,21.232,0,16,0
			C7.178,0,0,7.178,0,16c0,8.822,7.178,16,16,16c6.503,0,12.31-3.885,14.794-9.896c0.158-0.383,0.146-0.793-0.001-1.146
			c-0.147-0.355-0.43-0.654-0.814-0.813c-0.382-0.158-0.792-0.146-1.146,0.001c-0.354,0.147-0.653,0.431-0.812,0.813
			C26.003,25.844,21.284,29,16,29C8.832,29,3,23.168,3,16C3,8.832,8.832,3,16,3c4.486,0,8.57,2.273,10.949,6H22.5
			C21.672,9,21,9.672,21,10.5c0,0.828,0.672,1.5,1.5,1.5h8c0.828,0,1.5-0.672,1.5-1.5v-8C32,1.672,31.328,1,30.5,1z"/>
	</g>
</g>
<g>
</g>
<g>
</g>
<g>
</g>
<g>
</g>
<g>
</g>
<g>
</g>
<g>
</g>
<g>
</g>
<g>
</g>
<g>
</g>
<g>
</g>
<g>
</g>
<g>
</g>
<g>
</g>
<g>
</g>
</svg>
