<?xml version="1.0" encoding="iso-8859-1"?>
<!-- Generator: Adobe Illustrator 18.0.0, SVG Export Plug-In . SVG Version: 6.00 Build 0)  -->
<!DOCTYPE svg PUBLIC "-//W3C//DTD SVG 1.1//EN" "http://www.w3.org/Graphics/SVG/1.1/DTD/svg11.dtd">
<svg version="1.1" id="Capa_1" xmlns="http://www.w3.org/2000/svg" xmlns:xlink="http://www.w3.org/1999/xlink" x="0px" y="0px"
	 viewBox="0 0 32 32" style="enable-background:new 0 0 32 32;" xml:space="preserve">
<g id="Error">
	<g>
		<path style="fill-rule:evenodd;clip-rule:evenodd;" d="M21.987,11.44c-0.015-0.363-0.15-0.723-0.428-1
			c-0.277-0.277-0.637-0.413-1-0.428c-0.404-0.017-0.813,0.119-1.121,0.428L16,13.879l-3.438-3.439
			c-0.309-0.309-0.717-0.444-1.121-0.428c-0.363,0.015-0.723,0.15-1,0.428c-0.277,0.277-0.413,0.637-0.428,1
			c-0.017,0.404,0.119,0.812,0.428,1.121L13.879,16l-3.438,3.438c-0.309,0.309-0.444,0.717-0.428,1.121
			c0.015,0.363,0.15,0.723,0.428,1c0.277,0.277,0.637,0.413,1,0.428c0.404,0.017,0.812-0.119,1.121-0.428L16,18.121l3.439,3.439
			c0.309,0.309,0.717,0.444,1.121,0.428c0.363-0.015,0.723-0.15,1-0.428c0.277-0.277,0.413-0.637,0.428-1
			c0.017-0.404-0.119-0.812-0.428-1.121L18.121,16l3.438-3.438C21.868,12.253,22.004,11.845,21.987,11.44z M16,0
			C7.164,0,0,7.164,0,16c0,8.836,7.164,16,16,16c8.836,0,16-7.164,16-16C32,7.164,24.836,0,16,0z M16,29C8.832,29,3,23.168,3,16
			C3,8.832,8.832,3,16,3s13,5.832,13,13C29,23.168,23.168,29,16,29z"/>
	</g>
</g>
<g>
</g>
<g>
</g>
<g>
</g>
<g>
</g>
<g>
</g>
<g>
</g>
<g>
</g>
<g>
</g>
<g>
</g>
<g>
</g>
<g>
</g>
<g>
</g>
<g>
</g>
<g>
</g>
<g>
</g>
</svg>
