<?xml version="1.0" encoding="iso-8859-1"?>
<!-- Generator: Adobe Illustrator 18.0.0, SVG Export Plug-In . SVG Version: 6.00 Build 0)  -->
<!DOCTYPE svg PUBLIC "-//W3C//DTD SVG 1.1//EN" "http://www.w3.org/Graphics/SVG/1.1/DTD/svg11.dtd">
<svg version="1.1" id="Capa_1" xmlns="http://www.w3.org/2000/svg" xmlns:xlink="http://www.w3.org/1999/xlink" x="0px" y="0px"
	 viewBox="0 0 34 24" style="enable-background:new 0 0 34 24;" xml:space="preserve">
<g id="Cloud">
	<g>
		<path style="fill-rule:evenodd;clip-rule:evenodd;" d="M30,11.5c0-4.06-3.227-7.357-7.254-7.487C20.823,1.572,17.849,0,14.5,0
			C8.919,0,4.368,4.357,4.032,9.854C1.637,11.106,0,13.609,0,16.5C0,20.643,3.357,24,7.5,24h20c3.59,0,6.5-2.91,6.5-6.5
			C34,14.796,32.349,12.48,30,11.5z M27.5,21h-20C5.019,21,3,18.981,3,16.5c0-1.679,0.928-3.207,2.422-3.987l1.501-0.785
			l0.103-1.691C7.268,6.091,10.551,3,14.5,3c2.307,0,4.453,1.046,5.89,2.869l0.864,1.097l1.396,0.045C25.089,7.09,27,9.062,27,11.5
			v1.999l1.846,0.77C30.154,14.815,31,16.083,31,17.5C31,19.43,29.43,21,27.5,21z"/>
	</g>
</g>
<g>
</g>
<g>
</g>
<g>
</g>
<g>
</g>
<g>
</g>
<g>
</g>
<g>
</g>
<g>
</g>
<g>
</g>
<g>
</g>
<g>
</g>
<g>
</g>
<g>
</g>
<g>
</g>
<g>
</g>
</svg>
