<?xml version="1.0" encoding="iso-8859-1"?>
<!-- Generator: Adobe Illustrator 18.0.0, SVG Export Plug-In . SVG Version: 6.00 Build 0)  -->
<!DOCTYPE svg PUBLIC "-//W3C//DTD SVG 1.1//EN" "http://www.w3.org/Graphics/SVG/1.1/DTD/svg11.dtd">
<svg version="1.1" id="Capa_1" xmlns="http://www.w3.org/2000/svg" xmlns:xlink="http://www.w3.org/1999/xlink" x="0px" y="0px"
	 viewBox="0 0 34 32" style="enable-background:new 0 0 34 32;" xml:space="preserve">
<g id="Cloud_x5F_Wind">
	<g>
		<path style="fill-rule:evenodd;clip-rule:evenodd;" d="M14.5,3c2.515,0,4.851,1.254,6.249,3.356l0.49,0.737l0.882-0.072
			C22.246,7.01,22.372,7,22.5,7c2.481,0,4.5,2.019,4.5,4.5c0,0.828,0.671,1.5,1.5,1.5s1.5-0.672,1.5-1.5
			c0-4.053-3.232-7.365-7.254-7.496C20.76,1.482,17.736,0,14.5,0C8.924,0,4.35,4.368,4.019,9.862C1.578,11.143,0,13.69,0,16.5
			C0,20.636,3.364,24,7.5,24C8.329,24,9,23.328,9,22.5C9,21.672,8.329,21,7.5,21C5.019,21,3,18.982,3,16.5
			c0-1.905,1.211-3.609,3.014-4.242l1.045-0.367L7,10.5C7,6.364,10.364,3,14.5,3z M29.5,14c-1.202,0-2.332,0.468-3.182,1.318
			c-0.586,0.586-0.586,1.535,0,2.121c0.586,0.586,1.535,0.586,2.121,0C28.723,17.156,29.1,17,29.5,17c0.827,0,1.5,0.673,1.5,1.5
			c0,0.827-0.673,1.5-1.5,1.5h-15c-0.829,0-1.5,0.672-1.5,1.5s0.671,1.5,1.5,1.5h15c2.481,0,4.5-2.019,4.5-4.5
			C34,16.019,31.981,14,29.5,14z M26,24H12.5c-0.829,0-1.5,0.672-1.5,1.5c0,0.828,0.671,1.5,1.5,1.5H26c0.551,0,1,0.448,1,1
			c0,0.552-0.449,1-1,1c-0.316,0-0.607-0.144-0.797-0.397c-0.5-0.662-1.44-0.793-2.101-0.292c-0.661,0.499-0.792,1.44-0.292,2.101
			C23.572,31.421,24.735,32,26,32c2.206,0,4-1.794,4-4C30,25.794,28.206,24,26,24z"/>
	</g>
</g>
<g>
</g>
<g>
</g>
<g>
</g>
<g>
</g>
<g>
</g>
<g>
</g>
<g>
</g>
<g>
</g>
<g>
</g>
<g>
</g>
<g>
</g>
<g>
</g>
<g>
</g>
<g>
</g>
<g>
</g>
</svg>
