<?xml version="1.0" encoding="iso-8859-1"?>
<!-- Generator: Adobe Illustrator 18.0.0, SVG Export Plug-In . SVG Version: 6.00 Build 0)  -->
<!DOCTYPE svg PUBLIC "-//W3C//DTD SVG 1.1//EN" "http://www.w3.org/Graphics/SVG/1.1/DTD/svg11.dtd">
<svg version="1.1" id="Capa_1" xmlns="http://www.w3.org/2000/svg" xmlns:xlink="http://www.w3.org/1999/xlink" x="0px" y="0px"
	 viewBox="0 0 41 40" style="enable-background:new 0 0 41 40;" xml:space="preserve">
<g id="Cloud_x5F_Sun_x5F_Fog">
	<g>
		<path style="fill-rule:evenodd;clip-rule:evenodd;" d="M15.44,9.56C15.711,9.832,16.086,10,16.5,10c0.828,0,1.5-0.672,1.5-1.5
			c0-0.414-0.168-0.789-0.44-1.061l-2-2C15.289,5.168,14.914,5,14.5,5C13.672,5,13,5.672,13,6.5c0,0.414,0.168,0.789,0.44,1.061
			L15.44,9.56z M22.5,37h-10c-0.828,0-1.5,0.671-1.5,1.5s0.672,1.5,1.5,1.5h10c0.828,0,1.5-0.671,1.5-1.5S23.328,37,22.5,37z
			 M24.5,6C25.328,6,26,5.328,26,4.5v-3C26,0.672,25.328,0,24.5,0C23.672,0,23,0.672,23,1.5v3C23,5.328,23.672,6,24.5,6z M32.5,10
			c0.414,0,0.789-0.168,1.06-0.44l2-2C35.832,7.289,36,6.914,36,6.5C36,5.672,35.328,5,34.5,5c-0.414,0-0.789,0.168-1.06,0.439l-2,2
			C31.168,7.711,31,8.086,31,8.5C31,9.328,31.672,10,32.5,10z M22.5,27h-10c-0.828,0-1.5,0.671-1.5,1.5c0,0.829,0.672,1.5,1.5,1.5
			h10c0.828,0,1.5-0.671,1.5-1.5C24,27.671,23.328,27,22.5,27z M39.5,15h-3c-0.828,0-1.5,0.672-1.5,1.5c0,0.828,0.672,1.5,1.5,1.5h3
			c0.828,0,1.5-0.672,1.5-1.5C41,15.672,40.328,15,39.5,15z M22.5,32h-10c-0.828,0-1.5,0.671-1.5,1.5c0,0.829,0.672,1.5,1.5,1.5h10
			c0.828,0,1.5-0.671,1.5-1.5C24,32.671,23.328,32,22.5,32z M30.329,22.667C31.969,21.118,33,18.933,33,16.5
			c0-4.693-3.806-8.5-8.5-8.5c-2.821,0-5.315,1.379-6.86,3.496C16.647,11.184,15.597,11,14.5,11c-5.581,0-10.132,4.357-10.468,9.854
			C1.637,22.105,0,24.609,0,27.5C0,31.643,3.357,35,7.5,35C8.328,35,9,34.329,9,33.5C9,32.671,8.328,32,7.5,32
			C5.019,32,3,29.981,3,27.5c0-1.679,0.928-3.207,2.422-3.987l1.501-0.785l0.104-1.691C7.268,17.091,10.551,14,14.5,14
			c2.307,0,4.453,1.046,5.89,2.869l0.864,1.097l1.395,0.045C25.089,18.09,27,20.061,27,22.5v1.999l1.846,0.77
			C30.154,25.815,31,27.083,31,28.5c0,1.93-1.57,3.5-3.5,3.5c-0.828,0-1.5,0.671-1.5,1.5c0,0.829,0.672,1.5,1.5,1.5
			c3.59,0,6.5-2.91,6.5-6.5C34,25.927,32.497,23.72,30.329,22.667z M29.247,19.241c-1.181-2.435-3.635-4.136-6.501-4.229
			c-0.66-0.837-1.451-1.563-2.331-2.168C21.422,11.719,22.874,11,24.5,11c3.033,0,5.5,2.467,5.5,5.5
			C30,17.502,29.718,18.433,29.247,19.241z"/>
	</g>
</g>
<g>
</g>
<g>
</g>
<g>
</g>
<g>
</g>
<g>
</g>
<g>
</g>
<g>
</g>
<g>
</g>
<g>
</g>
<g>
</g>
<g>
</g>
<g>
</g>
<g>
</g>
<g>
</g>
<g>
</g>
</svg>
