<?xml version="1.0" encoding="iso-8859-1"?>
<!-- Generator: Adobe Illustrator 18.0.0, SVG Export Plug-In . SVG Version: 6.00 Build 0)  -->
<!DOCTYPE svg PUBLIC "-//W3C//DTD SVG 1.1//EN" "http://www.w3.org/Graphics/SVG/1.1/DTD/svg11.dtd">
<svg version="1.1" id="Capa_1" xmlns="http://www.w3.org/2000/svg" xmlns:xlink="http://www.w3.org/1999/xlink" x="0px" y="0px"
	 viewBox="0 0 41 35" style="enable-background:new 0 0 41 35;" xml:space="preserve">
<g id="Cloud_x5F_Sun">
	<g>
		<path style="fill-rule:evenodd;clip-rule:evenodd;" d="M24.5,6C25.329,6,26,5.328,26,4.5v-3C26,0.672,25.329,0,24.5,0
			C23.671,0,23,0.672,23,1.5v3C23,5.328,23.671,6,24.5,6z M30.329,22.667C31.969,21.118,33,18.933,33,16.5
			c0-4.693-3.806-8.5-8.5-8.5c-2.821,0-5.315,1.38-6.861,3.496C16.646,11.184,15.597,11,14.5,11c-5.581,0-10.132,4.357-10.468,9.854
			C1.637,22.106,0,24.609,0,27.5C0,31.643,3.357,35,7.5,35h20c3.59,0,6.5-2.91,6.5-6.5C34,25.927,32.497,23.72,30.329,22.667z
			 M24.5,11c3.033,0,5.5,2.467,5.5,5.5c0,1.001-0.282,1.933-0.753,2.741c-1.18-2.435-3.634-4.136-6.5-4.229
			c-0.66-0.837-1.451-1.563-2.331-2.167C21.422,11.719,22.874,11,24.5,11z M27.5,32h-20C5.019,32,3,29.981,3,27.5
			c0-1.679,0.928-3.207,2.422-3.987l1.501-0.785l0.103-1.691C7.268,17.091,10.551,14,14.5,14c2.307,0,4.453,1.046,5.89,2.869
			l0.864,1.097l1.396,0.045C25.089,18.09,27,20.062,27,22.5v1.999l1.846,0.77C30.154,25.815,31,27.083,31,28.5
			C31,30.43,29.43,32,27.5,32z M32.5,10c0.414,0,0.789-0.168,1.06-0.439l2-2C35.832,7.289,36,6.914,36,6.5C36,5.672,35.329,5,34.5,5
			c-0.414,0-0.789,0.168-1.06,0.44l-2,2C31.168,7.711,31,8.086,31,8.5C31,9.328,31.671,10,32.5,10z M15.439,9.561
			C15.711,9.832,16.086,10,16.5,10c0.828,0,1.5-0.672,1.5-1.5c0-0.414-0.168-0.789-0.44-1.061l-2-2C15.289,5.168,14.914,5,14.5,5
			C13.672,5,13,5.672,13,6.5c0,0.414,0.168,0.789,0.44,1.06L15.439,9.561z M39.5,15h-3c-0.828,0-1.5,0.672-1.5,1.5
			c0,0.828,0.672,1.5,1.5,1.5h3c0.828,0,1.5-0.672,1.5-1.5C41,15.672,40.328,15,39.5,15z"/>
	</g>
</g>
<g>
</g>
<g>
</g>
<g>
</g>
<g>
</g>
<g>
</g>
<g>
</g>
<g>
</g>
<g>
</g>
<g>
</g>
<g>
</g>
<g>
</g>
<g>
</g>
<g>
</g>
<g>
</g>
<g>
</g>
</svg>
