<?xml version="1.0" encoding="iso-8859-1"?>
<!-- Generator: Adobe Illustrator 18.0.0, SVG Export Plug-In . SVG Version: 6.00 Build 0)  -->
<!DOCTYPE svg PUBLIC "-//W3C//DTD SVG 1.1//EN" "http://www.w3.org/Graphics/SVG/1.1/DTD/svg11.dtd">
<svg version="1.1" id="Capa_1" xmlns="http://www.w3.org/2000/svg" xmlns:xlink="http://www.w3.org/1999/xlink" x="0px" y="0px"
	 viewBox="0 0 41 43" style="enable-background:new 0 0 41 43;" xml:space="preserve">
<g id="Cloud_x5F_Sun_x5F_Wind">
	<g>
		<path style="fill-rule:evenodd;clip-rule:evenodd;" d="M15.439,9.561C15.711,9.832,16.086,10,16.5,10c0.828,0,1.5-0.672,1.5-1.5
			c0-0.414-0.168-0.789-0.44-1.061l-2-2C15.289,5.168,14.914,5,14.5,5C13.672,5,13,5.672,13,6.5c0,0.414,0.168,0.789,0.439,1.06
			L15.439,9.561z M39.5,15h-3c-0.828,0-1.5,0.672-1.5,1.5s0.672,1.5,1.5,1.5h3c0.828,0,1.5-0.672,1.5-1.5S40.328,15,39.5,15z
			 M24.5,6C25.328,6,26,5.328,26,4.5v-3C26,0.672,25.328,0,24.5,0C23.672,0,23,0.672,23,1.5v3C23,5.328,23.672,6,24.5,6z M32.5,10
			c0.414,0,0.789-0.168,1.061-0.439l2-2C35.832,7.289,36,6.914,36,6.5C36,5.672,35.328,5,34.5,5c-0.414,0-0.789,0.168-1.06,0.44
			l-2,2C31.168,7.711,31,8.086,31,8.5C31,9.328,31.672,10,32.5,10z M14.5,14c2.515,0,4.851,1.255,6.249,3.356l0.49,0.736
			l0.882-0.072C22.246,18.01,22.372,18,22.5,18c2.481,0,4.5,2.019,4.5,4.5c0,0.828,0.672,1.5,1.5,1.5c0.639,0,1.18-0.4,1.396-0.963
			C31.783,21.479,33,19.138,33,16.5c0-4.693-3.806-8.5-8.5-8.5c-2.82,0-5.315,1.379-6.86,3.494C16.636,11.18,15.582,11,14.5,11
			c-5.576,0-10.15,4.368-10.481,9.862C1.578,22.143,0,24.69,0,27.5C0,31.636,3.364,35,7.5,35C8.329,35,9,34.328,9,33.5
			C9,32.672,8.329,32,7.5,32C5.019,32,3,29.982,3,27.5c0-1.905,1.211-3.609,3.014-4.242l1.045-0.367L7,21.5
			C7,17.364,10.364,14,14.5,14z M24.5,11c3.033,0,5.5,2.467,5.5,5.5c0,1.002-0.282,1.934-0.754,2.742
			c-1.182-2.436-3.637-4.145-6.5-4.238c-0.667-0.848-1.459-1.564-2.33-2.16C21.423,11.718,22.875,11,24.5,11z M29.5,25
			c-1.202,0-2.332,0.468-3.182,1.318c-0.586,0.586-0.586,1.535,0,2.121c0.586,0.586,1.535,0.586,2.121,0
			C28.723,28.156,29.1,28,29.5,28c0.827,0,1.5,0.673,1.5,1.5c0,0.827-0.673,1.5-1.5,1.5h-15c-0.829,0-1.5,0.672-1.5,1.5
			s0.671,1.5,1.5,1.5h15c2.481,0,4.5-2.019,4.5-4.5C34,27.019,31.981,25,29.5,25z M26,35H12.5c-0.829,0-1.5,0.672-1.5,1.5
			c0,0.828,0.671,1.5,1.5,1.5H26c0.552,0,1,0.448,1,1c0,0.552-0.448,1-1,1c-0.316,0-0.607-0.144-0.798-0.397
			c-0.501-0.662-1.44-0.792-2.101-0.292c-0.661,0.499-0.792,1.44-0.292,2.101C23.571,42.421,24.734,43,26,43c2.206,0,4-1.794,4-4
			C30,36.794,28.206,35,26,35z"/>
	</g>
</g>
<g>
</g>
<g>
</g>
<g>
</g>
<g>
</g>
<g>
</g>
<g>
</g>
<g>
</g>
<g>
</g>
<g>
</g>
<g>
</g>
<g>
</g>
<g>
</g>
<g>
</g>
<g>
</g>
<g>
</g>
</svg>
