<?xml version="1.0" encoding="iso-8859-1"?>
<!-- Generator: Adobe Illustrator 18.0.0, SVG Export Plug-In . SVG Version: 6.00 Build 0)  -->
<!DOCTYPE svg PUBLIC "-//W3C//DTD SVG 1.1//EN" "http://www.w3.org/Graphics/SVG/1.1/DTD/svg11.dtd">
<svg version="1.1" id="Capa_1" xmlns="http://www.w3.org/2000/svg" xmlns:xlink="http://www.w3.org/1999/xlink" x="0px" y="0px"
	 viewBox="0 0 34 30" style="enable-background:new 0 0 34 30;" xml:space="preserve">
<g id="Cloud_x5F_Lightning">
	<g>
		<path style="fill-rule:evenodd;clip-rule:evenodd;" d="M20.5,22H18v-4.5c0-0.276-0.224-0.5-0.5-0.5
			c-0.187,0-0.349,0.102-0.435,0.252l-4,7C13.023,24.325,13,24.41,13,24.5c0,0.276,0.224,0.5,0.5,0.5H16v4.5
			c0,0.276,0.224,0.5,0.5,0.5c0.187,0,0.349-0.102,0.435-0.252l4-7C20.977,22.675,21,22.59,21,22.5C21,22.224,20.776,22,20.5,22z
			 M30,11.5c0-4.06-3.227-7.357-7.254-7.487C20.823,1.572,17.849,0,14.5,0C8.919,0,4.368,4.357,4.032,9.854
			C1.637,11.106,0,13.609,0,16.5C0,20.643,3.357,24,7.5,24h2c0.828,0,1.5-0.672,1.5-1.5c0-0.828-0.672-1.5-1.5-1.5h-2
			C5.019,21,3,18.982,3,16.5c0-1.679,0.928-3.207,2.422-3.987l1.501-0.785l0.104-1.691C7.268,6.091,10.551,3,14.5,3
			c2.307,0,4.453,1.046,5.89,2.869l0.864,1.097l1.396,0.045C25.089,7.09,27,9.062,27,11.5v1.999l1.846,0.77
			C30.154,14.815,31,16.083,31,17.5c0,1.93-1.57,3.5-3.5,3.5h-3c-0.828,0-1.5,0.672-1.5,1.5c0,0.828,0.672,1.5,1.5,1.5h3
			c3.59,0,6.5-2.91,6.5-6.5C34,14.796,32.349,12.48,30,11.5z"/>
	</g>
</g>
<g>
</g>
<g>
</g>
<g>
</g>
<g>
</g>
<g>
</g>
<g>
</g>
<g>
</g>
<g>
</g>
<g>
</g>
<g>
</g>
<g>
</g>
<g>
</g>
<g>
</g>
<g>
</g>
<g>
</g>
</svg>
