<?xml version="1.0" encoding="iso-8859-1"?>
<!-- Generator: Adobe Illustrator 18.0.0, SVG Export Plug-In . SVG Version: 6.00 Build 0)  -->
<!DOCTYPE svg PUBLIC "-//W3C//DTD SVG 1.1//EN" "http://www.w3.org/Graphics/SVG/1.1/DTD/svg11.dtd">
<svg version="1.1" id="Capa_1" xmlns="http://www.w3.org/2000/svg" xmlns:xlink="http://www.w3.org/1999/xlink" x="0px" y="0px"
	 viewBox="0 0 35 32" style="enable-background:new 0 0 35 32;" xml:space="preserve">
<g id="Cart">
	<g>
		<path style="fill-rule:evenodd;clip-rule:evenodd;" d="M8,26c-1.657,0-3,1.343-3,3s1.343,3,3,3c1.657,0,3-1.343,3-3S9.657,26,8,26
			z M32,5H7.121L2.56,0.44C2.289,0.168,1.914,0,1.5,0C0.671,0,0,0.671,0,1.5c0,0.414,0.168,0.789,0.44,1.06L4,6.121V21
			c0,1.657,1.343,3,3,3h19c1.208,0,2.25-0.715,2.726-1.744l6-13C34.901,8.874,35,8.448,35,8C35,6.343,33.656,5,32,5z M26,21H7v-8
			h22.693L26,21z M31.078,10H7V8h25l0.002-0.002L31.078,10z M24,26c-1.656,0-3,1.343-3,3s1.344,3,3,3s3-1.343,3-3S25.656,26,24,26z"
			/>
	</g>
</g>
<g>
</g>
<g>
</g>
<g>
</g>
<g>
</g>
<g>
</g>
<g>
</g>
<g>
</g>
<g>
</g>
<g>
</g>
<g>
</g>
<g>
</g>
<g>
</g>
<g>
</g>
<g>
</g>
<g>
</g>
</svg>
