<?xml version="1.0" encoding="iso-8859-1"?>
<!-- Generator: Adobe Illustrator 18.0.0, SVG Export Plug-In . SVG Version: 6.00 Build 0)  -->
<!DOCTYPE svg PUBLIC "-//W3C//DTD SVG 1.1//EN" "http://www.w3.org/Graphics/SVG/1.1/DTD/svg11.dtd">
<svg version="1.1" id="Capa_1" xmlns="http://www.w3.org/2000/svg" xmlns:xlink="http://www.w3.org/1999/xlink" x="0px" y="0px"
	 viewBox="0 0 32 32" style="enable-background:new 0 0 32 32;" xml:space="preserve">
<g id="Compass">
	<g>
		<path style="fill-rule:evenodd;clip-rule:evenodd;" d="M16,0C7.163,0,0,7.164,0,16c0,8.836,7.163,16,16,16c8.837,0,16-7.164,16-16
			C32,7.164,24.837,0,16,0z M16,29C8.832,29,3,23.168,3,16C3,8.832,8.832,3,16,3c7.168,0,13,5.832,13,13C29,23.168,23.168,29,16,29z
			 M22,9c-0.101,0-0.199,0.016-0.29,0.043l-7.162,2.172c-1.593,0.483-2.85,1.74-3.333,3.332l-2.171,7.162
			C9.015,21.801,9,21.898,9,22c0,0.553,0.448,1,1,1c0.101,0,0.199-0.016,0.291-0.043l7.162-2.172c1.593-0.483,2.85-1.74,3.333-3.332
			l2.171-7.162C22.985,10.199,23,10.102,23,10C23,9.447,22.552,9,22,9z M16,18c-1.104,0-2-0.896-2-2c0-1.105,0.896-2,2-2
			s2,0.896,2,2C18,17.104,17.104,18,16,18z"/>
	</g>
</g>
<g>
</g>
<g>
</g>
<g>
</g>
<g>
</g>
<g>
</g>
<g>
</g>
<g>
</g>
<g>
</g>
<g>
</g>
<g>
</g>
<g>
</g>
<g>
</g>
<g>
</g>
<g>
</g>
<g>
</g>
</svg>
