<?xml version="1.0" encoding="iso-8859-1"?>
<!-- Generator: Adobe Illustrator 18.0.0, SVG Export Plug-In . SVG Version: 6.00 Build 0)  -->
<!DOCTYPE svg PUBLIC "-//W3C//DTD SVG 1.1//EN" "http://www.w3.org/Graphics/SVG/1.1/DTD/svg11.dtd">
<svg version="1.1" id="Capa_1" xmlns="http://www.w3.org/2000/svg" xmlns:xlink="http://www.w3.org/1999/xlink" x="0px" y="0px"
	 viewBox="0 0 26 32" style="enable-background:new 0 0 26 32;" xml:space="preserve">
<g id="Recycle_x5F_Bin">
	<g>
		<path style="fill-rule:evenodd;clip-rule:evenodd;" d="M24.5,5H19V2c0-1.104-0.896-2-2-2H9C7.896,0,7,0.896,7,2v3H1.5
			C0.672,5,0,5.671,0,6.5C0,7.329,0.672,8,1.5,8H2v22c0,1.105,0.896,2,2,2h18c1.104,0,2-0.896,2-2V8h0.5C25.328,8,26,7.329,26,6.5
			C26,5.671,25.328,5,24.5,5z M10,3h6v2h-6V3z M21,29H5V8h16V29z"/>
	</g>
</g>
<g>
</g>
<g>
</g>
<g>
</g>
<g>
</g>
<g>
</g>
<g>
</g>
<g>
</g>
<g>
</g>
<g>
</g>
<g>
</g>
<g>
</g>
<g>
</g>
<g>
</g>
<g>
</g>
<g>
</g>
</svg>
