<?xml version="1.0" encoding="iso-8859-1"?>
<!-- Generator: Adobe Illustrator 18.0.0, SVG Export Plug-In . SVG Version: 6.00 Build 0)  -->
<!DOCTYPE svg PUBLIC "-//W3C//DTD SVG 1.1//EN" "http://www.w3.org/Graphics/SVG/1.1/DTD/svg11.dtd">
<svg version="1.1" id="Capa_1" xmlns="http://www.w3.org/2000/svg" xmlns:xlink="http://www.w3.org/1999/xlink" x="0px" y="0px"
	 viewBox="0 0 32 33" style="enable-background:new 0 0 32 33;" xml:space="preserve">
<g id="Cupcake">
	<g>
		<path style="fill-rule:evenodd;clip-rule:evenodd;" d="M32,16.5c0-1.865-1.136-3.49-2.808-4.164
			c-1.398-3.952-4.506-7.008-8.324-8.439C20.363,1.671,18.377,0,16,0c-2.376,0-4.363,1.671-4.868,3.896
			c-3.818,1.432-6.926,4.487-8.324,8.439C1.136,13.01,0,14.635,0,16.5c0,2.325,1.779,4.222,4.044,4.454
			C4.015,21.132,4,21.315,4,21.5c0,0.289,0.035,0.575,0.104,0.851l2,8C6.495,31.91,7.891,33,9.5,33h13
			c1.609,0,3.005-1.09,3.395-2.649l2-7.998C27.965,22.075,28,21.789,28,21.5c0-0.186-0.015-0.368-0.043-0.546
			C30.221,20.722,32,18.825,32,16.5z M16,3c1.103,0,2,0.897,2,2s-0.897,2-2,2c-1.103,0-2-0.897-2-2S14.897,3,16,3z M24.985,21.622
			l-2,8C22.94,29.805,22.769,30,22.5,30h-13c-0.269,0-0.44-0.195-0.485-0.378l-2-8.002C7.005,21.583,7,21.542,7,21.5
			C7,21.225,7.224,21,7.5,21h17c0.276,0,0.5,0.225,0.5,0.5C25,21.542,24.995,21.583,24.985,21.622z M27.5,18h-23
			C3.673,18,3,17.327,3,16.5c0-0.729,0.524-1.347,1.246-1.471l0.929-0.159l0.26-0.906c0.9-3.139,3.151-5.632,6-6.943
			C12.214,8.772,13.963,10,16,10c2.037,0,3.786-1.228,4.565-2.979c2.849,1.312,5.1,3.805,6,6.943l0.26,0.906l0.929,0.159
			C28.476,15.153,29,15.771,29,16.5C29,17.327,28.327,18,27.5,18z"/>
	</g>
</g>
<g>
</g>
<g>
</g>
<g>
</g>
<g>
</g>
<g>
</g>
<g>
</g>
<g>
</g>
<g>
</g>
<g>
</g>
<g>
</g>
<g>
</g>
<g>
</g>
<g>
</g>
<g>
</g>
<g>
</g>
</svg>
