<?xml version="1.0" encoding="iso-8859-1"?>
<!-- Generator: Adobe Illustrator 18.0.0, SVG Export Plug-In . SVG Version: 6.00 Build 0)  -->
<!DOCTYPE svg PUBLIC "-//W3C//DTD SVG 1.1//EN" "http://www.w3.org/Graphics/SVG/1.1/DTD/svg11.dtd">
<svg version="1.1" id="Capa_1" xmlns="http://www.w3.org/2000/svg" xmlns:xlink="http://www.w3.org/1999/xlink" x="0px" y="0px"
	 viewBox="0 0 33 30.981" style="enable-background:new 0 0 33 30.981;" xml:space="preserve">
<g id="Radiation">
	<g>
		<path style="fill-rule:evenodd;clip-rule:evenodd;" d="M31.5,15h-9.713c-0.252-0.887-0.72-1.684-1.346-2.328l4.852-8.403
			c0.414-0.717,0.169-1.634-0.547-2.048C22.234,0.768,19.383,0,16.5,0s-5.734,0.768-8.246,2.221
			C7.538,2.636,7.293,3.553,7.707,4.269l4.852,8.403c-0.626,0.644-1.094,1.44-1.346,2.328H1.5C0.672,15,0,15.671,0,16.5
			c0,5.861,3.163,11.332,8.254,14.279c0.345,0.199,0.754,0.253,1.14,0.15c0.384-0.103,0.712-0.355,0.911-0.699l4.852-8.403
			C15.587,21.935,16.035,22,16.5,22c0.465,0,0.913-0.065,1.344-0.173l4.852,8.403c0.199,0.345,0.527,0.596,0.911,0.699
			c0.386,0.103,0.794,0.049,1.14-0.15C29.837,27.832,33,22.361,33,16.5C33,15.671,32.328,15,31.5,15z M8.5,27.357
			C5.477,25.125,3.506,21.719,3.085,18h8.128c0.252,0.887,0.72,1.684,1.346,2.327L8.5,27.357z M11.096,4.139
			c3.407-1.497,7.401-1.497,10.809,0l-4.061,7.034C17.412,11.064,16.965,11,16.5,11c-0.465,0-0.912,0.064-1.344,0.173L11.096,4.139z
			 M16.5,19c-1.379,0-2.5-1.121-2.5-2.5c0-1.378,1.121-2.5,2.5-2.5s2.5,1.122,2.5,2.5C19,17.879,17.879,19,16.5,19z M24.5,27.357
			l-4.059-7.03c0.626-0.643,1.094-1.44,1.346-2.327h8.128C29.494,21.719,27.523,25.125,24.5,27.357z"/>
	</g>
</g>
<g>
</g>
<g>
</g>
<g>
</g>
<g>
</g>
<g>
</g>
<g>
</g>
<g>
</g>
<g>
</g>
<g>
</g>
<g>
</g>
<g>
</g>
<g>
</g>
<g>
</g>
<g>
</g>
<g>
</g>
</svg>
