<?xml version="1.0" encoding="iso-8859-1"?>
<!-- Generator: Adobe Illustrator 18.0.0, SVG Export Plug-In . SVG Version: 6.00 Build 0)  -->
<!DOCTYPE svg PUBLIC "-//W3C//DTD SVG 1.1//EN" "http://www.w3.org/Graphics/SVG/1.1/DTD/svg11.dtd">
<svg version="1.1" id="Capa_1" xmlns="http://www.w3.org/2000/svg" xmlns:xlink="http://www.w3.org/1999/xlink" x="0px" y="0px"
	 viewBox="0 0 28 32" style="enable-background:new 0 0 28 32;" xml:space="preserve">
<g id="Storage">
	<g>
		<path style="fill-rule:evenodd;clip-rule:evenodd;" d="M14,0C6.28,0,0,3.141,0,7v18c0,3.859,6.28,7,14,7s14-3.141,14-7V7
			C28,3.141,21.72,0,14,0z M25,25c0,1.196-3.742,4-11,4c-7.257,0-11-2.804-11-4v-4.684C5.565,21.947,9.538,23,14,23
			c4.463,0,8.435-1.053,11-2.684V25z M25,16c0,1.196-3.742,4-11,4c-7.257,0-11-2.804-11-4v-4.684C5.565,12.947,9.538,14,14,14
			c4.463,0,8.435-1.053,11-2.683V16z M14,11C6.743,11,3,8.196,3,7c0-1.196,3.743-4,11-4c7.258,0,11,2.804,11,4
			C25,8.196,21.258,11,14,11z"/>
	</g>
</g>
<g>
</g>
<g>
</g>
<g>
</g>
<g>
</g>
<g>
</g>
<g>
</g>
<g>
</g>
<g>
</g>
<g>
</g>
<g>
</g>
<g>
</g>
<g>
</g>
<g>
</g>
<g>
</g>
<g>
</g>
</svg>
