<?xml version="1.0" encoding="iso-8859-1"?>
<!-- Generator: Adobe Illustrator 18.0.0, SVG Export Plug-In . SVG Version: 6.00 Build 0)  -->
<!DOCTYPE svg PUBLIC "-//W3C//DTD SVG 1.1//EN" "http://www.w3.org/Graphics/SVG/1.1/DTD/svg11.dtd">
<svg version="1.1" id="Capa_1" xmlns="http://www.w3.org/2000/svg" xmlns:xlink="http://www.w3.org/1999/xlink" x="0px" y="0px"
	 viewBox="0 0 32 32" style="enable-background:new 0 0 32 32;" xml:space="preserve">
<g id="Aperture">
	<g>
		<path style="fill-rule:evenodd;clip-rule:evenodd;" d="M16,0C7.178,0,0,7.178,0,16c0,8.822,7.178,16,16,16c8.822,0,16-7.178,16-16
			C32,7.178,24.822,0,16,0z M28.351,11.963l-8.889-4.285l4.312-2.072C25.89,7.191,27.51,9.398,28.351,11.963z M12.721,3.435
			C13.771,3.161,14.866,3,16,3c1.598,0,3.121,0.304,4.536,0.833l-8.885,4.273L12.721,3.435z M10.794,11.846l5.208-2.504l5.204,2.509
			l1.284,5.632L18.888,22h-5.779l-3.603-4.526L10.794,11.846z M9.315,4.872l-2.199,9.601l-2.985-3.75
			C5.221,8.281,7.042,6.242,9.315,4.872z M4.479,22C3.539,20.203,3,18.164,3,16c0-0.585,0.052-1.156,0.127-1.721L9.274,22H4.479z
			 M13.5,28.753C10.831,28.231,8.457,26.888,6.641,25h9.854L13.5,28.753z M17.19,28.94l6.153-7.715l1.065,4.672
			C22.424,27.586,19.931,28.69,17.19,28.94z M26.856,23.132l-2.191-9.614l4.314,2.08C28.983,15.732,29,15.864,29,16
			C29,18.633,28.208,21.082,26.856,23.132z"/>
	</g>
</g>
<g>
</g>
<g>
</g>
<g>
</g>
<g>
</g>
<g>
</g>
<g>
</g>
<g>
</g>
<g>
</g>
<g>
</g>
<g>
</g>
<g>
</g>
<g>
</g>
<g>
</g>
<g>
</g>
<g>
</g>
</svg>
