<?xml version="1.0" encoding="iso-8859-1"?>
<!-- Generator: Adobe Illustrator 18.0.0, SVG Export Plug-In . SVG Version: 6.00 Build 0)  -->
<!DOCTYPE svg PUBLIC "-//W3C//DTD SVG 1.1//EN" "http://www.w3.org/Graphics/SVG/1.1/DTD/svg11.dtd">
<svg version="1.1" id="Capa_1" xmlns="http://www.w3.org/2000/svg" xmlns:xlink="http://www.w3.org/1999/xlink" x="0px" y="0px"
	 viewBox="0 0 32 32" style="enable-background:new 0 0 32 32;" xml:space="preserve">
<g id="Down">
	<g>
		<path style="fill-rule:evenodd;clip-rule:evenodd;" d="M16,0C7.164,0,0,7.164,0,16s7.164,16,16,16c8.836,0,16-7.164,16-16
			S24.836,0,16,0z M16,29C8.832,29,3,23.168,3,16S8.832,3,16,3c7.168,0,13,5.832,13,13S23.168,29,16,29z M21.5,12
			c-0.438,0-0.828,0.19-1.102,0.489l-0.004-0.003L16,17.28l-4.395-4.794l-0.004,0.003C11.328,12.19,10.938,12,10.5,12
			C9.672,12,9,12.672,9,13.5c0,0.391,0.153,0.743,0.398,1.011l-0.004,0.003l5.5,6C15.179,20.823,15.579,21,16,21
			c0.421,0,0.821-0.177,1.105-0.486l5.5-6l-0.004-0.003C22.847,14.243,23,13.891,23,13.5C23,12.672,22.328,12,21.5,12z"/>
	</g>
</g>
<g>
</g>
<g>
</g>
<g>
</g>
<g>
</g>
<g>
</g>
<g>
</g>
<g>
</g>
<g>
</g>
<g>
</g>
<g>
</g>
<g>
</g>
<g>
</g>
<g>
</g>
<g>
</g>
<g>
</g>
</svg>
