<?xml version="1.0" encoding="iso-8859-1"?>
<!-- Generator: Adobe Illustrator 18.0.0, SVG Export Plug-In . SVG Version: 6.00 Build 0)  -->
<!DOCTYPE svg PUBLIC "-//W3C//DTD SVG 1.1//EN" "http://www.w3.org/Graphics/SVG/1.1/DTD/svg11.dtd">
<svg version="1.1" id="Capa_1" xmlns="http://www.w3.org/2000/svg" xmlns:xlink="http://www.w3.org/1999/xlink" x="0px" y="0px"
	 viewBox="0 0 27 32" style="enable-background:new 0 0 27 32;" xml:space="preserve">
<g id="In">
	<g>
		<path style="fill-rule:evenodd;clip-rule:evenodd;" d="M7,16.5c0,0.414,0.168,0.789,0.439,1.06l5,5
			C12.711,22.832,13.086,23,13.5,23c0.414,0,0.789-0.168,1.06-0.44l5-5C19.832,17.289,20,16.914,20,16.5c0-0.828-0.671-1.5-1.5-1.5
			c-0.414,0-0.789,0.168-1.06,0.439L15,17.879V1.5C15,0.672,14.329,0,13.5,0C12.671,0,12,0.672,12,1.5v16.379L9.56,15.44
			C9.289,15.168,8.914,15,8.5,15C7.671,15,7,15.672,7,16.5z M25,7h-5.5C18.671,7,18,7.672,18,8.5c0,0.828,0.671,1.5,1.5,1.5H24v19H3
			V10h4.5C8.329,10,9,9.328,9,8.5C9,7.672,8.329,7,7.5,7H2C0.897,7,0,7.898,0,9v21c0,1.102,0.897,2,2,2h23c1.103,0,2-0.898,2-2V9
			C27,7.898,26.103,7,25,7z"/>
	</g>
</g>
<g>
</g>
<g>
</g>
<g>
</g>
<g>
</g>
<g>
</g>
<g>
</g>
<g>
</g>
<g>
</g>
<g>
</g>
<g>
</g>
<g>
</g>
<g>
</g>
<g>
</g>
<g>
</g>
<g>
</g>
</svg>
