<?xml version="1.0" encoding="iso-8859-1"?>
<!-- Generator: Adobe Illustrator 18.0.0, SVG Export Plug-In . SVG Version: 6.00 Build 0)  -->
<!DOCTYPE svg PUBLIC "-//W3C//DTD SVG 1.1//EN" "http://www.w3.org/Graphics/SVG/1.1/DTD/svg11.dtd">
<svg version="1.1" id="Capa_1" xmlns="http://www.w3.org/2000/svg" xmlns:xlink="http://www.w3.org/1999/xlink" x="0px" y="0px"
	 viewBox="0 0 32 32" style="enable-background:new 0 0 32 32;" xml:space="preserve">
<g id="Pencil">
	<g>
		<path style="fill-rule:evenodd;clip-rule:evenodd;" d="M31.651,8.651l-8.303-8.303C23.114,0.114,22.807,0,22.5,0
			c-0.307,0-0.614,0.114-0.848,0.349L0,22v10h10l21.651-21.651C31.886,10.114,32,9.807,32,9.5C32,9.192,31.886,8.886,31.651,8.651z
			 M3,29v-4.879L7.879,29H3z M10.561,27.44l-6-6L18.44,7.56l6,6L10.561,27.44z M26.561,11.44l-6-6L22.5,3.5l6,6L26.561,11.44z"/>
	</g>
</g>
<g>
</g>
<g>
</g>
<g>
</g>
<g>
</g>
<g>
</g>
<g>
</g>
<g>
</g>
<g>
</g>
<g>
</g>
<g>
</g>
<g>
</g>
<g>
</g>
<g>
</g>
<g>
</g>
<g>
</g>
</svg>
