<?xml version="1.0" encoding="iso-8859-1"?>
<!-- Generator: Adobe Illustrator 18.0.0, SVG Export Plug-In . SVG Version: 6.00 Build 0)  -->
<!DOCTYPE svg PUBLIC "-//W3C//DTD SVG 1.1//EN" "http://www.w3.org/Graphics/SVG/1.1/DTD/svg11.dtd">
<svg version="1.1" id="Capa_1" xmlns="http://www.w3.org/2000/svg" xmlns:xlink="http://www.w3.org/1999/xlink" x="0px" y="0px"
	 viewBox="0 0 41 41" style="enable-background:new 0 0 41 41;" xml:space="preserve">
<g id="Cloud_x5F_Sun_x5F_Lightning">
	<g>
		<path style="fill-rule:evenodd;clip-rule:evenodd;" d="M15.44,9.561C15.711,9.832,16.086,10,16.5,10c0.828,0,1.5-0.672,1.5-1.5
			c0-0.414-0.168-0.789-0.439-1.061l-2-2C15.289,5.168,14.914,5,14.5,5C13.672,5,13,5.672,13,6.5c0,0.414,0.168,0.789,0.439,1.06
			L15.44,9.561z M24.5,6C25.328,6,26,5.328,26,4.5v-3C26,0.672,25.328,0,24.5,0C23.672,0,23,0.672,23,1.5v3
			C23,5.328,23.672,6,24.5,6z M32.5,10c0.414,0,0.789-0.168,1.061-0.439l2-2C35.832,7.289,36,6.914,36,6.5C36,5.672,35.328,5,34.5,5
			c-0.414,0-0.789,0.168-1.061,0.44l-2,2C31.168,7.711,31,8.086,31,8.5C31,9.328,31.672,10,32.5,10z M30.329,22.666
			C31.969,21.118,33,18.934,33,16.5c0-4.693-3.806-8.5-8.5-8.5c-2.821,0-5.315,1.379-6.861,3.496C16.647,11.184,15.597,11,14.5,11
			c-5.581,0-10.132,4.357-10.468,9.854C1.637,22.106,0,24.609,0,27.5C0,31.643,3.357,35,7.5,35h2c0.828,0,1.5-0.672,1.5-1.5
			c0-0.828-0.672-1.5-1.5-1.5h-2C5.019,32,3,29.982,3,27.5c0-1.679,0.928-3.207,2.422-3.987l1.501-0.785l0.104-1.691
			C7.268,17.091,10.551,14,14.5,14c2.307,0,4.453,1.046,5.89,2.869l0.864,1.097l1.396,0.045C25.089,18.09,27,20.062,27,22.5v1.999
			l1.846,0.77C30.154,25.815,31,27.083,31,28.5c0,1.93-1.57,3.5-3.5,3.5h-3c-0.828,0-1.5,0.672-1.5,1.5c0,0.828,0.672,1.5,1.5,1.5h3
			c3.59,0,6.5-2.91,6.5-6.5C34,25.928,32.497,23.72,30.329,22.666z M29.246,19.241c-1.18-2.435-3.634-4.136-6.5-4.229
			c-0.66-0.837-1.451-1.563-2.331-2.167C21.422,11.719,22.874,11,24.5,11c3.033,0,5.5,2.467,5.5,5.5
			C30,17.502,29.718,18.433,29.246,19.241z M39.5,15h-3c-0.828,0-1.5,0.672-1.5,1.5s0.672,1.5,1.5,1.5h3c0.828,0,1.5-0.672,1.5-1.5
			S40.328,15,39.5,15z M20.5,33H18v-4.5c0-0.276-0.224-0.5-0.5-0.5c-0.187,0-0.349,0.102-0.435,0.252l-4,7
			C13.023,35.325,13,35.41,13,35.5c0,0.276,0.224,0.5,0.5,0.5H16v4.5c0,0.276,0.224,0.5,0.5,0.5c0.186,0,0.349-0.102,0.435-0.252
			l4-7C20.977,33.675,21,33.59,21,33.5C21,33.224,20.776,33,20.5,33z"/>
	</g>
</g>
<g>
</g>
<g>
</g>
<g>
</g>
<g>
</g>
<g>
</g>
<g>
</g>
<g>
</g>
<g>
</g>
<g>
</g>
<g>
</g>
<g>
</g>
<g>
</g>
<g>
</g>
<g>
</g>
<g>
</g>
</svg>
