<?xml version="1.0" encoding="iso-8859-1"?>
<!-- Generator: Adobe Illustrator 18.0.0, SVG Export Plug-In . SVG Version: 6.00 Build 0)  -->
<!DOCTYPE svg PUBLIC "-//W3C//DTD SVG 1.1//EN" "http://www.w3.org/Graphics/SVG/1.1/DTD/svg11.dtd">
<svg version="1.1" id="Capa_1" xmlns="http://www.w3.org/2000/svg" xmlns:xlink="http://www.w3.org/1999/xlink" x="0px" y="0px"
	 viewBox="0 0 23 32" style="enable-background:new 0 0 23 32;" xml:space="preserve">
<g id="Sandglass">
	<g>
		<path style="fill-rule:evenodd;clip-rule:evenodd;" d="M21.5,29H21v-4c0-1.023-0.385-1.958-1.018-2.666l-4.474-5.001
			C15.192,16.979,15,16.512,15,16s0.192-0.979,0.509-1.333l4.474-5.002C20.615,8.958,21,8.024,21,7V3h0.5C22.328,3,23,2.328,23,1.5
			S22.328,0,21.5,0h-20C0.672,0,0,0.672,0,1.5S0.672,3,1.5,3H2v4c0,1.024,0.385,1.958,1.018,2.666l4.474,5.002
			C7.808,15.021,8,15.488,8,16s-0.192,0.979-0.509,1.333l-4.474,5.001C2.385,23.042,2,23.977,2,25v4H1.5C0.672,29,0,29.672,0,30.5
			C0,31.328,0.672,32,1.5,32h20c0.828,0,1.5-0.672,1.5-1.5C23,29.672,22.328,29,21.5,29z M18,29H5v-4
			c0-0.316,0.138-0.537,0.253-0.666l4.475-5.002C10.548,18.414,11,17.231,11,16c0-1.231-0.452-2.415-1.273-3.333L5.254,7.666
			C5.138,7.536,5,7.315,5,7V3h13v4c0,0.315-0.138,0.536-0.254,0.666l-4.475,5.003C12.452,13.585,12,14.769,12,16
			c0,1.231,0.452,2.414,1.273,3.333l4.473,5C17.861,24.463,18,24.684,18,25V29z"/>
	</g>
</g>
<g>
</g>
<g>
</g>
<g>
</g>
<g>
</g>
<g>
</g>
<g>
</g>
<g>
</g>
<g>
</g>
<g>
</g>
<g>
</g>
<g>
</g>
<g>
</g>
<g>
</g>
<g>
</g>
<g>
</g>
</svg>
