<?xml version="1.0" encoding="iso-8859-1"?>
<!-- Generator: Adobe Illustrator 18.0.0, SVG Export Plug-In . SVG Version: 6.00 Build 0)  -->
<!DOCTYPE svg PUBLIC "-//W3C//DTD SVG 1.1//EN" "http://www.w3.org/Graphics/SVG/1.1/DTD/svg11.dtd">
<svg version="1.1" id="Capa_1" xmlns="http://www.w3.org/2000/svg" xmlns:xlink="http://www.w3.org/1999/xlink" x="0px" y="0px"
	 viewBox="0 0 32 32" style="enable-background:new 0 0 32 32;" xml:space="preserve">
<g id="Calendar">
	<g>
		<path style="fill-rule:evenodd;clip-rule:evenodd;" d="M30,4h-4V1.5C26,0.672,25.328,0,24.5,0C23.672,0,23,0.672,23,1.5V4H9V1.5
			C9,0.672,8.328,0,7.5,0C6.672,0,6,0.672,6,1.5V4H2C0.896,4,0,4.895,0,6v24c0,1.105,0.896,2,2,2h28c1.104,0,2-0.895,2-2V6
			C32,4.895,31.104,4,30,4z M29,29H3V13h26V29z M29,10H3V7h26V10z"/>
	</g>
</g>
<g>
</g>
<g>
</g>
<g>
</g>
<g>
</g>
<g>
</g>
<g>
</g>
<g>
</g>
<g>
</g>
<g>
</g>
<g>
</g>
<g>
</g>
<g>
</g>
<g>
</g>
<g>
</g>
<g>
</g>
</svg>
