<?xml version="1.0" encoding="iso-8859-1"?>
<!-- Generator: Adobe Illustrator 18.0.0, SVG Export Plug-In . SVG Version: 6.00 Build 0)  -->
<!DOCTYPE svg PUBLIC "-//W3C//DTD SVG 1.1//EN" "http://www.w3.org/Graphics/SVG/1.1/DTD/svg11.dtd">
<svg version="1.1" id="Capa_1" xmlns="http://www.w3.org/2000/svg" xmlns:xlink="http://www.w3.org/1999/xlink" x="0px" y="0px"
	 viewBox="0 0 33 28" style="enable-background:new 0 0 33 28;" xml:space="preserve">
<g id="EQ">
	<g>
		<path style="fill-rule:evenodd;clip-rule:evenodd;" d="M7,4.213V1.5C7,0.671,6.329,0,5.5,0C4.671,0,4,0.671,4,1.5v2.713
			C1.695,4.868,0,6.988,0,9.5c0,2.512,1.695,4.632,4,5.287V26.5C4,27.328,4.671,28,5.5,28C6.329,28,7,27.328,7,26.5V14.787
			c2.305-0.655,4-2.774,4-5.287C11,6.988,9.305,4.868,7,4.213z M5.5,12C4.122,12,3,10.878,3,9.5C3,8.122,4.122,7,5.5,7
			C6.878,7,8,8.122,8,9.5C8,10.878,6.878,12,5.5,12z M18,13.213V1.5C18,0.671,17.329,0,16.5,0C15.671,0,15,0.671,15,1.5v11.713
			c-2.305,0.655-4,2.775-4,5.287c0,2.512,1.695,4.632,4,5.287V26.5c0,0.828,0.671,1.5,1.5,1.5c0.829,0,1.5-0.672,1.5-1.5v-2.713
			c2.305-0.655,4-2.775,4-5.287C22,15.988,20.305,13.868,18,13.213z M16.5,21c-1.378,0-2.5-1.121-2.5-2.5s1.122-2.5,2.5-2.5
			s2.5,1.121,2.5,2.5S17.878,21,16.5,21z M29,4.213V1.5C29,0.671,28.329,0,27.5,0S26,0.671,26,1.5v2.713
			c-2.305,0.655-4,2.774-4,5.287c0,2.512,1.695,4.632,4,5.287V26.5c0,0.828,0.671,1.5,1.5,1.5s1.5-0.672,1.5-1.5V14.787
			c2.305-0.655,4-2.774,4-5.287C33,6.988,31.305,4.868,29,4.213z M27.5,12c-1.378,0-2.5-1.122-2.5-2.5C25,8.122,26.122,7,27.5,7
			C28.878,7,30,8.122,30,9.5C30,10.878,28.878,12,27.5,12z"/>
	</g>
</g>
<g>
</g>
<g>
</g>
<g>
</g>
<g>
</g>
<g>
</g>
<g>
</g>
<g>
</g>
<g>
</g>
<g>
</g>
<g>
</g>
<g>
</g>
<g>
</g>
<g>
</g>
<g>
</g>
<g>
</g>
</svg>
