<?xml version="1.0" encoding="iso-8859-1"?>
<!-- Generator: Adobe Illustrator 18.0.0, SVG Export Plug-In . SVG Version: 6.00 Build 0)  -->
<!DOCTYPE svg PUBLIC "-//W3C//DTD SVG 1.1//EN" "http://www.w3.org/Graphics/SVG/1.1/DTD/svg11.dtd">
<svg version="1.1" id="Capa_1" xmlns="http://www.w3.org/2000/svg" xmlns:xlink="http://www.w3.org/1999/xlink" x="0px" y="0px"
	 viewBox="0 0 32.003 32" style="enable-background:new 0 0 32.003 32;" xml:space="preserve">
<g id="Star">
	<g>
		<path style="fill-rule:evenodd;clip-rule:evenodd;" d="M31.948,12.482c-0.136-0.449-0.507-0.787-0.965-0.881l-9.883-1.979
			l-3.941-8.871C16.956,0.295,16.5,0,16,0c-0.5,0-0.955,0.297-1.16,0.754l-3.939,8.869l-9.886,1.979
			c-0.457,0.094-0.824,0.43-0.96,0.879c-0.137,0.443-0.014,0.928,0.318,1.264l6.885,6.88l-1.924,9.852
			c-0.096,0.481,0.028,0.947,0.4,1.246c0.222,0.175,0.507,0.271,0.803,0.271c0.178,0,0.352-0.037,0.51-0.109L16,27.913l8.968,3.977
			C25.12,31.963,25.289,32,25.472,32c0.285,0,0.565-0.097,0.786-0.273c0.374-0.297,0.5-0.777,0.409-1.25l-1.929-9.854l6.891-6.88
			C31.961,13.412,32.084,12.928,31.948,12.482z M22.619,18.501c-0.707,0.706-1.017,1.718-0.824,2.699l1.285,6.57l-5.863-2.6
			c-0.387-0.172-0.802-0.258-1.217-0.258c-0.414,0-0.828,0.086-1.216,0.258l-5.866,2.602l1.285-6.573
			c0.191-0.98-0.117-1.991-0.824-2.697l-4.598-4.595l6.707-1.342c0.955-0.191,1.758-0.834,2.153-1.724L16,5.532l2.359,5.31
			c0.395,0.89,1.197,1.532,2.152,1.724l6.709,1.343L22.619,18.501z"/>
	</g>
</g>
<g>
</g>
<g>
</g>
<g>
</g>
<g>
</g>
<g>
</g>
<g>
</g>
<g>
</g>
<g>
</g>
<g>
</g>
<g>
</g>
<g>
</g>
<g>
</g>
<g>
</g>
<g>
</g>
<g>
</g>
</svg>
