<?xml version="1.0" encoding="iso-8859-1"?>
<!-- Generator: Adobe Illustrator 18.0.0, SVG Export Plug-In . SVG Version: 6.00 Build 0)  -->
<!DOCTYPE svg PUBLIC "-//W3C//DTD SVG 1.1//EN" "http://www.w3.org/Graphics/SVG/1.1/DTD/svg11.dtd">
<svg version="1.1" id="Capa_1" xmlns="http://www.w3.org/2000/svg" xmlns:xlink="http://www.w3.org/1999/xlink" x="0px" y="0px"
	 viewBox="0 0 22 32" style="enable-background:new 0 0 22 32;" xml:space="preserve">
<g id="Lightning">
	<g>
		<path style="fill-rule:evenodd;clip-rule:evenodd;" d="M21.818,12.784C21.555,12.301,21.05,12,20.5,12H14V1.5
			c0-0.665-0.438-1.25-1.075-1.438c-0.635-0.189-1.323,0.066-1.685,0.624l-11,17c-0.299,0.461-0.32,1.049-0.059,1.531
			C0.446,19.7,0.952,20,1.5,20H8v10.5c0,0.665,0.438,1.25,1.075,1.439C9.216,31.981,9.36,32,9.5,32c0.5,0,0.979-0.25,1.26-0.685
			l11-17C22.058,13.854,22.08,13.266,21.818,12.784z M11,25.421V18.5c0-0.828-0.672-1.5-1.5-1.5H4.258L11,6.58V13.5
			c0,0.828,0.672,1.5,1.5,1.5h5.243L11,25.421z"/>
	</g>
</g>
<g>
</g>
<g>
</g>
<g>
</g>
<g>
</g>
<g>
</g>
<g>
</g>
<g>
</g>
<g>
</g>
<g>
</g>
<g>
</g>
<g>
</g>
<g>
</g>
<g>
</g>
<g>
</g>
<g>
</g>
</svg>
