<?xml version="1.0" encoding="iso-8859-1"?>
<!-- Generator: Adobe Illustrator 18.0.0, SVG Export Plug-In . SVG Version: 6.00 Build 0)  -->
<!DOCTYPE svg PUBLIC "-//W3C//DTD SVG 1.1//EN" "http://www.w3.org/Graphics/SVG/1.1/DTD/svg11.dtd">
<svg version="1.1" id="Capa_1" xmlns="http://www.w3.org/2000/svg" xmlns:xlink="http://www.w3.org/1999/xlink" x="0px" y="0px"
	 viewBox="0 0 28 32.013" style="enable-background:new 0 0 28 32.013;" xml:space="preserve">
<g id="Atom">
	<g>
		<path style="fill-rule:evenodd;clip-rule:evenodd;" d="M14,14.005c-1.104,0-2.001,0.896-2.001,2.001
			c0,1.104,0.896,2.001,2.001,2.001c1.105,0,2.001-0.897,2.001-2.001C16.001,14.901,15.105,14.005,14,14.005z M25.017,16.006
			c2.731-3.031,3.646-5.849,2.499-7.852C26.724,6.773,25.17,6.052,23,6.006c-0.985-0.02-2.098,0.097-3.323,0.355
			C18.41,2.301,16.382,0,14,0c-2.382,0-4.41,2.301-5.678,6.362C4.44,5.552,1.619,6.176,0.483,8.155
			c-1.146,2.004-0.23,4.82,2.5,7.852c-2.731,3.031-3.646,5.849-2.499,7.852c0.821,1.432,2.455,2.148,4.746,2.148
			c0.926,0,1.964-0.113,3.094-0.352c1.267,4.06,3.295,6.359,5.676,6.359c2.382,0,4.41-2.3,5.677-6.361
			c1.1,0.23,2.121,0.351,3.036,0.351c2.313,0,3.989-0.727,4.804-2.144C28.663,21.854,27.747,19.037,25.017,16.006z M14,3.001
			c0.702,0,2.183,1.497,3.165,5.515c0.121,0.496,0.212,1.026,0.308,1.55c-0.014-0.008-0.028-0.018-0.042-0.026
			c-0.895-0.521-1.832-1.015-2.786-1.469c-1.168-0.556-2.316-1.023-3.433-1.406C12.165,4.159,13.383,3.001,14,3.001z M3.089,22.367
			c-0.333-0.582,0.192-2.53,3.021-5.286c0.281-0.274,0.582-0.548,0.892-0.821c0.006,0.938,0.041,1.874,0.111,2.781
			c0.1,1.285,0.286,2.507,0.513,3.694C4.833,23.305,3.37,22.858,3.089,22.367z M7.741,11.862c-0.94,0.667-1.81,1.354-2.608,2.049
			c-1.97-2.212-2.335-3.758-2.046-4.264C3.412,9.08,5.293,8.568,8.971,9.603c0.493,0.139,1.001,0.307,1.515,0.489
			C9.567,10.63,8.646,11.223,7.741,11.862z M14,29.011c-0.702,0-2.183-1.497-3.165-5.515c-0.121-0.497-0.212-1.026-0.308-1.551
			c0.014,0.008,0.028,0.017,0.042,0.025c0.895,0.523,1.832,1.017,2.786,1.47c1.168,0.556,2.316,1.023,3.433,1.406
			C15.835,27.854,14.617,29.011,14,29.011z M15.921,19.378c-0.619,0.361-1.267,0.702-1.921,1.029
			c-0.654-0.327-1.301-0.668-1.921-1.03c-0.667-0.388-1.336-0.819-2.001-1.268c-0.04-0.694-0.08-1.392-0.08-2.103
			s0.04-1.407,0.08-2.102c0.665-0.45,1.334-0.881,2.001-1.27c0.619-0.36,1.267-0.701,1.921-1.029
			c0.654,0.328,1.302,0.669,1.921,1.029c0.667,0.389,1.336,0.82,2.001,1.27c0.04,0.695,0.08,1.392,0.08,2.103
			s-0.04,1.407-0.08,2.103C17.257,18.558,16.588,18.99,15.921,19.378z M24.913,22.367c-0.326,0.563-2.208,1.077-5.884,0.043
			c-0.493-0.139-1-0.307-1.514-0.489c0.917-0.537,1.84-1.13,2.743-1.769c0.94-0.668,1.81-1.354,2.609-2.05
			C24.836,20.314,25.202,21.86,24.913,22.367z M21.89,14.932c-0.281,0.274-0.582,0.548-0.892,0.821
			c-0.006-0.939-0.041-1.874-0.111-2.781c-0.1-1.285-0.286-2.508-0.513-3.695c2.792-0.57,4.254-0.122,4.537,0.369
			C25.244,10.228,24.719,12.177,21.89,14.932z"/>
	</g>
</g>
<g>
</g>
<g>
</g>
<g>
</g>
<g>
</g>
<g>
</g>
<g>
</g>
<g>
</g>
<g>
</g>
<g>
</g>
<g>
</g>
<g>
</g>
<g>
</g>
<g>
</g>
<g>
</g>
<g>
</g>
</svg>
