<?xml version="1.0" encoding="iso-8859-1"?>
<!-- Generator: Adobe Illustrator 18.0.0, SVG Export Plug-In . SVG Version: 6.00 Build 0)  -->
<!DOCTYPE svg PUBLIC "-//W3C//DTD SVG 1.1//EN" "http://www.w3.org/Graphics/SVG/1.1/DTD/svg11.dtd">
<svg version="1.1" id="Capa_1" xmlns="http://www.w3.org/2000/svg" xmlns:xlink="http://www.w3.org/1999/xlink" x="0px" y="0px"
	 viewBox="0 0 31 31" style="enable-background:new 0 0 31 31;" xml:space="preserve">
<g id="Current">
	<g>
		<path style="fill-rule:evenodd;clip-rule:evenodd;" d="M15.5,0C6.94,0,0,6.94,0,15.5C0,24.06,6.94,31,15.5,31
			C24.06,31,31,24.06,31,15.5C31,6.94,24.06,0,15.5,0z M17,27.901V24.5c0-0.828-0.671-1.5-1.5-1.5S14,23.672,14,24.5v3.401
			C8.306,27.216,3.784,22.693,3.099,17H6.5C7.329,17,8,16.328,8,15.5C8,14.672,7.329,14,6.5,14H3.099
			C3.784,8.307,8.306,3.784,14,3.099V6.5C14,7.328,14.671,8,15.5,8S17,7.328,17,6.5V3.099C22.694,3.784,27.216,8.307,27.901,14H24.5
			c-0.829,0-1.5,0.672-1.5,1.5c0,0.828,0.671,1.5,1.5,1.5h3.401C27.216,22.693,22.694,27.216,17,27.901z"/>
	</g>
</g>
<g>
</g>
<g>
</g>
<g>
</g>
<g>
</g>
<g>
</g>
<g>
</g>
<g>
</g>
<g>
</g>
<g>
</g>
<g>
</g>
<g>
</g>
<g>
</g>
<g>
</g>
<g>
</g>
<g>
</g>
</svg>
