<?xml version="1.0" encoding="iso-8859-1"?>
<!-- Generator: Adobe Illustrator 18.0.0, SVG Export Plug-In . SVG Version: 6.00 Build 0)  -->
<!DOCTYPE svg PUBLIC "-//W3C//DTD SVG 1.1//EN" "http://www.w3.org/Graphics/SVG/1.1/DTD/svg11.dtd">
<svg version="1.1" id="Capa_1" xmlns="http://www.w3.org/2000/svg" xmlns:xlink="http://www.w3.org/1999/xlink" x="0px" y="0px"
	 viewBox="0 0 28 32" style="enable-background:new 0 0 28 32;" xml:space="preserve">
<g id="Joystick">
	<g>
		<path style="fill-rule:evenodd;clip-rule:evenodd;" d="M26,24h-3v-2c0-1.656-1.343-3-3-3h-4v-7.35c2.327-0.826,4-3.044,4-5.65
			c0-3.309-2.691-6-6-6S8,2.691,8,6c0,2.606,1.673,4.824,4,5.65V19H8c-1.657,0-3,1.344-3,3v2H2c-1.104,0-2,0.896-2,2v4
			c0,1.105,0.896,2,2,2h24c1.104,0,2-0.895,2-2v-4C28,24.895,27.104,24,26,24z M11,6c0-1.654,1.346-3,3-3c1.654,0,3,1.346,3,3
			s-1.346,3-3,3C12.346,9,11,7.654,11,6z M8,22h12v2H8V22z M25,29H3v-2h22V29z"/>
	</g>
</g>
<g>
</g>
<g>
</g>
<g>
</g>
<g>
</g>
<g>
</g>
<g>
</g>
<g>
</g>
<g>
</g>
<g>
</g>
<g>
</g>
<g>
</g>
<g>
</g>
<g>
</g>
<g>
</g>
<g>
</g>
</svg>
