<?xml version="1.0" encoding="iso-8859-1"?>
<!-- Generator: Adobe Illustrator 18.0.0, SVG Export Plug-In . SVG Version: 6.00 Build 0)  -->
<!DOCTYPE svg PUBLIC "-//W3C//DTD SVG 1.1//EN" "http://www.w3.org/Graphics/SVG/1.1/DTD/svg11.dtd">
<svg version="1.1" id="Capa_1" xmlns="http://www.w3.org/2000/svg" xmlns:xlink="http://www.w3.org/1999/xlink" x="0px" y="0px"
	 viewBox="0 0 31 31" style="enable-background:new 0 0 31 31;" xml:space="preserve">
<g id="Globus">
	<g>
		<path style="fill-rule:evenodd;clip-rule:evenodd;" d="M15.5,0C6.953,0,0,6.953,0,15.5C0,24.047,6.953,31,15.5,31
			C24.047,31,31,24.047,31,15.5C31,6.953,24.047,0,15.5,0z M3.508,19C3.183,17.888,3,16.716,3,15.5c0-1.216,0.183-2.388,0.508-3.5
			h3.708C7.079,13.123,7,14.291,7,15.5c0,1.209,0.079,2.377,0.216,3.5H3.508z M4.843,22h2.922c0.408,1.649,0.964,3.14,1.646,4.407
			C7.535,25.356,5.964,23.831,4.843,22z M7.765,9H4.843c1.121-1.831,2.692-3.356,4.568-4.407C8.729,5.86,8.173,7.351,7.765,9z
			 M14,27.456c-1.237-0.883-2.399-2.81-3.149-5.456H14V27.456z M14,19h-3.764C10.088,17.903,10,16.736,10,15.5
			c0-1.236,0.088-2.403,0.236-3.5H14V19z M14,9h-3.149C11.601,6.354,12.763,4.427,14,3.544V9z M26.157,9h-2.922
			c-0.408-1.649-0.964-3.14-1.646-4.407C23.465,5.645,25.036,7.169,26.157,9z M17,3.544c1.237,0.883,2.399,2.81,3.149,5.456H17
			V3.544z M17,27.456V22h3.149C19.399,24.646,18.237,26.573,17,27.456z M20.764,19H17v-7h3.764C20.912,13.097,21,14.264,21,15.5
			C21,16.736,20.912,17.903,20.764,19z M21.588,26.407c0.683-1.268,1.238-2.758,1.646-4.407h2.922
			C25.036,23.831,23.465,25.356,21.588,26.407z M23.784,19C23.921,17.877,24,16.709,24,15.5c0-1.21-0.079-2.377-0.216-3.5h3.708
			C27.817,13.112,28,14.284,28,15.5c0,1.216-0.183,2.388-0.508,3.5H23.784z"/>
	</g>
</g>
<g>
</g>
<g>
</g>
<g>
</g>
<g>
</g>
<g>
</g>
<g>
</g>
<g>
</g>
<g>
</g>
<g>
</g>
<g>
</g>
<g>
</g>
<g>
</g>
<g>
</g>
<g>
</g>
<g>
</g>
</svg>
