<?xml version="1.0" encoding="iso-8859-1"?>
<!-- Generator: Adobe Illustrator 18.0.0, SVG Export Plug-In . SVG Version: 6.00 Build 0)  -->
<!DOCTYPE svg PUBLIC "-//W3C//DTD SVG 1.1//EN" "http://www.w3.org/Graphics/SVG/1.1/DTD/svg11.dtd">
<svg version="1.1" id="Capa_1" xmlns="http://www.w3.org/2000/svg" xmlns:xlink="http://www.w3.org/1999/xlink" x="0px" y="0px"
	 viewBox="0 0 31.962 32.005" style="enable-background:new 0 0 31.962 32.005;" xml:space="preserve">
<g id="Acorn">
	<g>
		<path style="fill-rule:evenodd;clip-rule:evenodd;" d="M27.368,7.263c1.76-1.333,3.047-3.245,3.55-5.425
			c0.186-0.809-0.317-1.613-1.125-1.799c-0.808-0.189-1.612,0.316-1.799,1.123c-0.373,1.617-1.37,3.026-2.733,3.943
			c-3.517-3.202-7.664-5.106-11.289-5.106c-2.216,0-4.101,0.714-5.451,2.065C7.416,3.169,6.728,4.68,6.529,6.435L6.488,6.799
			c-6.312,6.406-8.213,15.03-4.843,20.434c-0.843,1.055-0.929,2.433-0.141,3.221c0.783,0.783,2.148,0.703,3.201-0.125
			c1.745,1.104,3.843,1.677,6.168,1.677c0.898,0,1.829-0.085,2.786-0.257c4.056-0.728,8.131-2.959,11.501-6.28l0.36-0.041
			c1.756-0.198,3.268-0.887,4.371-1.991C33.457,19.87,32.292,13.012,27.368,7.263z M23.175,23.219
			c-2.965,2.965-6.532,4.944-10.046,5.575c-3.315,0.596-6.161-0.098-8.015-1.952C1.134,22.862,2.76,14.76,8.739,8.78
			c0.049-0.049,0.1-0.093,0.148-0.141c2.799,1.37,5.704,3.493,8.319,6.108c2.617,2.616,4.741,5.521,6.11,8.321
			C23.269,23.118,23.224,23.17,23.175,23.219z M27.771,21.314c-0.408,0.408-0.92,0.712-1.526,0.908
			c-1.508-3.243-3.928-6.608-6.916-9.596C16.342,9.64,12.977,7.22,9.733,5.713c0.196-0.607,0.5-1.118,0.908-1.526
			c0.98-0.979,2.352-1.185,3.33-1.185c3.086,0,6.916,1.912,9.995,4.99C28.608,12.632,30.351,18.734,27.771,21.314z"/>
	</g>
</g>
<g>
</g>
<g>
</g>
<g>
</g>
<g>
</g>
<g>
</g>
<g>
</g>
<g>
</g>
<g>
</g>
<g>
</g>
<g>
</g>
<g>
</g>
<g>
</g>
<g>
</g>
<g>
</g>
<g>
</g>
</svg>
