<?xml version="1.0" encoding="iso-8859-1"?>
<!-- Generator: Adobe Illustrator 18.0.0, SVG Export Plug-In . SVG Version: 6.00 Build 0)  -->
<!DOCTYPE svg PUBLIC "-//W3C//DTD SVG 1.1//EN" "http://www.w3.org/Graphics/SVG/1.1/DTD/svg11.dtd">
<svg version="1.1" id="Capa_1" xmlns="http://www.w3.org/2000/svg" xmlns:xlink="http://www.w3.org/1999/xlink" x="0px" y="0px"
	 viewBox="0 0 34 32" style="enable-background:new 0 0 34 32;" xml:space="preserve">
<g id="Headphones">
	<g>
		<path style="fill-rule:evenodd;clip-rule:evenodd;" d="M31.304,19.487C31.752,18.069,32,16.565,32,15c0-8.271-6.729-15-15-15
			C8.728,0,2,6.729,2,15c0,1.565,0.248,3.069,0.696,4.487C1.058,20.769,0,22.759,0,25c0,3.866,3.134,7,7,7h1c1.104,0,2-0.896,2-2V20
			c0-1.104-0.896-2-2-2H7c-0.536,0-1.056,0.065-1.558,0.18C5.162,17.165,5,16.103,5,15C5,8.383,10.383,3,17,3
			c6.617,0,12,5.383,12,12c0,1.103-0.162,2.165-0.442,3.18C28.056,18.065,27.536,18,27,18h-1c-1.104,0-2,0.896-2,2v10
			c0,1.104,0.896,2,2,2h1c3.866,0,7-3.134,7-7C34,22.759,32.942,20.769,31.304,19.487z M7,21v8c-2.206,0-4-1.794-4-4S4.794,21,7,21z
			 M27,29v-8c2.206,0,4,1.794,4,4S29.206,29,27,29z"/>
	</g>
</g>
<g>
</g>
<g>
</g>
<g>
</g>
<g>
</g>
<g>
</g>
<g>
</g>
<g>
</g>
<g>
</g>
<g>
</g>
<g>
</g>
<g>
</g>
<g>
</g>
<g>
</g>
<g>
</g>
<g>
</g>
</svg>
