<?xml version="1.0" encoding="iso-8859-1"?>
<!-- Generator: Adobe Illustrator 18.0.0, SVG Export Plug-In . SVG Version: 6.00 Build 0)  -->
<!DOCTYPE svg PUBLIC "-//W3C//DTD SVG 1.1//EN" "http://www.w3.org/Graphics/SVG/1.1/DTD/svg11.dtd">
<svg version="1.1" id="Capa_1" xmlns="http://www.w3.org/2000/svg" xmlns:xlink="http://www.w3.org/1999/xlink" x="0px" y="0px"
	 viewBox="0 0 32 30" style="enable-background:new 0 0 32 30;" xml:space="preserve">
<g id="Heart">
	<g>
		<path style="fill-rule:evenodd;clip-rule:evenodd;" d="M23,0c-2.829,0-5.351,1.308-7,3.349C14.35,1.308,11.829,0,9,0
			C4.029,0,0,4.029,0,9c0,12,14,20,16,21c2-1,16-9,16-21C32,4.029,27.971,0,23,0z M16,26.55C12.435,24.392,3,17.839,3,9
			c0-3.309,2.691-6,6-6c1.818,0,3.52,0.814,4.667,2.234C14.236,5.94,15.094,6.349,16,6.349s1.764-0.409,2.333-1.114
			C19.48,3.815,21.182,3,23,3c3.309,0,6,2.691,6,6C29,17.839,19.565,24.392,16,26.55z"/>
	</g>
</g>
<g>
</g>
<g>
</g>
<g>
</g>
<g>
</g>
<g>
</g>
<g>
</g>
<g>
</g>
<g>
</g>
<g>
</g>
<g>
</g>
<g>
</g>
<g>
</g>
<g>
</g>
<g>
</g>
<g>
</g>
</svg>
