<?xml version="1.0" encoding="iso-8859-1"?>
<!-- Generator: Adobe Illustrator 18.0.0, SVG Export Plug-In . SVG Version: 6.00 Build 0)  -->
<!DOCTYPE svg PUBLIC "-//W3C//DTD SVG 1.1//EN" "http://www.w3.org/Graphics/SVG/1.1/DTD/svg11.dtd">
<svg version="1.1" id="Capa_1" xmlns="http://www.w3.org/2000/svg" xmlns:xlink="http://www.w3.org/1999/xlink" x="0px" y="0px"
	 viewBox="0 0 32 32" style="enable-background:new 0 0 32 32;" xml:space="preserve">
<g id="Settings_x5F_Alt">
	<g>
		<path style="fill-rule:evenodd;clip-rule:evenodd;" d="M30,14h-1.17c-0.324-2.095-1.144-4.021-2.343-5.66l0.926-0.926
			C27.805,7.023,28,6.512,28,6c0-0.512-0.195-1.023-0.587-1.414C27.023,4.195,26.511,4,25.999,4s-1.023,0.195-1.414,0.586
			l-0.926,0.926C22.021,4.313,20.095,3.494,18,3.17V2c0-1.104-0.895-2-2-2c-1.104,0-2,0.896-2,2v1.17
			c-2.095,0.324-4.021,1.145-5.66,2.343L7.413,4.586C7.023,4.194,6.511,3.999,5.998,3.999c-0.511,0-1.022,0.195-1.413,0.587
			C4.194,4.977,3.999,5.488,3.999,6c0,0.512,0.195,1.023,0.586,1.414l0.927,0.928C4.313,9.979,3.494,11.905,3.17,14H2
			c-1.104,0-2,0.896-2,2c0,1.104,0.896,2,2,2h1.17c0.324,2.095,1.144,4.021,2.343,5.66l-0.927,0.926
			C4.194,24.977,3.999,25.49,4,26.004c0.001,0.512,0.196,1.022,0.586,1.41C4.977,27.806,5.489,28,6,28
			c0.513,0,1.024-0.195,1.414-0.586l0.927-0.926C9.98,27.687,11.905,28.506,14,28.83V30c0,1.105,0.895,2,2,2c1.105,0,2-0.895,2-2
			v-1.17c2.095-0.324,4.021-1.144,5.659-2.343l0.926,0.926c0.392,0.392,0.904,0.587,1.417,0.586
			c0.512-0.001,1.022-0.196,1.411-0.586c0.392-0.391,0.586-0.903,0.586-1.414c0-0.513-0.195-1.024-0.586-1.414l-0.926-0.925
			c1.199-1.639,2.019-3.565,2.343-5.66H30c1.104,0,2-0.896,2-2C32,14.896,31.105,14,30,14z M16,26c-5.514,0-10-4.486-10-10
			c0-5.514,4.486-10,10-10s10,4.486,10,10C26,21.514,21.514,26,16,26z M16,10c-3.313,0-6,2.686-6,6s2.686,6,6,6c3.314,0,6-2.686,6-6
			S19.314,10,16,10z M16,19c-1.654,0-3-1.346-3-3s1.346-3,3-3c1.654,0,3,1.346,3,3S17.654,19,16,19z"/>
	</g>
</g>
<g>
</g>
<g>
</g>
<g>
</g>
<g>
</g>
<g>
</g>
<g>
</g>
<g>
</g>
<g>
</g>
<g>
</g>
<g>
</g>
<g>
</g>
<g>
</g>
<g>
</g>
<g>
</g>
<g>
</g>
</svg>
