<?xml version="1.0" encoding="iso-8859-1"?>
<!-- Generator: Adobe Illustrator 18.0.0, SVG Export Plug-In . SVG Version: 6.00 Build 0)  -->
<!DOCTYPE svg PUBLIC "-//W3C//DTD SVG 1.1//EN" "http://www.w3.org/Graphics/SVG/1.1/DTD/svg11.dtd">
<svg version="1.1" id="Capa_1" xmlns="http://www.w3.org/2000/svg" xmlns:xlink="http://www.w3.org/1999/xlink" x="0px" y="0px"
	 viewBox="0 0 26 31.982" style="enable-background:new 0 0 26 31.982;" xml:space="preserve">
<g id="Home">
	<g>
		<path style="fill-rule:evenodd;clip-rule:evenodd;" d="M25.414,11.896l-11.53-11.53c-0.488-0.488-1.279-0.488-1.768,0
			l-11.53,11.53C0.211,12.272,0,12.78,0,13.311v16.671c0,1.105,0.896,2,2,2h7c1.104,0,2-0.896,2-2v-7h4v7c0,1.105,0.895,2,2,2h7
			c1.104,0,2-0.896,2-2V13.311C26,12.78,25.789,12.272,25.414,11.896z M23,28.982h-5v-7c0-1.104-0.896-2-2-2h-6
			c-1.105,0-2,0.896-2,2v7H3V13.725l10-10l10,10V28.982z"/>
	</g>
</g>
<g>
</g>
<g>
</g>
<g>
</g>
<g>
</g>
<g>
</g>
<g>
</g>
<g>
</g>
<g>
</g>
<g>
</g>
<g>
</g>
<g>
</g>
<g>
</g>
<g>
</g>
<g>
</g>
<g>
</g>
</svg>
