<?xml version="1.0" encoding="iso-8859-1"?>
<!-- Generator: Adobe Illustrator 18.0.0, SVG Export Plug-In . SVG Version: 6.00 Build 0)  -->
<!DOCTYPE svg PUBLIC "-//W3C//DTD SVG 1.1//EN" "http://www.w3.org/Graphics/SVG/1.1/DTD/svg11.dtd">
<svg version="1.1" id="Capa_1" xmlns="http://www.w3.org/2000/svg" xmlns:xlink="http://www.w3.org/1999/xlink" x="0px" y="0px"
	 viewBox="0 0 32 32" style="enable-background:new 0 0 32 32;" xml:space="preserve">
<g id="Info">
	<g>
		<path style="fill-rule:evenodd;clip-rule:evenodd;" d="M16,8c-1.104,0-2,0.896-2,2c0,1.104,0.896,2,2,2s2-0.895,2-2
			C18,8.895,17.105,8,16,8z M16,14c-1.104,0-2,0.895-2,2v6c0,1.104,0.896,2,2,2s2-0.896,2-2v-6C18,14.896,17.105,14,16,14z M16,0
			C7.178,0,0,7.178,0,16s7.178,16,16,16c8.822,0,16-7.178,16-16S24.822,0,16,0z M16,29C8.831,29,3,23.168,3,16S8.831,3,16,3
			c7.168,0,13,5.832,13,13S23.168,29,16,29z"/>
	</g>
</g>
<g>
</g>
<g>
</g>
<g>
</g>
<g>
</g>
<g>
</g>
<g>
</g>
<g>
</g>
<g>
</g>
<g>
</g>
<g>
</g>
<g>
</g>
<g>
</g>
<g>
</g>
<g>
</g>
<g>
</g>
</svg>
