<?xml version="1.0" encoding="iso-8859-1"?>
<!-- Generator: Adobe Illustrator 18.0.0, SVG Export Plug-In . SVG Version: 6.00 Build 0)  -->
<!DOCTYPE svg PUBLIC "-//W3C//DTD SVG 1.1//EN" "http://www.w3.org/Graphics/SVG/1.1/DTD/svg11.dtd">
<svg version="1.1" id="Capa_1" xmlns="http://www.w3.org/2000/svg" xmlns:xlink="http://www.w3.org/1999/xlink" x="0px" y="0px"
	 viewBox="0 0 32 32" style="enable-background:new 0 0 32 32;" xml:space="preserve">
<g id="Leaf">
	<g>
		<path style="fill-rule:evenodd;clip-rule:evenodd;" d="M18,0C8.06,0,0,7.164,0,16c0,4.059,1.862,7.682,4.776,10.065
			c-0.363,1.398-0.624,2.829-0.769,4.286c-0.082,0.824,0.519,1.559,1.344,1.641C5.402,31.998,5.452,32,5.502,32
			c0.762,0,1.414-0.578,1.49-1.352c0.098-0.981,0.258-1.949,0.467-2.901C9.142,28.542,11.016,29,13,29c7.18,0,13-5.82,13-13
			c0-4.346,2.442-8.045,6-10C28.699,2.391,23.64,0,18,0z M23,16c0,5.514-4.486,10-10,10c-1.7,0-3.301-0.429-4.704-1.181
			c1.695-4.826,4.837-9.07,9.076-12.099c0.337-0.24,0.544-0.596,0.607-0.975c0.064-0.378-0.019-0.781-0.259-1.117
			c-0.241-0.338-0.596-0.546-0.975-0.608c-0.379-0.063-0.781,0.019-1.118,0.259c-4.479,3.2-7.868,7.61-9.832,12.639
			C4.068,21.12,3,18.685,3,16C3,8.832,9.728,3,18,3c3.389,0,6.627,1.007,9.266,2.83C24.572,8.504,23,12.147,23,16z"/>
	</g>
</g>
<g>
</g>
<g>
</g>
<g>
</g>
<g>
</g>
<g>
</g>
<g>
</g>
<g>
</g>
<g>
</g>
<g>
</g>
<g>
</g>
<g>
</g>
<g>
</g>
<g>
</g>
<g>
</g>
<g>
</g>
</svg>
