<?xml version="1.0" encoding="iso-8859-1"?>
<!-- Generator: Adobe Illustrator 18.0.0, SVG Export Plug-In . SVG Version: 6.00 Build 0)  -->
<!DOCTYPE svg PUBLIC "-//W3C//DTD SVG 1.1//EN" "http://www.w3.org/Graphics/SVG/1.1/DTD/svg11.dtd">
<svg version="1.1" id="Capa_1" xmlns="http://www.w3.org/2000/svg" xmlns:xlink="http://www.w3.org/1999/xlink" x="0px" y="0px"
	 viewBox="0 0 32 32" style="enable-background:new 0 0 32 32;" xml:space="preserve">
<g id="Link">
	<g>
		<path style="fill-rule:evenodd;clip-rule:evenodd;" d="M18.31,11.266c-0.35-0.225-0.758-0.286-1.135-0.202
			c-0.373,0.083-0.715,0.308-0.938,0.655c-0.224,0.349-0.285,0.755-0.202,1.13c0.082,0.375,0.307,0.719,0.655,0.942
			C18.137,14.718,19,16.292,19,18c0,1.336-0.52,2.591-1.464,3.535l-6,6C10.591,28.48,9.335,29,8,29c-2.757,0-5-2.243-5-5
			c0-1.336,0.52-2.591,1.464-3.535l2.846-2.847c0.3-0.3,0.446-0.695,0.44-1.088c-0.007-0.375-0.153-0.747-0.44-1.033
			c-0.293-0.293-0.677-0.44-1.06-0.44c-0.384,0-0.768,0.146-1.06,0.44l-2.846,2.847C0.832,19.854,0,21.863,0,24c0,4.411,3.589,8,8,8
			c2.137,0,4.146-0.832,5.657-2.344l6-6C21.168,22.147,22,20.137,22,18C22,15.265,20.621,12.748,18.31,11.266z M24,0
			c-2.137,0-4.146,0.832-5.657,2.344l-6,6C10.832,9.853,10,11.863,10,13.999c0,2.735,1.379,5.253,3.69,6.735
			c0.35,0.224,0.758,0.285,1.135,0.201c0.373-0.082,0.715-0.307,0.938-0.654c0.224-0.35,0.285-0.756,0.202-1.131
			c-0.082-0.375-0.307-0.719-0.655-0.941c-1.446-0.928-2.31-2.502-2.31-4.21c0-1.336,0.52-2.591,1.464-3.535l6-6
			C21.409,3.52,22.665,3,24,3c2.757,0,5,2.243,5,4.999c0,1.336-0.52,2.591-1.464,3.535l-2.846,2.846
			c-0.3,0.3-0.446,0.695-0.44,1.088c0.007,0.375,0.153,0.747,0.44,1.033c0.293,0.293,0.677,0.439,1.061,0.439
			c0.384,0,0.768-0.146,1.06-0.439l2.846-2.847C31.168,12.146,32,10.136,32,7.999C32,3.589,28.411,0,24,0z"/>
	</g>
</g>
<g>
</g>
<g>
</g>
<g>
</g>
<g>
</g>
<g>
</g>
<g>
</g>
<g>
</g>
<g>
</g>
<g>
</g>
<g>
</g>
<g>
</g>
<g>
</g>
<g>
</g>
<g>
</g>
<g>
</g>
</svg>
