<?xml version="1.0" encoding="iso-8859-1"?>
<!-- Generator: Adobe Illustrator 18.0.0, SVG Export Plug-In . SVG Version: 6.00 Build 0)  -->
<!DOCTYPE svg PUBLIC "-//W3C//DTD SVG 1.1//EN" "http://www.w3.org/Graphics/SVG/1.1/DTD/svg11.dtd">
<svg version="1.1" id="Capa_1" xmlns="http://www.w3.org/2000/svg" xmlns:xlink="http://www.w3.org/1999/xlink" x="0px" y="0px"
	 viewBox="0 0 22 32" style="enable-background:new 0 0 22 32;" xml:space="preserve">
<g id="Drop">
	<g>
		<path style="fill-rule:evenodd;clip-rule:evenodd;" d="M20.693,15.796L12.763,1.054C12.425,0.427,11.762,0,11,0
			c-0.762,0-1.425,0.427-1.763,1.054L1.307,15.796C0.473,17.346,0,19.117,0,21c0,6.075,4.925,11,11,11c6.075,0,11-4.925,11-11
			C22,19.117,21.527,17.346,20.693,15.796z M11,29c-4.411,0-8-3.589-8-8c0-1.341,0.319-2.613,0.948-3.783L11,4.109l7.052,13.108
			C18.681,18.387,19,19.659,19,21C19,25.411,15.411,29,11,29z"/>
	</g>
</g>
<g>
</g>
<g>
</g>
<g>
</g>
<g>
</g>
<g>
</g>
<g>
</g>
<g>
</g>
<g>
</g>
<g>
</g>
<g>
</g>
<g>
</g>
<g>
</g>
<g>
</g>
<g>
</g>
<g>
</g>
</svg>
