<?xml version="1.0" encoding="iso-8859-1"?>
<!-- Generator: Adobe Illustrator 18.0.0, SVG Export Plug-In . SVG Version: 6.00 Build 0)  -->
<!DOCTYPE svg PUBLIC "-//W3C//DTD SVG 1.1//EN" "http://www.w3.org/Graphics/SVG/1.1/DTD/svg11.dtd">
<svg version="1.1" id="Capa_1" xmlns="http://www.w3.org/2000/svg" xmlns:xlink="http://www.w3.org/1999/xlink" x="0px" y="0px"
	 viewBox="0 0 26 32" style="enable-background:new 0 0 26 32;" xml:space="preserve">
<g id="Lock">
	<g>
		<path style="fill-rule:evenodd;clip-rule:evenodd;" d="M24,12h-3V8c0-4.418-3.582-8-8-8S5,3.581,5,8v4H2c-1.104,0-2,0.896-2,2v16
			c0,1.105,0.896,2,2,2h22c1.105,0,2-0.896,2-2V14C26,12.895,25.105,12,24,12z M8,8c0-2.757,2.243-5,5-5s5,2.243,5,5v4H8V8z M23,29
			H3V15h20V29z"/>
	</g>
</g>
<g>
</g>
<g>
</g>
<g>
</g>
<g>
</g>
<g>
</g>
<g>
</g>
<g>
</g>
<g>
</g>
<g>
</g>
<g>
</g>
<g>
</g>
<g>
</g>
<g>
</g>
<g>
</g>
<g>
</g>
</svg>
