<?xml version="1.0" encoding="iso-8859-1"?>
<!-- Generator: Adobe Illustrator 18.0.0, SVG Export Plug-In . SVG Version: 6.00 Build 0)  -->
<!DOCTYPE svg PUBLIC "-//W3C//DTD SVG 1.1//EN" "http://www.w3.org/Graphics/SVG/1.1/DTD/svg11.dtd">
<svg version="1.1" id="Capa_1" xmlns="http://www.w3.org/2000/svg" xmlns:xlink="http://www.w3.org/1999/xlink" x="0px" y="0px"
	 viewBox="0 0 32 32" style="enable-background:new 0 0 32 32;" xml:space="preserve">
<g id="Search">
	<g>
		<path style="fill-rule:evenodd;clip-rule:evenodd;" d="M20,0C13.373,0,8,5.373,8,12c0,2.773,0.949,5.318,2.529,7.35L0.44,29.439
			C0.147,29.732,0,30.115,0,30.5c0,0.384,0.147,0.768,0.44,1.061C0.732,31.854,1.116,32,1.5,32c0.384,0,0.768-0.146,1.06-0.439
			l10.09-10.09C14.682,23.051,17.227,24,20,24c6.627,0,12-5.373,12-12C32,5.373,26.627,0,20,0z M20,21c-4.963,0-9-4.037-9-9
			c0-4.963,4.037-9,9-9c4.963,0,9,4.037,9,9C29,16.963,24.963,21,20,21z"/>
	</g>
</g>
<g>
</g>
<g>
</g>
<g>
</g>
<g>
</g>
<g>
</g>
<g>
</g>
<g>
</g>
<g>
</g>
<g>
</g>
<g>
</g>
<g>
</g>
<g>
</g>
<g>
</g>
<g>
</g>
<g>
</g>
</svg>
