<?xml version="1.0" encoding="iso-8859-1"?>
<!-- Generator: Adobe Illustrator 18.0.0, SVG Export Plug-In . SVG Version: 6.00 Build 0)  -->
<!DOCTYPE svg PUBLIC "-//W3C//DTD SVG 1.1//EN" "http://www.w3.org/Graphics/SVG/1.1/DTD/svg11.dtd">
<svg version="1.1" id="Capa_1" xmlns="http://www.w3.org/2000/svg" xmlns:xlink="http://www.w3.org/1999/xlink" x="0px" y="0px"
	 viewBox="0 0 32 31.996" style="enable-background:new 0 0 32 31.996;" xml:space="preserve">
<g id="Magnet">
	<g>
		<path style="fill-rule:evenodd;clip-rule:evenodd;" d="M31.198,13.368l-3.983-2.986C26.859,10.118,26.429,9.999,26,10.01
			c-0.676,0.018-1.348,0.361-1.709,0.969l-4.975,8.527c-0.896,1.535-2.551,2.489-4.32,2.489c-2.756,0-4.998-2.243-4.998-5
			c0-1.772,0.955-3.43,2.494-4.326l8.528-4.965c0.612-0.358,0.992-1.02,0.992-1.727c0-0.431-0.143-0.857-0.398-1.198L18.64,0.807
			C18.259,0.289,17.639-0.008,17,0c-0.252,0.003-0.508,0.053-0.752,0.155L9.133,3.19C3.584,5.554,0,10.974,0,16.995
			c0,8.272,6.727,15,14.996,15c6.008,0,11.422-3.577,13.794-9.114l3.054-7.136C31.947,15.499,32,15.238,32,14.969
			C32,14.341,31.699,13.742,31.198,13.368z M16.701,3.223l1.838,2.455l-2.363,1.376l-2.527-2.528L16.701,3.223z M26.032,21.701
			c-1.898,4.432-6.23,7.295-11.036,7.295C8.381,28.996,3,23.613,3,16.995c0-4.817,2.869-9.153,7.309-11.046l0.365-0.156l2.82,2.821
			l-2.512,1.462c-2.457,1.431-3.984,4.083-3.984,6.918c0,4.412,3.588,8,7.998,8c2.833,0,5.481-1.524,6.912-3.978l1.469-2.518
			l2.818,2.819L26.032,21.701z M27.467,18.348l-2.412-2.414L24.62,16.37l1.697-2.91l2.455,1.839L27.467,18.348z"/>
	</g>
</g>
<g>
</g>
<g>
</g>
<g>
</g>
<g>
</g>
<g>
</g>
<g>
</g>
<g>
</g>
<g>
</g>
<g>
</g>
<g>
</g>
<g>
</g>
<g>
</g>
<g>
</g>
<g>
</g>
<g>
</g>
</svg>
