<?xml version="1.0" encoding="iso-8859-1"?>
<!-- Generator: Adobe Illustrator 18.0.0, SVG Export Plug-In . SVG Version: 6.00 Build 0)  -->
<!DOCTYPE svg PUBLIC "-//W3C//DTD SVG 1.1//EN" "http://www.w3.org/Graphics/SVG/1.1/DTD/svg11.dtd">
<svg version="1.1" id="Capa_1" xmlns="http://www.w3.org/2000/svg" xmlns:xlink="http://www.w3.org/1999/xlink" x="0px" y="0px"
	 viewBox="0 0 24 32" style="enable-background:new 0 0 24 32;" xml:space="preserve">
<g id="Bulb">
	<g>
		<path style="fill-rule:evenodd;clip-rule:evenodd;" d="M12,0C5.383,0,0,5.383,0,12c0,4.155,2.111,7.956,5.647,10.168
			C5.865,22.304,6,22.548,6,22.804V29c0,1.654,1.346,3,3,3h6c1.654,0,3-1.346,3-3v-6.196c0-0.256,0.136-0.5,0.354-0.637
			C21.89,19.956,24,16.155,24,12C24,5.383,18.617,0,12,0z M9,29v-2h6.001l0.001,2H9z M9,25v-2h6l0.001,2H9z M12,21
			c-4.971,0-9-4.029-9-9c0-4.971,4.029-9,9-9c4.971,0,9,4.029,9,9C21,16.971,16.971,21,12,21z"/>
	</g>
</g>
<g>
</g>
<g>
</g>
<g>
</g>
<g>
</g>
<g>
</g>
<g>
</g>
<g>
</g>
<g>
</g>
<g>
</g>
<g>
</g>
<g>
</g>
<g>
</g>
<g>
</g>
<g>
</g>
<g>
</g>
</svg>
