<?xml version="1.0" encoding="iso-8859-1"?>
<!-- Generator: Adobe Illustrator 18.0.0, SVG Export Plug-In . SVG Version: 6.00 Build 0)  -->
<!DOCTYPE svg PUBLIC "-//W3C//DTD SVG 1.1//EN" "http://www.w3.org/Graphics/SVG/1.1/DTD/svg11.dtd">
<svg version="1.1" id="Capa_1" xmlns="http://www.w3.org/2000/svg" xmlns:xlink="http://www.w3.org/1999/xlink" x="0px" y="0px"
	 viewBox="0 0 24 32" style="enable-background:new 0 0 24 32;" xml:space="preserve">
<g id="Pin_1_">
	<g>
		<path style="fill-rule:evenodd;clip-rule:evenodd;" d="M12,7c-2.762,0-5,2.238-5,5s2.238,5,5,5c2.762,0,5-2.238,5-5S14.762,7,12,7
			z M12,14c-1.103,0-2-0.898-2-2s0.897-2,2-2c1.103,0,2,0.897,2,2S13.103,14,12,14z M12,0C5.373,0,0,5.374,0,12
			c0,2.398,0.704,4.631,1.915,6.506l7.984,12.35C10.344,31.544,11.119,32,12,32c0.881,0,1.656-0.456,2.101-1.145l7.984-12.35
			C23.296,16.631,24,14.398,24,12C24,5.374,18.628,0,12,0z M19.565,16.877L12,28.58L4.435,16.878C3.496,15.425,3,13.738,3,12
			c0-4.963,4.038-9,9-9c4.962,0,9,4.037,9,9C21,13.738,20.504,15.425,19.565,16.877z"/>
	</g>
</g>
<g>
</g>
<g>
</g>
<g>
</g>
<g>
</g>
<g>
</g>
<g>
</g>
<g>
</g>
<g>
</g>
<g>
</g>
<g>
</g>
<g>
</g>
<g>
</g>
<g>
</g>
<g>
</g>
<g>
</g>
</svg>
