<?xml version="1.0" encoding="iso-8859-1"?>
<!-- Generator: Adobe Illustrator 18.0.0, SVG Export Plug-In . SVG Version: 6.00 Build 0)  -->
<!DOCTYPE svg PUBLIC "-//W3C//DTD SVG 1.1//EN" "http://www.w3.org/Graphics/SVG/1.1/DTD/svg11.dtd">
<svg version="1.1" id="Capa_1" xmlns="http://www.w3.org/2000/svg" xmlns:xlink="http://www.w3.org/1999/xlink" x="0px" y="0px"
	 viewBox="0 0 32 32" style="enable-background:new 0 0 32 32;" xml:space="preserve">
<g id="Medal">
	<g>
		<path style="fill-rule:evenodd;clip-rule:evenodd;" d="M31.726,6.627l-4.199-6C27.254,0.235,26.811,0.002,26.34,0H5.66
			C5.189,0.002,4.747,0.235,4.473,0.627l-4.199,6C-0.094,7.152-0.091,7.859,0.28,8.382l6.671,9.389C6.348,19.058,6,20.487,6,22
			c0,5.514,4.486,10,10,10s10-4.486,10-10c0-1.513-0.348-2.942-0.951-4.229l6.671-9.389C32.091,7.859,32.094,7.152,31.726,6.627z
			 M23.456,3l-2.131,3H10.676L8.545,3H23.456z M19.193,9l-2.169,3.052C16.687,12.018,16.346,12,16,12s-0.687,0.018-1.024,0.052
			L12.808,9H19.193z M8.724,15.162L3.275,7.493l2.399-3.429l6.259,8.809C10.714,13.418,9.627,14.201,8.724,15.162z M16,29
			c-3.86,0-7-3.141-7-7c0-3.859,3.14-7,7-7s7,3.141,7,7C23,25.859,19.86,29,16,29z M23.277,15.162
			c-0.903-0.961-1.99-1.744-3.21-2.289l6.259-8.809l2.399,3.429L23.277,15.162z"/>
	</g>
</g>
<g>
</g>
<g>
</g>
<g>
</g>
<g>
</g>
<g>
</g>
<g>
</g>
<g>
</g>
<g>
</g>
<g>
</g>
<g>
</g>
<g>
</g>
<g>
</g>
<g>
</g>
<g>
</g>
<g>
</g>
</svg>
