<?xml version="1.0" encoding="iso-8859-1"?>
<!-- Generator: Adobe Illustrator 18.0.0, SVG Export Plug-In . SVG Version: 6.00 Build 0)  -->
<!DOCTYPE svg PUBLIC "-//W3C//DTD SVG 1.1//EN" "http://www.w3.org/Graphics/SVG/1.1/DTD/svg11.dtd">
<svg version="1.1" id="Capa_1" xmlns="http://www.w3.org/2000/svg" xmlns:xlink="http://www.w3.org/1999/xlink" x="0px" y="0px"
	 viewBox="0 0 32 27.994" style="enable-background:new 0 0 32 27.994;" xml:space="preserve">
<g id="Bullhorn">
	<g>
		<path style="fill-rule:evenodd;clip-rule:evenodd;" d="M29.929,11.155C29.78,7.751,29.373,4.355,28.689,1
			c-0.099-0.482-0.472-0.862-0.952-0.97C27.646,0.01,27.554,0,27.463,0c-0.389,0-0.762,0.182-1.001,0.502
			C23.341,4.684,18,6.993,13,6.993H7c-3.866,0-7,3.134-7,7s3.134,7,7,7c0,2.599,1.057,5.041,2.925,6.809
			c0.142,0.134,0.333,0.204,0.528,0.19c0.195-0.013,0.376-0.107,0.499-0.259l1.639-2.033c0.224-0.277,0.205-0.677-0.046-0.931
			C11.557,23.768,11,22.422,11,20.993h2c5,0,10.341,2.309,13.462,6.491c0.239,0.32,0.612,0.502,1.001,0.502
			c0.091,0,0.183-0.01,0.273-0.03c0.482-0.107,0.854-0.487,0.952-0.97c0.685-3.355,1.092-6.751,1.24-10.155
			C31.128,16.439,32,15.324,32,13.993C32,12.663,31.128,11.548,29.929,11.155z M11,17.993H7c-2.206,0-4-1.794-4-4s1.794-4,4-4h4
			V17.993z M26.349,22.972C23.029,20.056,18.593,18.271,14,18.04V9.947c4.593-0.231,9.029-2.016,12.349-4.933
			C27.227,10.986,27.227,17.001,26.349,22.972z"/>
	</g>
</g>
<g>
</g>
<g>
</g>
<g>
</g>
<g>
</g>
<g>
</g>
<g>
</g>
<g>
</g>
<g>
</g>
<g>
</g>
<g>
</g>
<g>
</g>
<g>
</g>
<g>
</g>
<g>
</g>
<g>
</g>
</svg>
