<?xml version="1.0" encoding="iso-8859-1"?>
<!-- Generator: Adobe Illustrator 18.0.0, SVG Export Plug-In . SVG Version: 6.00 Build 0)  -->
<!DOCTYPE svg PUBLIC "-//W3C//DTD SVG 1.1//EN" "http://www.w3.org/Graphics/SVG/1.1/DTD/svg11.dtd">
<svg version="1.1" id="Capa_1" xmlns="http://www.w3.org/2000/svg" xmlns:xlink="http://www.w3.org/1999/xlink" x="0px" y="0px"
	 viewBox="0 0 32 32" style="enable-background:new 0 0 32 32;" xml:space="preserve">
<g id="Moon">
	<g>
		<path style="fill-rule:evenodd;clip-rule:evenodd;" d="M31.626,19.381c-0.183-0.149-0.407-0.224-0.633-0.224
			c-0.168,0-0.337,0.042-0.49,0.127c-1.882,1.05-4.05,1.65-6.359,1.65c-7.224,0-13.078-5.854-13.078-13.078
			c0-2.309,0.6-4.478,1.65-6.36c0.2-0.359,0.162-0.804-0.097-1.123C12.426,0.133,12.137,0,11.838,0
			c-0.099,0-0.199,0.015-0.296,0.045C4.868,2.101,0,8.311,0,15.653C0,24.667,7.334,32,16.348,32c7.341,0,13.552-4.868,15.607-11.541
			C32.076,20.066,31.946,19.639,31.626,19.381z M16.348,29C8.988,29,3,23.013,3,15.653C3,11.348,5.028,7.451,8.324,4.99
			C8.153,5.933,8.066,6.893,8.066,7.856c0,8.865,7.212,16.078,16.078,16.078c0.964,0,1.923-0.087,2.866-0.258
			C24.549,26.973,20.653,29,16.348,29z"/>
	</g>
</g>
<g>
</g>
<g>
</g>
<g>
</g>
<g>
</g>
<g>
</g>
<g>
</g>
<g>
</g>
<g>
</g>
<g>
</g>
<g>
</g>
<g>
</g>
<g>
</g>
<g>
</g>
<g>
</g>
<g>
</g>
</svg>
