<?xml version="1.0" encoding="iso-8859-1"?>
<!-- Generator: Adobe Illustrator 18.0.0, SVG Export Plug-In . SVG Version: 6.00 Build 0)  -->
<!DOCTYPE svg PUBLIC "-//W3C//DTD SVG 1.1//EN" "http://www.w3.org/Graphics/SVG/1.1/DTD/svg11.dtd">
<svg version="1.1" id="Capa_1" xmlns="http://www.w3.org/2000/svg" xmlns:xlink="http://www.w3.org/1999/xlink" x="0px" y="0px"
	 viewBox="0 0 30 32" style="enable-background:new 0 0 30 32;" xml:space="preserve">
<g id="Music_x5F_Note">
	<g>
		<path style="fill-rule:evenodd;clip-rule:evenodd;" d="M27,0C20.842,0,14.303,1.644,9.506,4.398C8.574,4.934,8,5.926,8,7v16.275
			C7.44,23.102,6.837,23,6.205,23c-0.741,0-1.513,0.125-2.274,0.39c-2.911,1.01-4.567,3.668-3.7,5.938
			C0.869,31.004,2.706,32,4.794,32c0.741,0,1.514-0.125,2.275-0.39c2.354-0.818,3.888-2.714,3.929-4.611L11,27V16.46l1.494-0.858
			C16.362,13.38,21.921,12,27,12v7.275C26.44,19.102,25.837,19,25.205,19c-0.741,0-1.513,0.125-2.274,0.39
			c-2.911,1.01-4.567,3.668-3.7,5.938C19.869,27.004,21.706,28,23.794,28c0.741,0,1.514-0.126,2.275-0.39
			c2.354-0.818,3.888-2.714,3.929-4.611L30,23V3C30,1.343,28.657,0,27,0z M7.892,27.339c-0.217,0.467-0.806,1.09-1.806,1.437
			C5.658,28.924,5.224,29,4.794,29c-0.96,0-1.623-0.381-1.761-0.742c-0.061-0.16-0.036-0.361,0.075-0.599
			c0.217-0.466,0.806-1.088,1.807-1.436C5.342,26.075,5.776,26,6.205,26c0.96,0,1.625,0.382,1.762,0.741
			C8.027,26.9,8.003,27.102,7.892,27.339z M26.892,23.339c-0.217,0.467-0.806,1.09-1.806,1.437C24.658,24.924,24.224,25,23.794,25
			c-0.96,0-1.623-0.381-1.761-0.742c-0.062-0.16-0.036-0.361,0.075-0.599c0.217-0.466,0.806-1.088,1.807-1.435
			C24.342,22.075,24.776,22,25.205,22c0.96,0,1.625,0.382,1.762,0.741C27.027,22.9,27.003,23.102,26.892,23.339z M27,9
			c-5.264,0-11.436,1.379-16,4V7c4.564-2.621,10.736-4,16-4V9z"/>
	</g>
</g>
<g>
</g>
<g>
</g>
<g>
</g>
<g>
</g>
<g>
</g>
<g>
</g>
<g>
</g>
<g>
</g>
<g>
</g>
<g>
</g>
<g>
</g>
<g>
</g>
<g>
</g>
<g>
</g>
<g>
</g>
</svg>
