<?xml version="1.0" encoding="iso-8859-1"?>
<!-- Generator: Adobe Illustrator 18.0.0, SVG Export Plug-In . SVG Version: 6.00 Build 0)  -->
<!DOCTYPE svg PUBLIC "-//W3C//DTD SVG 1.1//EN" "http://www.w3.org/Graphics/SVG/1.1/DTD/svg11.dtd">
<svg version="1.1" id="Capa_1" xmlns="http://www.w3.org/2000/svg" xmlns:xlink="http://www.w3.org/1999/xlink" x="0px" y="0px"
	 viewBox="0 0 32 26" style="enable-background:new 0 0 32 26;" xml:space="preserve">
<g id="Mail">
	<g>
		<path style="fill-rule:evenodd;clip-rule:evenodd;" d="M30,0H2C0.896,0,0,0.896,0,2v22c0,1.105,0.896,2,2,2h28
			c1.105,0,2-0.895,2-2V2C32,0.896,31.105,0,30,0z M29,23H3V7.701l11.714,9.83C15.087,17.843,15.544,18,16,18
			c0.457,0,0.913-0.157,1.286-0.469L29,7.701V23z M29,3.785L16,14.693L3,3.785V3h26V3.785z"/>
	</g>
</g>
<g>
</g>
<g>
</g>
<g>
</g>
<g>
</g>
<g>
</g>
<g>
</g>
<g>
</g>
<g>
</g>
<g>
</g>
<g>
</g>
<g>
</g>
<g>
</g>
<g>
</g>
<g>
</g>
<g>
</g>
</svg>
