<?xml version="1.0" encoding="iso-8859-1"?>
<!-- Generator: Adobe Illustrator 18.0.0, SVG Export Plug-In . SVG Version: 6.00 Build 0)  -->
<!DOCTYPE svg PUBLIC "-//W3C//DTD SVG 1.1//EN" "http://www.w3.org/Graphics/SVG/1.1/DTD/svg11.dtd">
<svg version="1.1" id="Capa_1" xmlns="http://www.w3.org/2000/svg" xmlns:xlink="http://www.w3.org/1999/xlink" x="0px" y="0px"
	 viewBox="0 0 24 32" style="enable-background:new 0 0 24 32;" xml:space="preserve">
<g id="Notepad_1_">
	<g>
		<path style="fill-rule:evenodd;clip-rule:evenodd;" d="M17,16H7v3h10V16z M17,22H7v3h10V22z M21,2h-3V1.5
			C18,0.672,17.328,0,16.5,0S15,0.672,15,1.5V2H9V1.5C9,0.672,8.329,0,7.5,0C6.671,0,6,0.672,6,1.5V2H3C1.343,2,0,3.343,0,5v26
			c0,0.553,0.448,1,1,1h22c0.553,0,1-0.447,1-1V5C24,3.343,22.657,2,21,2z M21,29H3V12h18V29z M21,9H3V5h3v2h3V5h6v2h3V5h3V9z"/>
	</g>
</g>
<g>
</g>
<g>
</g>
<g>
</g>
<g>
</g>
<g>
</g>
<g>
</g>
<g>
</g>
<g>
</g>
<g>
</g>
<g>
</g>
<g>
</g>
<g>
</g>
<g>
</g>
<g>
</g>
<g>
</g>
</svg>
