<?xml version="1.0" encoding="iso-8859-1"?>
<!-- Generator: Adobe Illustrator 18.0.0, SVG Export Plug-In . SVG Version: 6.00 Build 0)  -->
<!DOCTYPE svg PUBLIC "-//W3C//DTD SVG 1.1//EN" "http://www.w3.org/Graphics/SVG/1.1/DTD/svg11.dtd">
<svg version="1.1" id="Capa_1" xmlns="http://www.w3.org/2000/svg" xmlns:xlink="http://www.w3.org/1999/xlink" x="0px" y="0px"
	 viewBox="0 0 32 32" style="enable-background:new 0 0 32 32;" xml:space="preserve">
<g id="New_x5F_Post">
	<g>
		<path style="fill-rule:evenodd;clip-rule:evenodd;" d="M28.5,15c-0.829,0-1.5,0.672-1.5,1.5V29H3V5h12.5C16.329,5,17,4.328,17,3.5
			S16.329,2,15.5,2H2C0.896,2,0,2.895,0,4v26c0,1.105,0.896,2,2,2h26c1.104,0,2-0.895,2-2V16.5C30,15.672,29.329,15,28.5,15z
			 M31.651,4.651l-4.303-4.303C27.114,0.114,26.807,0,26.5,0c-0.307,0-0.614,0.114-0.848,0.349L9,17v6h6L31.651,6.349
			C31.886,6.114,32,5.807,32,5.5C32,5.192,31.886,4.886,31.651,4.651z M14,20h-2v-2L26.5,3.5l2,2L14,20z"/>
	</g>
</g>
<g>
</g>
<g>
</g>
<g>
</g>
<g>
</g>
<g>
</g>
<g>
</g>
<g>
</g>
<g>
</g>
<g>
</g>
<g>
</g>
<g>
</g>
<g>
</g>
<g>
</g>
<g>
</g>
<g>
</g>
</svg>
