<?xml version="1.0" encoding="iso-8859-1"?>
<!-- Generator: Adobe Illustrator 18.0.0, SVG Export Plug-In . SVG Version: 6.00 Build 0)  -->
<!DOCTYPE svg PUBLIC "-//W3C//DTD SVG 1.1//EN" "http://www.w3.org/Graphics/SVG/1.1/DTD/svg11.dtd">
<svg version="1.1" id="Capa_1" xmlns="http://www.w3.org/2000/svg" xmlns:xlink="http://www.w3.org/1999/xlink" x="0px" y="0px"
	 viewBox="0 0 32 32" style="enable-background:new 0 0 32 32;" xml:space="preserve">
<g id="Antenna">
	<g>
		<path style="fill-rule:evenodd;clip-rule:evenodd;" d="M31.557,23.618L21.03,13.091l3.126-3.126C24.27,9.981,24.382,10,24.5,10
			c1.381,0,2.5-1.119,2.5-2.5C27,6.119,25.881,5,24.5,5C23.119,5,22,6.119,22,7.5c0,0.118,0.019,0.231,0.035,0.344l-3.126,3.126
			L8.382,0.443c-0.591-0.591-1.548-0.591-2.139,0C2.862,3.824,1,8.318,1,13.099c0,3.274,0.892,6.405,2.529,9.145
			C1.491,22.877,0,24.754,0,27c0,2.762,2.239,5,5,5c2.246,0,4.123-1.49,4.755-3.529C12.495,30.107,15.625,31,18.9,31
			c4.781,0,9.276-1.862,12.657-5.243C32.148,25.166,32.148,24.209,31.557,23.618z M5,29c-1.104,0-2-0.895-2-2c0-1.104,0.896-2,2-2
			s2,0.896,2,2C7,28.104,6.104,29,5,29z M18.9,27.974c-3.973,0-7.708-1.547-10.518-4.356c-2.81-2.81-4.356-6.546-4.356-10.519
			c0-3.464,1.176-6.748,3.34-9.395l20.929,20.929C25.648,26.799,22.365,27.974,18.9,27.974z"/>
	</g>
</g>
<g>
</g>
<g>
</g>
<g>
</g>
<g>
</g>
<g>
</g>
<g>
</g>
<g>
</g>
<g>
</g>
<g>
</g>
<g>
</g>
<g>
</g>
<g>
</g>
<g>
</g>
<g>
</g>
<g>
</g>
</svg>
