<?xml version="1.0" encoding="iso-8859-1"?>
<!-- Generator: Adobe Illustrator 18.0.0, SVG Export Plug-In . SVG Version: 6.00 Build 0)  -->
<!DOCTYPE svg PUBLIC "-//W3C//DTD SVG 1.1//EN" "http://www.w3.org/Graphics/SVG/1.1/DTD/svg11.dtd">
<svg version="1.1" id="Capa_1" xmlns="http://www.w3.org/2000/svg" xmlns:xlink="http://www.w3.org/1999/xlink" x="0px" y="0px"
	 viewBox="0 0 31 31" style="enable-background:new 0 0 31 31;" xml:space="preserve">
<g id="Round_x5F_Stats_x5F_Alt">
	<g>
		<path style="fill-rule:evenodd;clip-rule:evenodd;" d="M15.5,0C6.953,0,0,6.953,0,15.5C0,24.047,6.953,31,15.5,31
			C24.047,31,31,24.047,31,15.5C31,6.953,24.047,0,15.5,0z M15.5,3c0.975,0,1.92,0.123,2.831,0.336L14.45,14H3.099
			C3.843,7.813,9.116,3,15.5,3z M15.5,28C9.116,28,3.843,23.187,3.099,17h11.78l8.324,8.324C21.078,26.994,18.407,28,15.5,28z
			 M25.324,23.203l-8.088-8.088l3.913-10.751C25.208,6.432,28,10.642,28,15.5C28,18.406,26.994,21.078,25.324,23.203z"/>
	</g>
</g>
<g>
</g>
<g>
</g>
<g>
</g>
<g>
</g>
<g>
</g>
<g>
</g>
<g>
</g>
<g>
</g>
<g>
</g>
<g>
</g>
<g>
</g>
<g>
</g>
<g>
</g>
<g>
</g>
<g>
</g>
</svg>
