<?xml version="1.0" encoding="iso-8859-1"?>
<!-- Generator: Adobe Illustrator 18.0.0, SVG Export Plug-In . SVG Version: 6.00 Build 0)  -->
<!DOCTYPE svg PUBLIC "-//W3C//DTD SVG 1.1//EN" "http://www.w3.org/Graphics/SVG/1.1/DTD/svg11.dtd">
<svg version="1.1" id="Capa_1" xmlns="http://www.w3.org/2000/svg" xmlns:xlink="http://www.w3.org/1999/xlink" x="0px" y="0px"
	 viewBox="0 0 32 28" style="enable-background:new 0 0 32 28;" xml:space="preserve">
<g id="Photo">
	<g>
		<path style="fill-rule:evenodd;clip-rule:evenodd;" d="M30,4h-5l-4-4H11L7,4H2C0.896,4,0,4.895,0,6v20c0,1.105,0.896,2,2,2h28
			c1.105,0,2-0.896,2-2V6C32,4.895,31.105,4,30,4z M29,25H3V7h5.243l4-4h7.515l4,4H29V25z M16,8c-3.866,0-7,3.134-7,7
			c0,3.865,3.134,7,7,7c3.866,0,7-3.135,7-7C23,11.134,19.866,8,16,8z M16,19c-2.206,0-4-1.794-4-4c0-2.206,1.794-4,4-4
			c2.206,0,4,1.794,4,4C20,17.206,18.206,19,16,19z"/>
	</g>
</g>
<g>
</g>
<g>
</g>
<g>
</g>
<g>
</g>
<g>
</g>
<g>
</g>
<g>
</g>
<g>
</g>
<g>
</g>
<g>
</g>
<g>
</g>
<g>
</g>
<g>
</g>
<g>
</g>
<g>
</g>
</svg>
