<?xml version="1.0" encoding="iso-8859-1"?>
<!-- Generator: Adobe Illustrator 18.0.0, SVG Export Plug-In . SVG Version: 6.00 Build 0)  -->
<!DOCTYPE svg PUBLIC "-//W3C//DTD SVG 1.1//EN" "http://www.w3.org/Graphics/SVG/1.1/DTD/svg11.dtd">
<svg version="1.1" id="Capa_1" xmlns="http://www.w3.org/2000/svg" xmlns:xlink="http://www.w3.org/1999/xlink" x="0px" y="0px"
	 viewBox="0 0 34 28" style="enable-background:new 0 0 34 28;" xml:space="preserve">
<g id="Piano">
	<g>
		<path style="fill-rule:evenodd;clip-rule:evenodd;" d="M31,0H3C1.346,0,0,1.346,0,3v22c0,1.654,1.346,3,3,3h28
			c1.654,0,3-1.346,3-3V3C34,1.346,32.654,0,31,0z M10,25H3V3h4v14c0,1.105,0.896,2,2,2h1V25z M12,16h-2V3h2V16z M21,25h-8v-6
			c1.104,0,2-0.895,2-2V3h4v14c0,1.105,0.896,2,2,2V25z M22,3h2v13h-2V3z M24,25v-6h1c1.104,0,2-0.895,2-2V3h4l0.002,22H24z"/>
	</g>
</g>
<g>
</g>
<g>
</g>
<g>
</g>
<g>
</g>
<g>
</g>
<g>
</g>
<g>
</g>
<g>
</g>
<g>
</g>
<g>
</g>
<g>
</g>
<g>
</g>
<g>
</g>
<g>
</g>
<g>
</g>
</svg>
