<?xml version="1.0" encoding="iso-8859-1"?>
<!-- Generator: Adobe Illustrator 18.0.0, SVG Export Plug-In . SVG Version: 6.00 Build 0)  -->
<!DOCTYPE svg PUBLIC "-//W3C//DTD SVG 1.1//EN" "http://www.w3.org/Graphics/SVG/1.1/DTD/svg11.dtd">
<svg version="1.1" id="Capa_1" xmlns="http://www.w3.org/2000/svg" xmlns:xlink="http://www.w3.org/1999/xlink" x="0px" y="0px"
	 viewBox="0 0 32 26" style="enable-background:new 0 0 32 26;" xml:space="preserve">
<g id="Image">
	<g>
		<path style="fill-rule:evenodd;clip-rule:evenodd;" d="M9,11c1.105,0,2-0.895,2-2c0-1.105-0.896-2-2-2C7.896,7,7,7.895,7,9
			C7,10.105,7.896,11,9,11z M30,0H2C0.896,0,0,0.895,0,2v22c0,1.104,0.896,2,2,2h28c1.104,0,2-0.896,2-2V2C32,0.895,31.104,0,30,0z
			 M29,23H3v-5.498C4.556,18.232,6.377,19,9.661,19c3.505,0,5.35-0.874,6.977-1.644C18.174,16.628,19.5,16,22.331,16
			s4.156,0.628,5.692,1.356c0.313,0.148,0.637,0.3,0.977,0.449V23z M29,14.501C27.442,13.769,25.619,13,22.331,13
			c-3.505,0-5.35,0.873-6.977,1.644C13.817,15.372,12.491,16,9.661,16c-2.828,0-4.153-0.628-5.688-1.355
			C3.661,14.496,3.338,14.346,3,14.197V3h26V14.501z"/>
	</g>
</g>
<g>
</g>
<g>
</g>
<g>
</g>
<g>
</g>
<g>
</g>
<g>
</g>
<g>
</g>
<g>
</g>
<g>
</g>
<g>
</g>
<g>
</g>
<g>
</g>
<g>
</g>
<g>
</g>
<g>
</g>
</svg>
