<?xml version="1.0" encoding="iso-8859-1"?>
<!-- Generator: Adobe Illustrator 18.0.0, SVG Export Plug-In . SVG Version: 6.00 Build 0)  -->
<!DOCTYPE svg PUBLIC "-//W3C//DTD SVG 1.1//EN" "http://www.w3.org/Graphics/SVG/1.1/DTD/svg11.dtd">
<svg version="1.1" id="Capa_1" xmlns="http://www.w3.org/2000/svg" xmlns:xlink="http://www.w3.org/1999/xlink" x="0px" y="0px"
	 viewBox="0 0 32 32" style="enable-background:new 0 0 32 32;" xml:space="preserve">
<g id="Pill">
	<g>
		<path style="fill-rule:evenodd;clip-rule:evenodd;" d="M22.5,0c-2.538,0-4.923,0.988-6.717,2.783l-13,12.999
			C0.988,17.576,0,19.963,0,22.5C0,27.738,4.262,32,9.5,32c2.538,0,4.923-0.988,6.717-2.783l13-12.999
			C31.012,14.424,32,12.037,32,9.5C32,4.262,27.738,0,22.5,0z M14.096,27.096C12.868,28.324,11.236,29,9.5,29
			C5.916,29,3,26.084,3,22.5c0-1.736,0.677-3.368,1.904-4.596l5.254-5.254c0.025,0.074,0.037,0.141,0.065,0.217
			c0.646,1.768,1.92,3.658,3.585,5.323c1.833,1.833,3.768,3.07,5.53,3.663L14.096,27.096z M27.096,14.096l-5.056,5.056
			c-0.599,0.368-3.23-0.202-6.11-3.082c-1.343-1.343-2.396-2.886-2.889-4.233c-0.392-1.066-0.319-1.696-0.169-1.899l5.032-5.032
			C19.132,3.676,20.764,3,22.5,3C26.084,3,29,5.916,29,9.5C29,11.236,28.323,12.868,27.096,14.096z"/>
	</g>
</g>
<g>
</g>
<g>
</g>
<g>
</g>
<g>
</g>
<g>
</g>
<g>
</g>
<g>
</g>
<g>
</g>
<g>
</g>
<g>
</g>
<g>
</g>
<g>
</g>
<g>
</g>
<g>
</g>
<g>
</g>
</svg>
