<?xml version="1.0" encoding="iso-8859-1"?>
<!-- Generator: Adobe Illustrator 18.0.0, SVG Export Plug-In . SVG Version: 6.00 Build 0)  -->
<!DOCTYPE svg PUBLIC "-//W3C//DTD SVG 1.1//EN" "http://www.w3.org/Graphics/SVG/1.1/DTD/svg11.dtd">
<svg version="1.1" id="Capa_1" xmlns="http://www.w3.org/2000/svg" xmlns:xlink="http://www.w3.org/1999/xlink" x="0px" y="0px"
	 viewBox="0 0 32 32" style="enable-background:new 0 0 32 32;" xml:space="preserve">
<g id="Pin">
	<g>
		<path style="fill-rule:evenodd;clip-rule:evenodd;" d="M31.544,9.646l-9.188-9.19C22.07,0.169,21.661,0.018,21.277,0
			c-0.404,0.005-0.789,0.188-1.067,0.481c-1.627,1.705-2.406,4.029-2.163,6.351l-3.023,3.024c-1.44-0.558-2.989-0.849-4.537-0.849
			c-3.334,0-6.469,1.298-8.823,3.652L1.44,12.88c-0.282,0.281-0.441,0.663-0.441,1.062c0,0.398,0.157,0.78,0.44,1.062l6.143,6.143
			l-7.364,9.23C0.081,30.548,0,30.764,0,31c0,0.553,0.447,1,1,1c0.236,0,0.453-0.081,0.623-0.218l9.229-7.364l6.143,6.143
			c0.281,0.281,0.663,0.44,1.061,0.44c0.397,0,0.779-0.158,1.06-0.44l0.223-0.223c3.525-3.525,4.592-8.775,2.807-13.363l3.023-3.023
			c2.335,0.24,4.656-0.547,6.35-2.161c0.292-0.279,0.477-0.664,0.481-1.067C32.005,10.32,31.83,9.931,31.544,9.646z M26,10.994
			c-0.349,0-0.698-0.035-1.042-0.108c-0.496-0.106-1.013,0.048-1.372,0.407L19.3,15.579c-0.454,0.454-0.569,1.148-0.285,1.724
			c1.623,3.294,1.196,7.184-1.012,10.024L4.673,13.996c1.655-1.29,3.681-1.989,5.813-1.989c1.456,0,2.912,0.338,4.211,0.979
			c0.574,0.283,1.268,0.17,1.724-0.285l4.286-4.286c0.359-0.359,0.513-0.876,0.406-1.372C21.04,6.695,21.004,6.347,21.004,6
			c0-0.752,0.168-1.492,0.489-2.164l6.671,6.672C27.498,10.827,26.752,10.994,26,10.994z"/>
	</g>
</g>
<g>
</g>
<g>
</g>
<g>
</g>
<g>
</g>
<g>
</g>
<g>
</g>
<g>
</g>
<g>
</g>
<g>
</g>
<g>
</g>
<g>
</g>
<g>
</g>
<g>
</g>
<g>
</g>
<g>
</g>
</svg>
