<?xml version="1.0" encoding="iso-8859-1"?>
<!-- Generator: Adobe Illustrator 18.0.0, SVG Export Plug-In . SVG Version: 6.00 Build 0)  -->
<!DOCTYPE svg PUBLIC "-//W3C//DTD SVG 1.1//EN" "http://www.w3.org/Graphics/SVG/1.1/DTD/svg11.dtd">
<svg version="1.1" id="Capa_1" xmlns="http://www.w3.org/2000/svg" xmlns:xlink="http://www.w3.org/1999/xlink" x="0px" y="0px"
	 viewBox="0 0 28 32" style="enable-background:new 0 0 28 32;" xml:space="preserve">
<g id="Fir">
	<g>
		<path style="fill-rule:evenodd;clip-rule:evenodd;" d="M27.728,27.262l-5.829-8.316c1.075-0.292,2.134-0.643,3.166-1.05
			c0.427-0.169,0.754-0.524,0.886-0.964c0.132-0.44,0.056-0.916-0.208-1.292l-10.514-15C14.949,0.238,14.474-0.001,13.999,0
			c-0.474,0-0.949,0.239-1.229,0.639l-10.514,15c-0.264,0.376-0.34,0.852-0.208,1.292c0.132,0.439,0.459,0.795,0.886,0.964
			c1.033,0.407,2.092,0.758,3.167,1.05l-5.829,8.316c-0.264,0.376-0.341,0.853-0.208,1.292c0.132,0.44,0.458,0.795,0.886,0.963
			C5.122,31.165,9.513,32,14,32c4.487,0,8.877-0.835,13.05-2.483c0.428-0.168,0.754-0.523,0.886-0.963
			C28.069,28.114,27.992,27.638,27.728,27.262z M3.856,27.379l5.98-8.532c0.293-0.417,0.353-0.953,0.162-1.424
			c-0.191-0.472-0.608-0.814-1.108-0.91c-1.026-0.197-2.044-0.453-3.042-0.768L14,4.115l8.152,11.63
			c-0.997,0.314-2.016,0.571-3.042,0.768c-0.5,0.096-0.917,0.438-1.108,0.91c-0.191,0.471-0.131,1.007,0.162,1.424l5.98,8.532
			C17.595,29.531,10.404,29.531,3.856,27.379z"/>
	</g>
</g>
<g>
</g>
<g>
</g>
<g>
</g>
<g>
</g>
<g>
</g>
<g>
</g>
<g>
</g>
<g>
</g>
<g>
</g>
<g>
</g>
<g>
</g>
<g>
</g>
<g>
</g>
<g>
</g>
<g>
</g>
</svg>
