<?xml version="1.0" encoding="iso-8859-1"?>
<!-- Generator: Adobe Illustrator 18.0.0, SVG Export Plug-In . SVG Version: 6.00 Build 0)  -->
<!DOCTYPE svg PUBLIC "-//W3C//DTD SVG 1.1//EN" "http://www.w3.org/Graphics/SVG/1.1/DTD/svg11.dtd">
<svg version="1.1" id="Capa_1" xmlns="http://www.w3.org/2000/svg" xmlns:xlink="http://www.w3.org/1999/xlink" x="0px" y="0px"
	 viewBox="0 0 32 28" style="enable-background:new 0 0 32 28;" xml:space="preserve">
<g id="Portfolio">
	<g>
		<path style="fill-rule:evenodd;clip-rule:evenodd;" d="M30,5h-6V2c0-1.104-0.895-2-2-2H10C8.896,0,8,0.895,8,2v3H2
			C0.896,5,0,5.896,0,7v19c0,1.104,0.896,2,2,2h28c1.104,0,2-0.896,2-2V7C32,5.896,31.104,5,30,5z M11,3h10v2H11V3z M29,25H3v-8h10
			v1h6v-1h10V25z M29,14H19v-1h-6v1H3V8h26V14z"/>
	</g>
</g>
<g>
</g>
<g>
</g>
<g>
</g>
<g>
</g>
<g>
</g>
<g>
</g>
<g>
</g>
<g>
</g>
<g>
</g>
<g>
</g>
<g>
</g>
<g>
</g>
<g>
</g>
<g>
</g>
<g>
</g>
</svg>
