<?xml version="1.0" encoding="iso-8859-1"?>
<!-- Generator: Adobe Illustrator 18.0.0, SVG Export Plug-In . SVG Version: 6.00 Build 0)  -->
<!DOCTYPE svg PUBLIC "-//W3C//DTD SVG 1.1//EN" "http://www.w3.org/Graphics/SVG/1.1/DTD/svg11.dtd">
<svg version="1.1" id="Capa_1" xmlns="http://www.w3.org/2000/svg" xmlns:xlink="http://www.w3.org/1999/xlink" x="0px" y="0px"
	 viewBox="0 0 31 32" style="enable-background:new 0 0 31 32;" xml:space="preserve">
<g id="Off">
	<g>
		<path style="fill-rule:evenodd;clip-rule:evenodd;" d="M24.307,3.767c-0.255-0.177-0.546-0.263-0.835-0.266
			c-0.482-0.006-0.958,0.22-1.252,0.645c-0.472,0.682-0.302,1.616,0.379,2.088C25.981,8.576,28,12.414,28,16.5
			C28,23.393,22.393,29,15.5,29C8.607,29,3,23.393,3,16.5c0-4.086,2.019-7.924,5.401-10.267C9.083,5.762,9.252,4.827,8.78,4.145
			c-0.3-0.433-0.788-0.659-1.279-0.643C7.221,3.51,6.94,3.596,6.693,3.767C2.502,6.67,0,11.43,0,16.5C0,25.047,6.953,32,15.5,32
			C24.047,32,31,25.047,31,16.5C31,11.43,28.498,6.67,24.307,3.767z M15.5,12c0.829,0,1.5-0.672,1.5-1.5v-9
			C17,0.672,16.329,0,15.5,0C14.671,0,14,0.672,14,1.5v9C14,11.328,14.671,12,15.5,12z"/>
	</g>
</g>
<g>
</g>
<g>
</g>
<g>
</g>
<g>
</g>
<g>
</g>
<g>
</g>
<g>
</g>
<g>
</g>
<g>
</g>
<g>
</g>
<g>
</g>
<g>
</g>
<g>
</g>
<g>
</g>
<g>
</g>
</svg>
