<?xml version="1.0" encoding="iso-8859-1"?>
<!-- Generator: Adobe Illustrator 18.0.0, SVG Export Plug-In . SVG Version: 6.00 Build 0)  -->
<!DOCTYPE svg PUBLIC "-//W3C//DTD SVG 1.1//EN" "http://www.w3.org/Graphics/SVG/1.1/DTD/svg11.dtd">
<svg version="1.1" id="Capa_1" xmlns="http://www.w3.org/2000/svg" xmlns:xlink="http://www.w3.org/1999/xlink" x="0px" y="0px"
	 viewBox="0 0 36.001 27" style="enable-background:new 0 0 36.001 27;" xml:space="preserve">
<g id="Diamond">
	<g>
		<path style="fill-rule:evenodd;clip-rule:evenodd;" d="M35.68,7.573l-5.5-7C29.896,0.211,29.46,0,29,0H7
			c-0.46,0-0.895,0.211-1.18,0.573l-5.5,7c-0.464,0.59-0.42,1.433,0.104,1.972l16.5,17C17.206,26.836,17.595,27,18,27
			c0.405,0,0.794-0.164,1.076-0.455l16.5-17C36.1,9.006,36.144,8.164,35.68,7.573z M16.73,3h2.541l3.144,4h-8.828L16.73,3z M7.73,3
			h5.185L9.771,7H4.586L7.73,3z M5.046,10h4.96l3.457,8.672L5.046,10z M18,21.949L13.236,10h9.529L18,21.949z M22.537,18.672
			L25.994,10h4.96L22.537,18.672z M26.23,7l-3.144-4h5.185l3.144,4H26.23z"/>
	</g>
</g>
<g>
</g>
<g>
</g>
<g>
</g>
<g>
</g>
<g>
</g>
<g>
</g>
<g>
</g>
<g>
</g>
<g>
</g>
<g>
</g>
<g>
</g>
<g>
</g>
<g>
</g>
<g>
</g>
<g>
</g>
</svg>
