<?xml version="1.0" encoding="iso-8859-1"?>
<!-- Generator: Adobe Illustrator 18.0.0, SVG Export Plug-In . SVG Version: 6.00 Build 0)  -->
<!DOCTYPE svg PUBLIC "-//W3C//DTD SVG 1.1//EN" "http://www.w3.org/Graphics/SVG/1.1/DTD/svg11.dtd">
<svg version="1.1" id="Capa_1" xmlns="http://www.w3.org/2000/svg" xmlns:xlink="http://www.w3.org/1999/xlink" x="0px" y="0px"
	 viewBox="0 0 32 32" style="enable-background:new 0 0 32 32;" xml:space="preserve">
<g id="Printer">
	<g>
		<path style="fill-rule:evenodd;clip-rule:evenodd;" d="M30,7h-4V0H6v7H2C0.895,7,0,7.895,0,9v16c0,1.105,0.895,2,2,2h4v5h20v-5h4
			c1.105,0,2-0.895,2-2V9C32,7.895,31.105,7,30,7z M9,3h14v4H9V3z M23,29H9v-7h14V29z M29,24h-3v-5H6v5H3V10h26V24z M26,12h-3v3h3
			V12z"/>
	</g>
</g>
<g>
</g>
<g>
</g>
<g>
</g>
<g>
</g>
<g>
</g>
<g>
</g>
<g>
</g>
<g>
</g>
<g>
</g>
<g>
</g>
<g>
</g>
<g>
</g>
<g>
</g>
<g>
</g>
<g>
</g>
</svg>
