<?xml version="1.0" encoding="iso-8859-1"?>
<!-- Generator: Adobe Illustrator 18.0.0, SVG Export Plug-In . SVG Version: 6.00 Build 0)  -->
<!DOCTYPE svg PUBLIC "-//W3C//DTD SVG 1.1//EN" "http://www.w3.org/Graphics/SVG/1.1/DTD/svg11.dtd">
<svg version="1.1" id="Capa_1" xmlns="http://www.w3.org/2000/svg" xmlns:xlink="http://www.w3.org/1999/xlink" x="0px" y="0px"
	 viewBox="0 0 34 32" style="enable-background:new 0 0 34 32;" xml:space="preserve">
<g id="Route">
	<g>
		<path style="fill-rule:evenodd;clip-rule:evenodd;" d="M27,4h-8V2c0-1.104-0.896-2-2-2h-5c-1.105,0-2,0.895-2,2v2H2
			C0.896,4,0,4.895,0,6v10c0,1.104,0.896,2,2,2h8v12c0,1.104,0.895,2,2,2h5c1.104,0,2-0.896,2-2V18h8l7-7L27,4z M13,3h3v1h-3V3z
			 M16,29h-3V18h3V29z M25.757,15H3V7h22.757l4,4L25.757,15z"/>
	</g>
</g>
<g>
</g>
<g>
</g>
<g>
</g>
<g>
</g>
<g>
</g>
<g>
</g>
<g>
</g>
<g>
</g>
<g>
</g>
<g>
</g>
<g>
</g>
<g>
</g>
<g>
</g>
<g>
</g>
<g>
</g>
</svg>
