<?xml version="1.0" encoding="iso-8859-1"?>
<!-- Generator: Adobe Illustrator 18.0.0, SVG Export Plug-In . SVG Version: 6.00 Build 0)  -->
<!DOCTYPE svg PUBLIC "-//W3C//DTD SVG 1.1//EN" "http://www.w3.org/Graphics/SVG/1.1/DTD/svg11.dtd">
<svg version="1.1" id="Capa_1" xmlns="http://www.w3.org/2000/svg" xmlns:xlink="http://www.w3.org/1999/xlink" x="0px" y="0px"
	 viewBox="0 0 32 25" style="enable-background:new 0 0 32 25;" xml:space="preserve">
<g id="Share">
	<g>
		<path style="fill-rule:evenodd;clip-rule:evenodd;" d="M31.442,10.833l-13-10.5c-0.45-0.364-1.067-0.435-1.589-0.187
			C16.332,0.395,16,0.922,16,1.5v4.563C7.05,6.827,0,14.355,0,23.5C0,24.328,0.672,25,1.5,25C2.328,25,3,24.328,3,23.5
			c0-1.765,4.573-5.108,13-5.469V22.5c0,0.578,0.332,1.105,0.854,1.354c0.523,0.249,1.141,0.176,1.589-0.186l13-10.5
			C31.795,12.883,32,12.453,32,12S31.795,11.117,31.442,10.833z M19,19.36V16.5c0-0.828-0.672-1.5-1.5-1.5
			c-5.396,0-10.229,1.192-13.442,3.064C6.213,12.754,11.427,9,17.5,9C18.328,9,19,8.328,19,7.5v-2.86L28.112,12L19,19.36z"/>
	</g>
</g>
<g>
</g>
<g>
</g>
<g>
</g>
<g>
</g>
<g>
</g>
<g>
</g>
<g>
</g>
<g>
</g>
<g>
</g>
<g>
</g>
<g>
</g>
<g>
</g>
<g>
</g>
<g>
</g>
<g>
</g>
</svg>
