<?xml version="1.0" encoding="iso-8859-1"?>
<!-- Generator: Adobe Illustrator 18.0.0, SVG Export Plug-In . SVG Version: 6.00 Build 0)  -->
<!DOCTYPE svg PUBLIC "-//W3C//DTD SVG 1.1//EN" "http://www.w3.org/Graphics/SVG/1.1/DTD/svg11.dtd">
<svg version="1.1" id="Capa_1" xmlns="http://www.w3.org/2000/svg" xmlns:xlink="http://www.w3.org/1999/xlink" x="0px" y="0px"
	 viewBox="0 0 32 32" style="enable-background:new 0 0 32 32;" xml:space="preserve">
<g id="Right">
	<g>
		<path style="fill-rule:evenodd;clip-rule:evenodd;" d="M14.514,9.395l-0.003,0.004C14.243,9.153,13.891,9,13.5,9
			C12.672,9,12,9.672,12,10.5c0,0.438,0.19,0.828,0.489,1.102l-0.003,0.004L17.28,16l-4.794,4.395l0.003,0.004
			C12.19,20.672,12,21.062,12,21.5c0,0.828,0.672,1.5,1.5,1.5c0.391,0,0.743-0.153,1.011-0.398l0.003,0.004l6-5.5
			C20.823,16.821,21,16.421,21,16s-0.177-0.821-0.486-1.106L14.514,9.395z M16,0C7.164,0,0,7.164,0,16s7.164,16,16,16
			c8.836,0,16-7.164,16-16S24.836,0,16,0z M16,29C8.832,29,3,23.168,3,16S8.832,3,16,3c7.168,0,13,5.832,13,13S23.168,29,16,29z"/>
	</g>
</g>
<g>
</g>
<g>
</g>
<g>
</g>
<g>
</g>
<g>
</g>
<g>
</g>
<g>
</g>
<g>
</g>
<g>
</g>
<g>
</g>
<g>
</g>
<g>
</g>
<g>
</g>
<g>
</g>
<g>
</g>
</svg>
