<?xml version="1.0" encoding="iso-8859-1"?>
<!-- Generator: Adobe Illustrator 18.0.0, SVG Export Plug-In . SVG Version: 6.00 Build 0)  -->
<!DOCTYPE svg PUBLIC "-//W3C//DTD SVG 1.1//EN" "http://www.w3.org/Graphics/SVG/1.1/DTD/svg11.dtd">
<svg version="1.1" id="Capa_1" xmlns="http://www.w3.org/2000/svg" xmlns:xlink="http://www.w3.org/1999/xlink" x="0px" y="0px"
	 viewBox="0 0 31.954 31.953" style="enable-background:new 0 0 31.954 31.953;" xml:space="preserve">
<g id="Rocket">
	<g>
		<path style="fill-rule:evenodd;clip-rule:evenodd;" d="M4.454,25c-1.128,0-2.082,0.747-2.393,1.773l-1.086,3.581
			C0.961,30.4,0.954,30.449,0.954,30.5c0,0.276,0.224,0.5,0.5,0.5c0.051,0,0.1-0.008,0.146-0.021l3.581-1.086
			c1.026-0.311,1.773-1.265,1.773-2.393C6.954,26.119,5.835,25,4.454,25z M30.454,0c-5.393,0-10.597,0.235-14.975,3.086
			c-2.308,1.503-4.225,3.607-5.772,5.959c-3.743,0.229-7.227,2.125-9.428,5.21c-0.3,0.421-0.362,0.967-0.165,1.444
			c0.197,0.478,0.626,0.819,1.136,0.906c1.348,0.227,2.841,0.832,4.348,1.723c-0.272,0.998-0.494,1.967-0.651,2.874
			c-0.084,0.48,0.072,0.973,0.417,1.317l4.069,4.068c0.284,0.284,0.666,0.439,1.06,0.439c0.086,0,0.171-0.007,0.257-0.022
			c0.908-0.157,1.877-0.379,2.875-0.651c0.891,1.509,1.496,3.002,1.724,4.35c0.086,0.51,0.429,0.938,0.906,1.137
			c0.185,0.076,0.379,0.113,0.573,0.113c0.308,0,0.613-0.095,0.871-0.278c3.084-2.2,4.981-5.685,5.208-9.429
			c2.352-1.548,4.456-3.464,5.958-5.773c2.849-4.375,3.087-9.796,3.087-14.975C31.954,0.671,31.282,0,30.454,0z M3.292,14.535
			c1.322-1.358,3.001-2.305,4.828-2.744c-0.69,1.35-1.273,2.73-1.754,4.09C5.33,15.31,4.297,14.851,3.292,14.535z M17.419,28.662
			c-0.316-1.007-0.775-2.04-1.347-3.075c1.361-0.481,2.741-1.064,4.091-1.755C19.724,25.66,18.777,27.341,17.419,28.662z
			 M26.353,14.837c-3.109,4.775-9.814,7.939-15.359,9.069l-2.948-2.947c1.131-5.546,4.295-12.25,9.069-15.359
			c3.311-2.155,7.456-2.536,11.83-2.592C28.89,7.382,28.508,11.526,26.353,14.837z M21.454,13c1.381,0,2.5-1.119,2.5-2.5
			c0-1.381-1.119-2.5-2.5-2.5s-2.5,1.119-2.5,2.5C18.954,11.881,20.073,13,21.454,13z"/>
	</g>
</g>
<g>
</g>
<g>
</g>
<g>
</g>
<g>
</g>
<g>
</g>
<g>
</g>
<g>
</g>
<g>
</g>
<g>
</g>
<g>
</g>
<g>
</g>
<g>
</g>
<g>
</g>
<g>
</g>
<g>
</g>
</svg>
