<?xml version="1.0" encoding="iso-8859-1"?>
<!-- Generator: Adobe Illustrator 18.0.0, SVG Export Plug-In . SVG Version: 6.00 Build 0)  -->
<!DOCTYPE svg PUBLIC "-//W3C//DTD SVG 1.1//EN" "http://www.w3.org/Graphics/SVG/1.1/DTD/svg11.dtd">
<svg version="1.1" id="Capa_1" xmlns="http://www.w3.org/2000/svg" xmlns:xlink="http://www.w3.org/1999/xlink" x="0px" y="0px"
	 viewBox="0 0 31.993 31.993" style="enable-background:new 0 0 31.993 31.993;" xml:space="preserve">
<g id="Saturn">
	<g>
		<path style="fill-rule:evenodd;clip-rule:evenodd;" d="M31.171,0.821c-1.793-1.793-6.169-0.552-11.287,2.77
			c-1.229-0.386-2.534-0.595-3.888-0.595c-7.168,0-13,5.832-13,13c0,1.354,0.209,2.659,0.595,3.888
			c-3.322,5.117-4.562,9.494-2.769,11.287c1.794,1.794,6.173,0.557,11.294-2.768c1.226,0.385,2.529,0.593,3.881,0.593
			c7.169,0,13-5.832,13-13c0-1.352-0.208-2.654-0.592-3.881C31.728,6.994,32.964,2.615,31.171,0.821z M3.473,28.518
			c-0.959-0.959-0.414-3.233,1.22-6.124c1.164,2.048,2.866,3.749,4.915,4.911C6.709,28.946,4.435,29.48,3.473,28.518z M5.996,15.996
			c0-5.514,4.486-10,10-10c4.314,0,7.986,2.75,9.387,6.585c-1.564,2.186-3.566,4.551-5.908,6.892
			c-2.342,2.343-4.708,4.345-6.894,5.909C8.746,23.982,5.996,20.308,5.996,15.996z M15.996,25.996c-0.165,0-0.326-0.017-0.489-0.024
			c1.833-1.434,3.706-3.075,5.547-4.917c1.842-1.842,3.484-3.714,4.917-5.548c0.008,0.163,0.025,0.324,0.025,0.489
			C25.996,21.51,21.51,25.996,15.996,25.996z M22.394,4.693c2.891-1.633,5.165-2.179,6.124-1.22
			c0.962,0.961,0.428,3.236-1.213,6.136C26.143,7.56,24.443,5.857,22.394,4.693z"/>
	</g>
</g>
<g>
</g>
<g>
</g>
<g>
</g>
<g>
</g>
<g>
</g>
<g>
</g>
<g>
</g>
<g>
</g>
<g>
</g>
<g>
</g>
<g>
</g>
<g>
</g>
<g>
</g>
<g>
</g>
<g>
</g>
</svg>
