<?xml version="1.0" encoding="iso-8859-1"?>
<!-- Generator: Adobe Illustrator 18.0.0, SVG Export Plug-In . SVG Version: 6.00 Build 0)  -->
<!DOCTYPE svg PUBLIC "-//W3C//DTD SVG 1.1//EN" "http://www.w3.org/Graphics/SVG/1.1/DTD/svg11.dtd">
<svg version="1.1" id="Capa_1" xmlns="http://www.w3.org/2000/svg" xmlns:xlink="http://www.w3.org/1999/xlink" x="0px" y="0px"
	 viewBox="0 0 27 31.991" style="enable-background:new 0 0 27 31.991;" xml:space="preserve">
<g id="Shield">
	<g>
		<path style="fill-rule:evenodd;clip-rule:evenodd;" d="M25.556,6.614c-4.151-1.202-7.972-3.346-11.161-6.267
			C14.142,0.116,13.82,0,13.499,0c-0.319,0-0.64,0.115-0.893,0.347C9.417,3.268,5.597,5.412,1.444,6.614C0.59,6.861,0,7.644,0,8.534
			v3.457c0.234,8.723,5.498,16.521,13.5,20c8.002-3.479,13.266-11.277,13.5-20V8.534C27,7.644,26.411,6.862,25.556,6.614z
			 M24,11.949c-0.204,7.066-4.278,13.49-10.5,16.721C7.278,25.439,3.204,19.016,3,11.949V9.277c3.822-1.21,7.414-3.172,10.5-5.731
			c3.086,2.56,6.678,4.521,10.5,5.731V11.949z"/>
	</g>
</g>
<g>
</g>
<g>
</g>
<g>
</g>
<g>
</g>
<g>
</g>
<g>
</g>
<g>
</g>
<g>
</g>
<g>
</g>
<g>
</g>
<g>
</g>
<g>
</g>
<g>
</g>
<g>
</g>
<g>
</g>
</svg>
