<?xml version="1.0" encoding="iso-8859-1"?>
<!-- Generator: Adobe Illustrator 18.0.0, SVG Export Plug-In . SVG Version: 6.00 Build 0)  -->
<!DOCTYPE svg PUBLIC "-//W3C//DTD SVG 1.1//EN" "http://www.w3.org/Graphics/SVG/1.1/DTD/svg11.dtd">
<svg version="1.1" id="Capa_1" xmlns="http://www.w3.org/2000/svg" xmlns:xlink="http://www.w3.org/1999/xlink" x="0px" y="0px"
	 viewBox="0 0 36 32" style="enable-background:new 0 0 36 32;" xml:space="preserve">
<g id="Basket">
	<g>
		<path style="fill-rule:evenodd;clip-rule:evenodd;" d="M33,9h-5.095c-0.037-0.102-0.075-0.203-0.131-0.294l-5-8
			C22.508,0.282,22.037,0,21.5,0C20.672,0,20,0.671,20,1.5c0,0.292,0.083,0.563,0.227,0.794L24.418,9H11.582l4.191-6.706
			C15.917,2.064,16,1.792,16,1.5C16,0.671,15.328,0,14.5,0c-0.537,0-1.008,0.282-1.273,0.706l-5,8C8.17,8.797,8.132,8.898,8.095,9H3
			c-1.657,0-3,1.343-3,3v2c0,1.421,0.991,2.604,2.317,2.915l3.804,12.934C6.487,31.092,7.638,32,9,32h18
			c1.362,0,2.513-0.908,2.879-2.151l3.804-12.934C35.009,16.605,36,15.421,36,14v-2C36,10.343,34.657,9,33,9z M27,29L8.999,29.002
			L5.47,17h25.06L27,29z M33,14H3v-2h30V14z"/>
	</g>
</g>
<g>
</g>
<g>
</g>
<g>
</g>
<g>
</g>
<g>
</g>
<g>
</g>
<g>
</g>
<g>
</g>
<g>
</g>
<g>
</g>
<g>
</g>
<g>
</g>
<g>
</g>
<g>
</g>
<g>
</g>
</svg>
