<?xml version="1.0" encoding="iso-8859-1"?>
<!-- Generator: Adobe Illustrator 18.0.0, SVG Export Plug-In . SVG Version: 6.00 Build 0)  -->
<!DOCTYPE svg PUBLIC "-//W3C//DTD SVG 1.1//EN" "http://www.w3.org/Graphics/SVG/1.1/DTD/svg11.dtd">
<svg version="1.1" id="Capa_1" xmlns="http://www.w3.org/2000/svg" xmlns:xlink="http://www.w3.org/1999/xlink" x="0px" y="0px"
	 viewBox="0 0 30 32" style="enable-background:new 0 0 30 32;" xml:space="preserve">
<g id="Skull">
	<g>
		<path style="fill-rule:evenodd;clip-rule:evenodd;" d="M10,14c-1.656,0-3,1.343-3,3c0,1.656,1.344,3,3,3c1.656,0,3-1.344,3-3
			C13,15.343,11.656,14,10,14z M20,14c-1.656,0-3,1.343-3,3c0,1.656,1.344,3,3,3s3-1.344,3-3C23,15.343,21.656,14,20,14z M15,0
			C6.715,0,0,6.715,0,15c0,4.437,1.938,8.412,5,11.158V30c0,1.105,0.896,2,2,2h16c1.104,0,2-0.895,2-2v-3.842
			c3.063-2.746,5-6.721,5-11.158C30,6.715,23.285,0,15,0z M22.997,23.925L22,24.818V29h-2v-3h-2v3h-2v-3h-2v3h-2v-3h-2v3H8v-4.182
			l-0.997-0.894C4.459,21.644,3,18.391,3,15C3,8.383,8.383,3,15,3c6.617,0,12,5.383,12,12C27,18.391,25.541,21.644,22.997,23.925z"
			/>
	</g>
</g>
<g>
</g>
<g>
</g>
<g>
</g>
<g>
</g>
<g>
</g>
<g>
</g>
<g>
</g>
<g>
</g>
<g>
</g>
<g>
</g>
<g>
</g>
<g>
</g>
<g>
</g>
<g>
</g>
<g>
</g>
</svg>
