<?xml version="1.0" encoding="iso-8859-1"?>
<!-- Generator: Adobe Illustrator 18.0.0, SVG Export Plug-In . SVG Version: 6.00 Build 0)  -->
<!DOCTYPE svg PUBLIC "-//W3C//DTD SVG 1.1//EN" "http://www.w3.org/Graphics/SVG/1.1/DTD/svg11.dtd">
<svg version="1.1" id="Capa_1" xmlns="http://www.w3.org/2000/svg" xmlns:xlink="http://www.w3.org/1999/xlink" x="0px" y="0px"
	 viewBox="0 0 30 32" style="enable-background:new 0 0 30 32;" xml:space="preserve">
<g id="Funnel">
	<g>
		<path style="fill-rule:evenodd;clip-rule:evenodd;" d="M15,0C11.481,0,0,0.324,0,4.5v3c0,0.222,0.049,0.441,0.145,0.643
			C2.445,13.001,6.279,17.032,11,19.582V29c0,0.246,0.06,0.488,0.177,0.706C11.932,31.121,13.397,32,15,32
			c1.603,0,3.068-0.879,3.823-2.294C18.94,29.488,19,29.246,19,29v-9.418c4.721-2.55,8.555-6.581,10.855-11.439
			C29.951,7.941,30,7.722,30,7.5v-3C30,0.324,18.519,0,15,0z M15,3c5.922,0,9.854,0.839,11.423,1.5C24.854,5.161,20.922,6,15,6
			C9.078,6,5.146,5.161,3.577,4.5C5.146,3.839,9.078,3,15,3z M16.838,17.322C16.325,17.574,16,18.097,16,18.668v9.881
			c-0.5,0.566-1.5,0.566-2,0v-9.881c0-0.571-0.325-1.094-0.838-1.346c-4.261-2.098-7.758-5.551-9.941-9.76C6.89,8.858,12.678,9,15,9
			c2.322,0,8.11-0.142,11.779-1.438C24.596,11.772,21.099,15.225,16.838,17.322z"/>
	</g>
</g>
<g>
</g>
<g>
</g>
<g>
</g>
<g>
</g>
<g>
</g>
<g>
</g>
<g>
</g>
<g>
</g>
<g>
</g>
<g>
</g>
<g>
</g>
<g>
</g>
<g>
</g>
<g>
</g>
<g>
</g>
</svg>
