<?xml version="1.0" encoding="iso-8859-1"?>
<!-- Generator: Adobe Illustrator 18.0.0, SVG Export Plug-In . SVG Version: 6.00 Build 0)  -->
<!DOCTYPE svg PUBLIC "-//W3C//DTD SVG 1.1//EN" "http://www.w3.org/Graphics/SVG/1.1/DTD/svg11.dtd">
<svg version="1.1" id="Capa_1" xmlns="http://www.w3.org/2000/svg" xmlns:xlink="http://www.w3.org/1999/xlink" x="0px" y="0px"
	 viewBox="0 0 32 32" style="enable-background:new 0 0 32 32;" xml:space="preserve">
<g id="Speaker">
	<g>
		<path style="fill-rule:evenodd;clip-rule:evenodd;" d="M16,0h-2L7,7H2C0.896,7,0,7.896,0,9v14c0,1.104,0.896,2,2,2h5l7,7h2
			c1.104,0,2-0.896,2-2V2C18,0.896,17.105,0,16,0z M15,28.758L8.243,22H3V10h5.243L15,3.242V28.758z M28.218,6.843
			C27.924,6.548,27.539,6.4,27.153,6.4c-0.382,0-0.765,0.146-1.058,0.436c-0.587,0.584-0.591,1.534-0.007,2.122
			C27.966,10.847,29,13.348,29,16c0,2.652-1.034,5.153-2.911,7.042c-0.584,0.588-0.58,1.538,0.007,2.122
			c0.293,0.29,0.676,0.436,1.058,0.436c0.386,0,0.771-0.148,1.064-0.443C30.656,22.701,32,19.449,32,16
			C32,12.551,30.656,9.299,28.218,6.843z M23.489,10.634c-0.281-0.235-0.623-0.351-0.963-0.351c-0.429,0-0.854,0.183-1.15,0.536
			c-0.532,0.636-0.449,1.581,0.186,2.113C22.476,13.698,23,14.816,23,16c0,1.183-0.524,2.302-1.438,3.067
			c-0.635,0.532-0.718,1.478-0.186,2.113c0.296,0.354,0.722,0.536,1.15,0.536c0.34,0,0.682-0.115,0.963-0.351
			C25.085,20.029,26,18.073,26,16C26,13.927,25.085,11.971,23.489,10.634z"/>
	</g>
</g>
<g>
</g>
<g>
</g>
<g>
</g>
<g>
</g>
<g>
</g>
<g>
</g>
<g>
</g>
<g>
</g>
<g>
</g>
<g>
</g>
<g>
</g>
<g>
</g>
<g>
</g>
<g>
</g>
<g>
</g>
</svg>
