<?xml version="1.0" encoding="iso-8859-1"?>
<!-- Generator: Adobe Illustrator 18.0.0, SVG Export Plug-In . SVG Version: 6.00 Build 0)  -->
<!DOCTYPE svg PUBLIC "-//W3C//DTD SVG 1.1//EN" "http://www.w3.org/Graphics/SVG/1.1/DTD/svg11.dtd">
<svg version="1.1" id="Capa_1" xmlns="http://www.w3.org/2000/svg" xmlns:xlink="http://www.w3.org/1999/xlink" x="0px" y="0px"
	 viewBox="0 0 31 32" style="enable-background:new 0 0 31 32;" xml:space="preserve">
<g id="Cup">
	<g>
		<path style="fill-rule:evenodd;clip-rule:evenodd;" d="M29.5,3H25V2c0-1.104-0.896-2-2-2H8C6.896,0,6,0.896,6,2v1H1.5
			C0.671,3,0,3.672,0,4.5c0,4.703,2.412,8.884,6.135,11.533C6.79,20.06,9.969,23.228,14,23.87V29h-3.5C9.671,29,9,29.672,9,30.5
			c0,0.828,0.671,1.5,1.5,1.5h10c0.829,0,1.5-0.672,1.5-1.5c0-0.828-0.671-1.5-1.5-1.5H17v-5.13c4.031-0.642,7.21-3.81,7.865-7.837
			C28.588,13.384,31,9.203,31,4.5C31,3.672,30.329,3,29.5,3z M6,11.944C4.468,10.297,3.426,8.254,3.106,6H6V11.944z M22,14.5
			c0,3.584-2.916,6.5-6.5,6.5C11.916,21,9,18.084,9,14.5V3h13V14.5z M25,11.944V6h2.894C27.574,8.254,26.532,10.297,25,11.944z"/>
	</g>
</g>
<g>
</g>
<g>
</g>
<g>
</g>
<g>
</g>
<g>
</g>
<g>
</g>
<g>
</g>
<g>
</g>
<g>
</g>
<g>
</g>
<g>
</g>
<g>
</g>
<g>
</g>
<g>
</g>
<g>
</g>
</svg>
