<?xml version="1.0" encoding="iso-8859-1"?>
<!-- Generator: Adobe Illustrator 18.0.0, SVG Export Plug-In . SVG Version: 6.00 Build 0)  -->
<!DOCTYPE svg PUBLIC "-//W3C//DTD SVG 1.1//EN" "http://www.w3.org/Graphics/SVG/1.1/DTD/svg11.dtd">
<svg version="1.1" id="Capa_1" xmlns="http://www.w3.org/2000/svg" xmlns:xlink="http://www.w3.org/1999/xlink" x="0px" y="0px"
	 viewBox="0 0 32 34" style="enable-background:new 0 0 32 34;" xml:space="preserve">
<g id="Sunrise">
	<g>
		<path style="fill-rule:evenodd;clip-rule:evenodd;" d="M24.5,10c0.414,0,0.789-0.168,1.061-0.44l2-2C27.832,7.289,28,6.914,28,6.5
			C28,5.672,27.328,5,26.5,5c-0.414,0-0.789,0.168-1.061,0.44l-2,2C23.168,7.711,23,8.086,23,8.5C23,9.328,23.672,10,24.5,10z
			 M16.5,6C17.328,6,18,5.328,18,4.5v-3C18,0.672,17.328,0,16.5,0C15.672,0,15,0.672,15,1.5v3C15,5.328,15.672,6,16.5,6z
			 M15.44,22.439L11,26.879L13.121,29L15,27.121V34h3v-6.879L19.879,29L22,26.879l-4.44-4.439
			C16.975,21.853,16.025,21.853,15.44,22.439z M30.5,17h-5.536C24.974,16.832,25,16.67,25,16.5c0-4.693-3.806-8.5-8.5-8.5
			C11.806,8,8,11.807,8,16.5c0,0.17,0.026,0.332,0.036,0.5H1.5C0.672,17,0,17.672,0,18.5C0,19.328,0.672,20,1.5,20h29
			c0.828,0,1.5-0.672,1.5-1.5C32,17.672,31.328,17,30.5,17z M21.969,17H11.031C11.016,16.834,11,16.67,11,16.5
			c0-3.033,2.467-5.5,5.5-5.5c3.033,0,5.5,2.467,5.5,5.5C22,16.67,21.984,16.834,21.969,17z M7.439,9.56
			C7.711,9.832,8.086,10,8.5,10C9.328,10,10,9.328,10,8.5c0-0.414-0.168-0.789-0.439-1.061l-2-2C7.289,5.168,6.914,5,6.5,5
			C5.672,5,5,5.672,5,6.5C5,6.914,5.168,7.289,5.439,7.56L7.439,9.56z"/>
	</g>
</g>
<g>
</g>
<g>
</g>
<g>
</g>
<g>
</g>
<g>
</g>
<g>
</g>
<g>
</g>
<g>
</g>
<g>
</g>
<g>
</g>
<g>
</g>
<g>
</g>
<g>
</g>
<g>
</g>
<g>
</g>
</svg>
