<?xml version="1.0" encoding="iso-8859-1"?>
<!-- Generator: Adobe Illustrator 18.0.0, SVG Export Plug-In . SVG Version: 6.00 Build 0)  -->
<!DOCTYPE svg PUBLIC "-//W3C//DTD SVG 1.1//EN" "http://www.w3.org/Graphics/SVG/1.1/DTD/svg11.dtd">
<svg version="1.1" id="Capa_1" xmlns="http://www.w3.org/2000/svg" xmlns:xlink="http://www.w3.org/1999/xlink" x="0px" y="0px"
	 viewBox="0 0 32 32" style="enable-background:new 0 0 32 32;" xml:space="preserve">
<g id="Toggle_x5F_Switches">
	<g>
		<path style="fill-rule:evenodd;clip-rule:evenodd;" d="M25,18H7c-3.866,0-7,3.134-7,7c0,3.866,3.134,7,7,7h18c3.866,0,7-3.134,7-7
			C32,21.134,28.866,18,25,18z M19.26,29H7c-2.206,0-4-1.794-4-4c0-2.206,1.794-4,4-4h12.26C18.468,22.135,18,23.512,18,25
			S18.468,27.865,19.26,29z M25,29c-2.206,0-4-1.794-4-4c0-2.206,1.794-4,4-4s4,1.794,4,4C29,27.206,27.206,29,25,29z M7,14h18
			c3.866,0,7-3.134,7-7c0-3.866-3.134-7-7-7H7C3.134,0,0,3.134,0,7C0,10.866,3.134,14,7,14z M12.74,3H25c2.206,0,4,1.794,4,4
			c0,2.206-1.794,4-4,4H12.74C13.532,9.865,14,8.488,14,7C14,5.512,13.532,4.135,12.74,3z M7,3c2.206,0,4,1.794,4,4
			c0,2.206-1.794,4-4,4S3,9.206,3,7C3,4.794,4.794,3,7,3z"/>
	</g>
</g>
<g>
</g>
<g>
</g>
<g>
</g>
<g>
</g>
<g>
</g>
<g>
</g>
<g>
</g>
<g>
</g>
<g>
</g>
<g>
</g>
<g>
</g>
<g>
</g>
<g>
</g>
<g>
</g>
<g>
</g>
</svg>
