<?xml version="1.0" encoding="iso-8859-1"?>
<!-- Generator: Adobe Illustrator 18.0.0, SVG Export Plug-In . SVG Version: 6.00 Build 0)  -->
<!DOCTYPE svg PUBLIC "-//W3C//DTD SVG 1.1//EN" "http://www.w3.org/Graphics/SVG/1.1/DTD/svg11.dtd">
<svg version="1.1" id="Capa_1" xmlns="http://www.w3.org/2000/svg" xmlns:xlink="http://www.w3.org/1999/xlink" x="0px" y="0px"
	 viewBox="0 0 32 32.001" style="enable-background:new 0 0 32 32.001;" xml:space="preserve">
<g id="Label">
	<g>
		<path style="fill-rule:evenodd;clip-rule:evenodd;" d="M31.415,0.586C31.04,0.211,30.531,0,30.001,0L17.829,0.001
			c-0.53,0-1.039,0.21-1.414,0.586L0.586,16.415C0.21,16.79,0,17.299,0,17.829s0.21,1.039,0.586,1.414l12.172,12.172
			c0.391,0.391,0.902,0.586,1.414,0.586c0.512,0,1.024-0.195,1.414-0.586l15.829-15.829C31.79,15.211,32,14.702,32,14.171V2
			C32,1.47,31.79,0.961,31.415,0.586z M14.171,28.587L3.414,17.829l2.147-2.147L16.319,26.44L14.171,28.587z M29,13.757
			L18.44,24.318L7.683,13.561l10.561-10.56L29,3V13.757z M23,11c1.104,0,2-0.896,2-2c0-1.104-0.896-2-2-2s-2,0.895-2,2
			C21,10.104,21.896,11,23,11z"/>
	</g>
</g>
<g>
</g>
<g>
</g>
<g>
</g>
<g>
</g>
<g>
</g>
<g>
</g>
<g>
</g>
<g>
</g>
<g>
</g>
<g>
</g>
<g>
</g>
<g>
</g>
<g>
</g>
<g>
</g>
<g>
</g>
</svg>
