<?xml version="1.0" encoding="iso-8859-1"?>
<!-- Generator: Adobe Illustrator 18.0.0, SVG Export Plug-In . SVG Version: 6.00 Build 0)  -->
<!DOCTYPE svg PUBLIC "-//W3C//DTD SVG 1.1//EN" "http://www.w3.org/Graphics/SVG/1.1/DTD/svg11.dtd">
<svg version="1.1" id="Capa_1" xmlns="http://www.w3.org/2000/svg" xmlns:xlink="http://www.w3.org/1999/xlink" x="0px" y="0px"
	 viewBox="0 0 32 32" style="enable-background:new 0 0 32 32;" xml:space="preserve">
<g id="Phone">
	<g>
		<path style="fill-rule:evenodd;clip-rule:evenodd;" d="M29.279,20.036l-5.184-2.663c-1.269-0.654-2.91-0.431-3.962,0.536
			l-0.605,0.554c-0.587,0.54-1.502,0.665-2.213,0.297c-1.768-0.91-3.182-2.324-4.093-4.088c-0.373-0.724-0.254-1.612,0.299-2.212
			l0.555-0.604c0.595-0.647,0.922-1.487,0.922-2.364c0-0.552-0.134-1.104-0.387-1.596l-2.666-5.18C11.082,1.042,9.377,0,7.496,0
			C6.39,0,5.342,0.354,4.466,1.023L2.89,2.225c-2.475,1.886-3.492,5.143-2.533,8.104c3.194,9.85,10.935,17.794,20.707,21.251
			c0.789,0.279,1.614,0.42,2.451,0.42c1.957,0,3.865-0.795,5.236-2.184l1.805-1.825C31.488,27.049,32,25.803,32,24.482
			C32,22.601,30.957,20.898,29.279,20.036z M28.42,25.885l-1.804,1.825c-1.158,1.172-2.992,1.595-4.552,1.043
			C13.167,25.607,6.119,18.373,3.211,9.405C2.644,7.652,3.245,5.725,4.71,4.608l1.577-1.203c0.349-0.266,0.767-0.407,1.209-0.407
			c0.752,0,1.435,0.417,1.78,1.09l2.665,5.18c0.036,0.07,0.055,0.146,0.055,0.225c0,0.16-0.072,0.271-0.133,0.337l-0.554,0.603
			c-1.398,1.52-1.701,3.775-0.754,5.612c1.196,2.322,3.06,4.182,5.385,5.38c1.805,0.93,4.123,0.617,5.616-0.753l0.606-0.556
			c0.098-0.09,0.352-0.184,0.562-0.077l5.184,2.663c0.674,0.346,1.092,1.028,1.092,1.78C28.999,25.009,28.793,25.507,28.42,25.885z"
			/>
	</g>
</g>
<g>
</g>
<g>
</g>
<g>
</g>
<g>
</g>
<g>
</g>
<g>
</g>
<g>
</g>
<g>
</g>
<g>
</g>
<g>
</g>
<g>
</g>
<g>
</g>
<g>
</g>
<g>
</g>
<g>
</g>
</svg>
