<?xml version="1.0" encoding="iso-8859-1"?>
<!-- Generator: Adobe Illustrator 18.0.0, SVG Export Plug-In . SVG Version: 6.00 Build 0)  -->
<!DOCTYPE svg PUBLIC "-//W3C//DTD SVG 1.1//EN" "http://www.w3.org/Graphics/SVG/1.1/DTD/svg11.dtd">
<svg version="1.1" id="Capa_1" xmlns="http://www.w3.org/2000/svg" xmlns:xlink="http://www.w3.org/1999/xlink" x="0px" y="0px"
	 viewBox="0 0 24 32" style="enable-background:new 0 0 24 32;" xml:space="preserve">
<g id="Thermometer_x5F_1">
	<g>
		<path style="fill-rule:evenodd;clip-rule:evenodd;" d="M16,4v3h8V4H16z M13,16.298V4.5C13,2.019,10.981,0,8.5,0
			C6.019,0,4,2.019,4,4.5v11.798C1.543,17.84,0,20.57,0,23.5C0,28.187,3.813,32,8.5,32c4.687,0,8.5-3.813,8.5-8.5
			C17,20.57,15.458,17.84,13,16.298z M8.5,29C5.467,29,3,26.532,3,23.5c0-2.105,1.234-4.054,3.145-4.963
			C6.668,18.288,7,17.761,7,17.183V4.5C7,3.673,7.673,3,8.5,3C9.327,3,10,3.673,10,4.5v12.683c0,0.578,0.332,1.106,0.855,1.354
			C12.766,19.446,14,21.395,14,23.5C14,26.532,11.533,29,8.5,29z M16,13h8v-3h-8V13z"/>
	</g>
</g>
<g>
</g>
<g>
</g>
<g>
</g>
<g>
</g>
<g>
</g>
<g>
</g>
<g>
</g>
<g>
</g>
<g>
</g>
<g>
</g>
<g>
</g>
<g>
</g>
<g>
</g>
<g>
</g>
<g>
</g>
</svg>
