<?xml version="1.0" encoding="iso-8859-1"?>
<!-- Generator: Adobe Illustrator 18.0.0, SVG Export Plug-In . SVG Version: 6.00 Build 0)  -->
<!DOCTYPE svg PUBLIC "-//W3C//DTD SVG 1.1//EN" "http://www.w3.org/Graphics/SVG/1.1/DTD/svg11.dtd">
<svg version="1.1" id="Capa_1" xmlns="http://www.w3.org/2000/svg" xmlns:xlink="http://www.w3.org/1999/xlink" x="0px" y="0px"
	 viewBox="0 0 32 32" style="enable-background:new 0 0 32 32;" xml:space="preserve">
<g id="Stats_x5F_Alt">
	<g>
		<path style="fill-rule:evenodd;clip-rule:evenodd;" d="M25,26h4c1.104,0,2-0.895,2-2V2c0-1.104-0.896-2-2-2h-4
			c-1.104,0-2,0.896-2,2v22C23,25.105,23.896,26,25,26z M26,3h2v20h-2V3z M3,26h4c1.104,0,2-0.895,2-2v-6c0-1.104-0.896-2-2-2H3
			c-1.104,0-2,0.896-2,2v6C1,25.105,1.896,26,3,26z M4,19h2v4H4V19z M30.5,29h-29C0.671,29,0,29.672,0,30.5
			C0,31.328,0.671,32,1.5,32h29c0.829,0,1.5-0.672,1.5-1.5C32,29.672,31.329,29,30.5,29z M14,26h4c1.104,0,2-0.895,2-2V10
			c0-1.104-0.895-2-2-2h-4c-1.105,0-2,0.896-2,2v14C12,25.105,12.896,26,14,26z M15,11h2v12h-2V11z"/>
	</g>
</g>
<g>
</g>
<g>
</g>
<g>
</g>
<g>
</g>
<g>
</g>
<g>
</g>
<g>
</g>
<g>
</g>
<g>
</g>
<g>
</g>
<g>
</g>
<g>
</g>
<g>
</g>
<g>
</g>
<g>
</g>
</svg>
