<?xml version="1.0" encoding="iso-8859-1"?>
<!-- Generator: Adobe Illustrator 18.0.0, SVG Export Plug-In . SVG Version: 6.00 Build 0)  -->
<!DOCTYPE svg PUBLIC "-//W3C//DTD SVG 1.1//EN" "http://www.w3.org/Graphics/SVG/1.1/DTD/svg11.dtd">
<svg version="1.1" id="Capa_1" xmlns="http://www.w3.org/2000/svg" xmlns:xlink="http://www.w3.org/1999/xlink" x="0px" y="0px"
	 viewBox="0 0 32 32" style="enable-background:new 0 0 32 32;" xml:space="preserve">
<g id="Crop">
	<g>
		<path style="fill-rule:evenodd;clip-rule:evenodd;" d="M31.56,2.561C31.832,2.289,32,1.914,32,1.5C32,0.671,31.328,0,30.5,0
			c-0.414,0-0.789,0.168-1.061,0.439L23.879,6H7V3.5C7,2.671,6.328,2,5.5,2C4.672,2,4,2.671,4,3.5V6H1.5C0.672,6,0,6.671,0,7.5
			S0.672,9,1.5,9H4v17.5C4,27.328,4.672,28,5.5,28H23v2.5c0,0.828,0.672,1.5,1.5,1.5c0.828,0,1.5-0.672,1.5-1.5V28h2.5
			c0.828,0,1.5-0.672,1.5-1.5c0-0.828-0.672-1.5-1.5-1.5H26V8.121L31.56,2.561z M7,9h13.879L7,22.879V9z M23,25H9.121L23,11.121V25z
			"/>
	</g>
</g>
<g>
</g>
<g>
</g>
<g>
</g>
<g>
</g>
<g>
</g>
<g>
</g>
<g>
</g>
<g>
</g>
<g>
</g>
<g>
</g>
<g>
</g>
<g>
</g>
<g>
</g>
<g>
</g>
<g>
</g>
</svg>
