<?xml version="1.0" encoding="iso-8859-1"?>
<!-- Generator: Adobe Illustrator 18.0.0, SVG Export Plug-In . SVG Version: 6.00 Build 0)  -->
<!DOCTYPE svg PUBLIC "-//W3C//DTD SVG 1.1//EN" "http://www.w3.org/Graphics/SVG/1.1/DTD/svg11.dtd">
<svg version="1.1" id="Capa_1" xmlns="http://www.w3.org/2000/svg" xmlns:xlink="http://www.w3.org/1999/xlink" x="0px" y="0px"
	 viewBox="0 0 32 27" style="enable-background:new 0 0 32 27;" xml:space="preserve">
<g id="Archive">
	<g>
		<path style="fill-rule:evenodd;clip-rule:evenodd;" d="M24.599,0.824C24.223,0.306,23.622,0,22.981,0H9.019
			c-0.64,0-1.241,0.306-1.618,0.824L0,11v14c0,1.104,0.896,2,2,2h28c1.104,0,2-0.895,2-2V11L24.599,0.824z M9.528,3h12.944l5.091,7
			H23.5c-0.398,0-0.779,0.158-1.061,0.439L18.879,14h-5.758l-3.561-3.56C9.279,10.158,8.898,10,8.5,10H4.437L9.528,3z M29,24H3V13
			h4.879l3.561,3.56C11.721,16.842,12.102,17,12.5,17h7c0.398,0,0.779-0.158,1.061-0.44L24.121,13H29V24z"/>
	</g>
</g>
<g>
</g>
<g>
</g>
<g>
</g>
<g>
</g>
<g>
</g>
<g>
</g>
<g>
</g>
<g>
</g>
<g>
</g>
<g>
</g>
<g>
</g>
<g>
</g>
<g>
</g>
<g>
</g>
<g>
</g>
</svg>
