<?xml version="1.0" encoding="iso-8859-1"?>
<!-- Generator: Adobe Illustrator 18.0.0, SVG Export Plug-In . SVG Version: 6.00 Build 0)  -->
<!DOCTYPE svg PUBLIC "-//W3C//DTD SVG 1.1//EN" "http://www.w3.org/Graphics/SVG/1.1/DTD/svg11.dtd">
<svg version="1.1" id="Capa_1" xmlns="http://www.w3.org/2000/svg" xmlns:xlink="http://www.w3.org/1999/xlink" x="0px" y="0px"
	 viewBox="0 0 32 32" style="enable-background:new 0 0 32 32;" xml:space="preserve">
<g id="Layers">
	<g>
		<path style="fill-rule:evenodd;clip-rule:evenodd;" d="M30,0H10C8.896,0,8,0.895,8,2v6H2c-1.104,0-2,0.895-2,2v20
			c0,1.104,0.896,2,2,2h20c1.105,0,2-0.896,2-2v-6h6c1.104,0,2-0.896,2-2V2C32,0.895,31.104,0,30,0z M21,29H3V11h5v11
			c0,1.105,0.896,2,2,2h11V29z M29,21H11V3h18V21z"/>
	</g>
</g>
<g>
</g>
<g>
</g>
<g>
</g>
<g>
</g>
<g>
</g>
<g>
</g>
<g>
</g>
<g>
</g>
<g>
</g>
<g>
</g>
<g>
</g>
<g>
</g>
<g>
</g>
<g>
</g>
<g>
</g>
</svg>
