<?xml version="1.0" encoding="iso-8859-1"?>
<!-- Generator: Adobe Illustrator 18.0.0, SVG Export Plug-In . SVG Version: 6.00 Build 0)  -->
<!DOCTYPE svg PUBLIC "-//W3C//DTD SVG 1.1//EN" "http://www.w3.org/Graphics/SVG/1.1/DTD/svg11.dtd">
<svg version="1.1" id="Capa_1" xmlns="http://www.w3.org/2000/svg" xmlns:xlink="http://www.w3.org/1999/xlink" x="0px" y="0px"
	 viewBox="0 0 31 32" style="enable-background:new 0 0 31 32;" xml:space="preserve">
<g id="Umbrella">
	<g>
		<path style="fill-rule:evenodd;clip-rule:evenodd;" d="M17,2.076V1.5C17,0.672,16.328,0,15.5,0C14.672,0,14,0.672,14,1.5v0.576
			C6.154,2.833,0,9.459,0,17.5c0,0.715,0.505,1.331,1.206,1.471c0.701,0.138,1.403-0.232,1.679-0.894C3.41,16.815,4.633,16,6,16
			c1.367,0,2.59,0.815,3.115,2.077c0.223,0.535,0.734,0.894,1.314,0.921c0.603,0.032,1.123-0.28,1.394-0.792
			c0.479-0.9,1.26-1.567,2.177-1.92V27.5c0,0.827-0.673,1.5-1.5,1.5c-0.827,0-1.5-0.673-1.5-1.5c0-0.828-0.672-1.5-1.5-1.5
			C8.672,26,8,26.672,8,27.5c0,2.481,2.019,4.5,4.5,4.5c2.481,0,4.5-2.018,4.5-4.5V16.286c0.917,0.353,1.697,1.02,2.177,1.92
			c0.271,0.511,0.791,0.811,1.394,0.792c0.579-0.027,1.091-0.386,1.314-0.921C22.41,16.815,23.633,16,25,16
			c1.367,0,2.59,0.815,3.115,2.077C28.352,18.645,28.903,19,29.499,19c0.098,0,0.196-0.01,0.295-0.029
			C30.495,18.831,31,18.215,31,17.5C31,9.459,24.846,2.833,17,2.076z M25,13c-1.77,0-3.411,0.724-4.588,1.945
			C19.103,13.713,17.358,13,15.5,13c-1.858,0-3.603,0.713-4.912,1.945C9.411,13.724,7.769,13,6,13c-0.811,0-1.596,0.152-2.321,0.435
			C5.369,8.531,10.03,5,15.5,5c5.47,0,10.131,3.531,11.821,8.435C26.596,13.152,25.811,13,25,13z"/>
	</g>
</g>
<g>
</g>
<g>
</g>
<g>
</g>
<g>
</g>
<g>
</g>
<g>
</g>
<g>
</g>
<g>
</g>
<g>
</g>
<g>
</g>
<g>
</g>
<g>
</g>
<g>
</g>
<g>
</g>
<g>
</g>
</svg>
