<?xml version="1.0" encoding="iso-8859-1"?>
<!-- Generator: Adobe Illustrator 18.0.0, SVG Export Plug-In . SVG Version: 6.00 Build 0)  -->
<!DOCTYPE svg PUBLIC "-//W3C//DTD SVG 1.1//EN" "http://www.w3.org/Graphics/SVG/1.1/DTD/svg11.dtd">
<svg version="1.1" id="Capa_1" xmlns="http://www.w3.org/2000/svg" xmlns:xlink="http://www.w3.org/1999/xlink" x="0px" y="0px"
	 viewBox="0 0 36 28" style="enable-background:new 0 0 36 28;" xml:space="preserve">
<g id="Graduation_x5F_Cap">
	<g>
		<path style="fill-rule:evenodd;clip-rule:evenodd;" d="M34.894,8.21l-16-8C18.624,0.075,18.321,0,18,0
			c-0.321,0-0.624,0.075-0.894,0.21l-16,8C0.45,8.538,0,9.217,0,10c0,0.783,0.45,1.462,1.106,1.79L2,12.237v7.041
			C1.404,19.624,1,20.262,1,21c0,1.105,0.896,2,2,2c1.104,0,2-0.895,2-2c0-0.738-0.404-1.376-1-1.723v-6.041l3,1.5V21
			c0,3.866,4.925,7,11,7c6.075,0,11-3.134,11-7v-6.263l5.894-2.947C35.55,11.462,36,10.783,36,10C36,9.217,35.55,8.538,34.894,8.21z
			 M26,21c0,1.85-3.494,4-8,4c-4.506,0-8-2.15-8-4v-4.764l7.106,3.554C17.376,19.925,17.679,20,18,20
			c0.321,0,0.624-0.075,0.894-0.21L26,16.236V21z M18,16.883L4.234,10L18,3.117L31.766,10L18,16.883z"/>
	</g>
</g>
<g>
</g>
<g>
</g>
<g>
</g>
<g>
</g>
<g>
</g>
<g>
</g>
<g>
</g>
<g>
</g>
<g>
</g>
<g>
</g>
<g>
</g>
<g>
</g>
<g>
</g>
<g>
</g>
<g>
</g>
</svg>
