<?xml version="1.0" encoding="iso-8859-1"?>
<!-- Generator: Adobe Illustrator 18.0.0, SVG Export Plug-In . SVG Version: 6.00 Build 0)  -->
<!DOCTYPE svg PUBLIC "-//W3C//DTD SVG 1.1//EN" "http://www.w3.org/Graphics/SVG/1.1/DTD/svg11.dtd">
<svg version="1.1" id="Capa_1" xmlns="http://www.w3.org/2000/svg" xmlns:xlink="http://www.w3.org/1999/xlink" x="0px" y="0px"
	 viewBox="0 0 32 32" style="enable-background:new 0 0 32 32;" xml:space="preserve">
<g id="Up">
	<g>
		<path style="fill-rule:evenodd;clip-rule:evenodd;" d="M22.605,17.486l-5.5-6C16.821,11.177,16.421,11,16,11
			c-0.421,0-0.821,0.177-1.106,0.486l-5.5,6l0.004,0.003C9.153,17.757,9,18.109,9,18.5c0,0.828,0.672,1.5,1.5,1.5
			c0.438,0,0.828-0.19,1.102-0.489l0.004,0.003L16,14.72l4.394,4.794l0.004-0.003C20.672,19.81,21.063,20,21.5,20
			c0.828,0,1.5-0.672,1.5-1.5c0-0.391-0.153-0.743-0.398-1.011L22.605,17.486z M16,0C7.164,0,0,7.164,0,16s7.164,16,16,16
			c8.836,0,16-7.164,16-16S24.836,0,16,0z M16,29C8.832,29,3,23.168,3,16S8.832,3,16,3c7.168,0,13,5.832,13,13S23.168,29,16,29z"/>
	</g>
</g>
<g>
</g>
<g>
</g>
<g>
</g>
<g>
</g>
<g>
</g>
<g>
</g>
<g>
</g>
<g>
</g>
<g>
</g>
<g>
</g>
<g>
</g>
<g>
</g>
<g>
</g>
<g>
</g>
<g>
</g>
</svg>
