<?xml version="1.0" encoding="iso-8859-1"?>
<!-- Generator: Adobe Illustrator 18.0.0, SVG Export Plug-In . SVG Version: 6.00 Build 0)  -->
<!DOCTYPE svg PUBLIC "-//W3C//DTD SVG 1.1//EN" "http://www.w3.org/Graphics/SVG/1.1/DTD/svg11.dtd">
<svg version="1.1" id="Capa_1" xmlns="http://www.w3.org/2000/svg" xmlns:xlink="http://www.w3.org/1999/xlink" x="0px" y="0px"
	 viewBox="0 0 34 32" style="enable-background:new 0 0 34 32;" xml:space="preserve">
<g id="Cloud_x5F_upload">
	<g>
		<path style="fill-rule:evenodd;clip-rule:evenodd;" d="M18.56,13.44C18.289,13.168,17.914,13,17.5,13
			c-0.414,0-0.789,0.168-1.06,0.44l-4,4C12.168,17.711,12,18.086,12,18.5c0,0.828,0.672,1.5,1.5,1.5c0.414,0,0.789-0.168,1.06-0.44
			L16,18.121v9.391c-0.603,0.456-1,1.174-1,1.988c0,1.381,1.119,2.5,2.5,2.5s2.5-1.119,2.5-2.5c0-0.814-0.396-1.532-1-1.988v-9.391
			l1.44,1.439C20.711,19.832,21.086,20,21.5,20c0.829,0,1.5-0.672,1.5-1.5c0-0.414-0.168-0.789-0.439-1.06L18.56,13.44z M30,11.5
			c0-4.06-3.227-7.357-7.254-7.487C20.823,1.572,17.849,0,14.5,0C8.919,0,4.368,4.357,4.032,9.854C1.637,11.106,0,13.609,0,16.5
			C0,20.643,3.357,24,7.5,24h2c0.828,0,1.5-0.672,1.5-1.5S10.328,21,9.5,21h-2C5.019,21,3,18.981,3,16.5
			c0-1.679,0.928-3.207,2.422-3.987l1.501-0.785l0.104-1.691C7.268,6.091,10.551,3,14.5,3c2.307,0,4.453,1.046,5.89,2.869
			l0.864,1.097l1.396,0.045C25.089,7.09,27,9.062,27,11.5v1.999l1.846,0.77C30.154,14.815,31,16.083,31,17.5
			c0,1.93-1.57,3.5-3.5,3.5h-2c-0.828,0-1.5,0.672-1.5,1.5s0.672,1.5,1.5,1.5h2c3.59,0,6.5-2.91,6.5-6.5
			C34,14.796,32.349,12.48,30,11.5z"/>
	</g>
</g>
<g>
</g>
<g>
</g>
<g>
</g>
<g>
</g>
<g>
</g>
<g>
</g>
<g>
</g>
<g>
</g>
<g>
</g>
<g>
</g>
<g>
</g>
<g>
</g>
<g>
</g>
<g>
</g>
<g>
</g>
</svg>
