<?xml version="1.0" encoding="iso-8859-1"?>
<!-- Generator: Adobe Illustrator 18.0.0, SVG Export Plug-In . SVG Version: 6.00 Build 0)  -->
<!DOCTYPE svg PUBLIC "-//W3C//DTD SVG 1.1//EN" "http://www.w3.org/Graphics/SVG/1.1/DTD/svg11.dtd">
<svg version="1.1" id="Capa_1" xmlns="http://www.w3.org/2000/svg" xmlns:xlink="http://www.w3.org/1999/xlink" x="0px" y="0px"
	 viewBox="0 0 27 32" style="enable-background:new 0 0 27 32;" xml:space="preserve">
<g id="Out">
	<g>
		<path style="fill-rule:evenodd;clip-rule:evenodd;" d="M8.5,8c0.414,0,0.789-0.168,1.061-0.44L12,5.121V21.5
			c0,0.828,0.671,1.5,1.5,1.5c0.829,0,1.5-0.672,1.5-1.5V5.121l2.44,2.439C17.711,7.832,18.086,8,18.5,8C19.329,8,20,7.328,20,6.5
			c0-0.414-0.168-0.789-0.439-1.061l-5-5C14.289,0.168,13.914,0,13.5,0s-0.789,0.168-1.06,0.44l-5,5C7.168,5.711,7,6.086,7,6.5
			C7,7.328,7.671,8,8.5,8z M25,10h-5.5c-0.829,0-1.5,0.672-1.5,1.5s0.671,1.5,1.5,1.5H24v16H3V13h4.5C8.329,13,9,12.328,9,11.5
			S8.329,10,7.5,10H2c-1.103,0-2,0.898-2,2v18c0,1.102,0.897,2,2,2h23c1.103,0,2-0.898,2-2V12C27,10.898,26.103,10,25,10z"/>
	</g>
</g>
<g>
</g>
<g>
</g>
<g>
</g>
<g>
</g>
<g>
</g>
<g>
</g>
<g>
</g>
<g>
</g>
<g>
</g>
<g>
</g>
<g>
</g>
<g>
</g>
<g>
</g>
<g>
</g>
<g>
</g>
</svg>
