<?xml version="1.0" encoding="iso-8859-1"?>
<!-- Generator: Adobe Illustrator 18.0.0, SVG Export Plug-In . SVG Version: 6.00 Build 0)  -->
<!DOCTYPE svg PUBLIC "-//W3C//DTD SVG 1.1//EN" "http://www.w3.org/Graphics/SVG/1.1/DTD/svg11.dtd">
<svg version="1.1" id="Capa_1" xmlns="http://www.w3.org/2000/svg" xmlns:xlink="http://www.w3.org/1999/xlink" x="0px" y="0px"
	 viewBox="0 0 32 32" style="enable-background:new 0 0 32 32;" xml:space="preserve">
<g id="Location">
	<g>
		<path style="fill-rule:evenodd;clip-rule:evenodd;" d="M30,0c-0.341,0-0.662,0.085-0.943,0.236l-28,15C0.428,15.573,0,16.236,0,17
			c0,1.105,0.896,2,2,2h11v11c0,1.104,0.896,2,2,2c0.763,0,1.427-0.428,1.764-1.058l15-28C31.915,2.662,32,2.341,32,2
			C32,0.895,31.104,0,30,0z M16,26.016V18c0-1.105-0.895-2-2-2H5.984L27.557,4.443L16,26.016z"/>
	</g>
</g>
<g>
</g>
<g>
</g>
<g>
</g>
<g>
</g>
<g>
</g>
<g>
</g>
<g>
</g>
<g>
</g>
<g>
</g>
<g>
</g>
<g>
</g>
<g>
</g>
<g>
</g>
<g>
</g>
<g>
</g>
</svg>
