<?xml version="1.0" encoding="iso-8859-1"?>
<!-- Generator: Adobe Illustrator 18.0.0, SVG Export Plug-In . SVG Version: 6.00 Build 0)  -->
<!DOCTYPE svg PUBLIC "-//W3C//DTD SVG 1.1//EN" "http://www.w3.org/Graphics/SVG/1.1/DTD/svg11.dtd">
<svg version="1.1" id="Capa_1" xmlns="http://www.w3.org/2000/svg" xmlns:xlink="http://www.w3.org/1999/xlink" x="0px" y="0px"
	 viewBox="0 0 30 32" style="enable-background:new 0 0 30 32;" xml:space="preserve">
<g id="Profile">
	<g>
		<path style="fill-rule:evenodd;clip-rule:evenodd;" d="M22.189,17.599C23.32,15.759,24,13.479,24,11c0-6.075-4.029-11-9-11
			c-4.971,0-9,4.925-9,11c0,2.479,0.68,4.759,1.812,6.599C3.16,19.806,0,24.08,0,29v1c0,1.105,0.896,2,2,2h26c1.105,0,2-0.895,2-2
			v-1C30,24.079,26.84,19.806,22.189,17.599z M15,3c3.252,0,6,3.664,6,8c0,4.336-2.748,8-6,8c-3.252,0-6-3.664-6-8
			C9,6.664,11.748,3,15,3z M3,29c0-3.969,2.79-7.399,6.82-9.013C11.286,21.251,13.07,22,15,22c1.93,0,3.714-0.749,5.18-2.013
			C24.21,21.601,27,25.031,27,29H3z"/>
	</g>
</g>
<g>
</g>
<g>
</g>
<g>
</g>
<g>
</g>
<g>
</g>
<g>
</g>
<g>
</g>
<g>
</g>
<g>
</g>
<g>
</g>
<g>
</g>
<g>
</g>
<g>
</g>
<g>
</g>
<g>
</g>
</svg>
