<?xml version="1.0" encoding="iso-8859-1"?>
<!-- Generator: Adobe Illustrator 18.0.0, SVG Export Plug-In . SVG Version: 6.00 Build 0)  -->
<!DOCTYPE svg PUBLIC "-//W3C//DTD SVG 1.1//EN" "http://www.w3.org/Graphics/SVG/1.1/DTD/svg11.dtd">
<svg version="1.1" id="Capa_1" xmlns="http://www.w3.org/2000/svg" xmlns:xlink="http://www.w3.org/1999/xlink" x="0px" y="0px"
	 viewBox="0 0 32 21" style="enable-background:new 0 0 32 21;" xml:space="preserve">
<g id="Video">
	<g>
		<path style="fill-rule:evenodd;clip-rule:evenodd;" d="M30,1h-1l-6,6V2c0-1.105-0.896-2-2-2H2C0.896,0,0,0.896,0,2v17
			c0,1.104,0.896,2,2,2h19c1.104,0,2-0.896,2-2v-5l6,6h1c1.104,0,2-0.895,2-2V3C32,1.896,31.104,1,30,1z M20,18H3V3h17V18z
			 M29,15.758L23.743,10.5L29,5.243V15.758z"/>
	</g>
</g>
<g>
</g>
<g>
</g>
<g>
</g>
<g>
</g>
<g>
</g>
<g>
</g>
<g>
</g>
<g>
</g>
<g>
</g>
<g>
</g>
<g>
</g>
<g>
</g>
<g>
</g>
<g>
</g>
<g>
</g>
</svg>
