<?xml version="1.0" encoding="iso-8859-1"?>
<!-- Generator: Adobe Illustrator 18.0.0, SVG Export Plug-In . SVG Version: 6.00 Build 0)  -->
<!DOCTYPE svg PUBLIC "-//W3C//DTD SVG 1.1//EN" "http://www.w3.org/Graphics/SVG/1.1/DTD/svg11.dtd">
<svg version="1.1" id="Capa_1" xmlns="http://www.w3.org/2000/svg" xmlns:xlink="http://www.w3.org/1999/xlink" x="0px" y="0px"
	 viewBox="0 0 36 28" style="enable-background:new 0 0 36 28;" xml:space="preserve">
<g id="Browse">
	<g>
		<path style="fill-rule:evenodd;clip-rule:evenodd;" d="M18,0C8.058,0,1,9,0,14c1,5,8.058,14,18,14s17-9,18-14C35,9,27.942,0,18,0z
			 M18,25c-7.85,0-13.69-6.94-14.91-11C4.31,9.941,10.15,3,18,3s13.69,6.941,14.91,11C31.69,18.06,25.85,25,18,25z M18,8
			c-3.315,0-6,2.685-6,6c0,3.314,2.685,6,6,6s6-2.685,6-6C24,10.686,21.314,8,18,8z M18,17c-1.654,0-3-1.346-3-3
			c0-1.654,1.346-3,3-3c1.654,0,3,1.346,3,3C21,15.654,19.654,17,18,17z"/>
	</g>
</g>
<g>
</g>
<g>
</g>
<g>
</g>
<g>
</g>
<g>
</g>
<g>
</g>
<g>
</g>
<g>
</g>
<g>
</g>
<g>
</g>
<g>
</g>
<g>
</g>
<g>
</g>
<g>
</g>
<g>
</g>
</svg>
