<?xml version="1.0" encoding="iso-8859-1"?>
<!-- Generator: Adobe Illustrator 18.0.0, SVG Export Plug-In . SVG Version: 6.00 Build 0)  -->
<!DOCTYPE svg PUBLIC "-//W3C//DTD SVG 1.1//EN" "http://www.w3.org/Graphics/SVG/1.1/DTD/svg11.dtd">
<svg version="1.1" id="Capa_1" xmlns="http://www.w3.org/2000/svg" xmlns:xlink="http://www.w3.org/1999/xlink" x="0px" y="0px"
	 viewBox="0 0 27 32" style="enable-background:new 0 0 27 32;" xml:space="preserve">
<g id="Mic">
	<g>
		<path style="fill-rule:evenodd;clip-rule:evenodd;" d="M13.5,23c4.143,0,7.5-3.357,7.5-7.5v-8C21,3.357,17.643,0,13.5,0
			S6,3.357,6,7.5v8C6,19.643,9.357,23,13.5,23z M9,7.5C9,5.019,11.019,3,13.5,3S18,5.019,18,7.5v8c0,2.481-2.019,4.5-4.5,4.5
			S9,17.981,9,15.5V7.5z M25.5,14c-0.828,0-1.5,0.671-1.5,1.5C24,21.29,19.289,26,13.5,26S3,21.29,3,15.5C3,14.672,2.328,14,1.5,14
			C0.672,14,0,14.672,0,15.5c0,6.949,5.251,12.665,12,13.412V30.5c0,0.828,0.672,1.5,1.5,1.5c0.828,0,1.5-0.672,1.5-1.5v-1.588
			c6.749-0.747,12-6.463,12-13.412C27,14.672,26.328,14,25.5,14z"/>
	</g>
</g>
<g>
</g>
<g>
</g>
<g>
</g>
<g>
</g>
<g>
</g>
<g>
</g>
<g>
</g>
<g>
</g>
<g>
</g>
<g>
</g>
<g>
</g>
<g>
</g>
<g>
</g>
<g>
</g>
<g>
</g>
</svg>
