<?xml version="1.0" encoding="iso-8859-1"?>
<!-- Generator: Adobe Illustrator 18.0.0, SVG Export Plug-In . SVG Version: 6.00 Build 0)  -->
<!DOCTYPE svg PUBLIC "-//W3C//DTD SVG 1.1//EN" "http://www.w3.org/Graphics/SVG/1.1/DTD/svg11.dtd">
<svg version="1.1" id="Capa_1" xmlns="http://www.w3.org/2000/svg" xmlns:xlink="http://www.w3.org/1999/xlink" x="0px" y="0px"
	 viewBox="0 0 32 32" style="enable-background:new 0 0 32 32;" xml:space="preserve">
<g id="Lifebuoy">
	<g>
		<path style="fill-rule:evenodd;clip-rule:evenodd;" d="M16,0C7.163,0,0,7.164,0,16c0,8.836,7.163,16,16,16s16-7.164,16-16
			C32,7.164,24.837,0,16,0z M22.812,4.942c0.845,0.521,1.649,1.134,2.381,1.866c0.732,0.732,1.345,1.536,1.866,2.381l-4.579,2.135
			c-0.246-0.342-0.515-0.672-0.822-0.98c-0.308-0.308-0.639-0.576-0.98-0.823L22.812,4.942z M21,16c0,2.761-2.238,5-5,5
			s-5-2.239-5-5c0-2.761,2.238-5,5-5S21,13.239,21,16z M16,3.019c1.383,0,2.766,0.219,4.092,0.657l-2.134,4.576
			c-1.285-0.324-2.631-0.324-3.917,0l-2.133-4.575C13.234,3.238,14.617,3.019,16,3.019z M6.808,6.808
			C7.54,6.076,8.343,5.462,9.189,4.942l2.134,4.579c-0.341,0.247-0.671,0.515-0.98,0.823c-0.308,0.308-0.575,0.638-0.823,0.98
			L4.942,9.188C5.462,8.343,6.076,7.54,6.808,6.808z M3.676,20.091C3.238,18.764,3.02,17.382,3.02,16
			c0-1.383,0.219-2.766,0.657-4.092l4.575,2.134c-0.323,1.285-0.324,2.631,0,3.916L3.676,20.091z M9.189,27.058
			c-0.845-0.521-1.649-1.134-2.381-1.866c-0.731-0.732-1.345-1.536-1.866-2.381l4.578-2.135c0.248,0.341,0.516,0.673,0.823,0.98
			c0.308,0.308,0.64,0.576,0.98,0.823L9.189,27.058z M16,28.98c-1.383,0-2.765-0.219-4.092-0.656l2.134-4.576
			c1.285,0.323,2.631,0.323,3.916,0l2.134,4.576C18.765,28.762,17.383,28.98,16,28.98z M25.192,25.192
			c-0.732,0.732-1.536,1.345-2.381,1.866l-2.135-4.578c0.341-0.247,0.672-0.515,0.98-0.823c0.308-0.308,0.576-0.639,0.823-0.98
			l4.578,2.134C26.537,23.657,25.925,24.46,25.192,25.192z M23.748,17.957c0.323-1.285,0.323-2.631,0-3.916l4.575-2.134
			c0.438,1.327,0.657,2.709,0.657,4.092c0,1.382-0.219,2.764-0.656,4.091L23.748,17.957z"/>
	</g>
</g>
<g>
</g>
<g>
</g>
<g>
</g>
<g>
</g>
<g>
</g>
<g>
</g>
<g>
</g>
<g>
</g>
<g>
</g>
<g>
</g>
<g>
</g>
<g>
</g>
<g>
</g>
<g>
</g>
<g>
</g>
</svg>
