<?xml version="1.0" encoding="iso-8859-1"?>
<!-- Generator: Adobe Illustrator 18.0.0, SVG Export Plug-In . SVG Version: 6.00 Build 0)  -->
<!DOCTYPE svg PUBLIC "-//W3C//DTD SVG 1.1//EN" "http://www.w3.org/Graphics/SVG/1.1/DTD/svg11.dtd">
<svg version="1.1" id="Capa_1" xmlns="http://www.w3.org/2000/svg" xmlns:xlink="http://www.w3.org/1999/xlink" x="0px" y="0px"
	 viewBox="0 0 32 32" style="enable-background:new 0 0 32 32;" xml:space="preserve">
<g id="CD">
	<path style="fill-rule:evenodd;clip-rule:evenodd;" d="M16,0C7.164,0,0,7.163,0,16c0,8.837,7.164,16,16,16s16-7.163,16-16
		C32,7.163,24.836,0,16,0z M9.191,4.947l3.44,7.379c-0.106,0.098-0.208,0.199-0.306,0.306L4.947,9.19
		C6.014,7.467,7.467,6.013,9.191,4.947z M16,29C8.832,29,3,23.168,3,16c0-1.432,0.242-2.806,0.671-4.095l7.394,3.448
		C11.037,15.567,11,15.778,11,16c0,2.762,2.238,5,5,5c0.221,0,0.432-0.037,0.646-0.065l3.448,7.394C18.805,28.759,17.432,29,16,29z
		 M14,16c0-1.103,0.896-2,2-2s2,0.898,2,2c0,1.102-0.896,2-2,2S14,17.103,14,16z M22.809,27.054l-3.441-7.38
		c0.107-0.098,0.209-0.199,0.307-0.307l7.379,3.441C25.987,24.533,24.533,25.987,22.809,27.054z M20.935,16.645
		C20.963,16.432,21,16.221,21,16c0-2.762-2.238-5-5-5c-0.221,0-0.433,0.037-0.646,0.065l-3.448-7.395C13.194,3.241,14.568,3,16,3
		c7.168,0,13,5.832,13,13c0,1.432-0.241,2.805-0.67,4.094L20.935,16.645z"/>
</g>
<g>
</g>
<g>
</g>
<g>
</g>
<g>
</g>
<g>
</g>
<g>
</g>
<g>
</g>
<g>
</g>
<g>
</g>
<g>
</g>
<g>
</g>
<g>
</g>
<g>
</g>
<g>
</g>
<g>
</g>
</svg>
