<?xml version="1.0" encoding="iso-8859-1"?>
<!-- Generator: Adobe Illustrator 18.0.0, SVG Export Plug-In . SVG Version: 6.00 Build 0)  -->
<!DOCTYPE svg PUBLIC "-//W3C//DTD SVG 1.1//EN" "http://www.w3.org/Graphics/SVG/1.1/DTD/svg11.dtd">
<svg version="1.1" id="Capa_1" xmlns="http://www.w3.org/2000/svg" xmlns:xlink="http://www.w3.org/1999/xlink" x="0px" y="0px"
	 viewBox="0 0 26 32" style="enable-background:new 0 0 26 32;" xml:space="preserve">
<g id="Flag">
	<g>
		<path style="fill-rule:evenodd;clip-rule:evenodd;" d="M25.279,1.929c-0.445-0.273-1.004-0.292-1.469-0.051
			C22.624,2.492,21.457,3,19.204,3c-2.479,0-3.646-0.615-4.999-1.327C12.715,0.889,11.027,0,7.809,0
			C5.582,0,4.094,0.426,2.892,0.946C2.671,0.393,2.133,0,1.5,0C0.672,0,0,0.671,0,1.5v29C0,31.329,0.672,32,1.5,32
			C2.328,32,3,31.329,3,30.5V18.226C4.274,17.558,5.449,17,7.809,17c2.478,0,3.646,0.615,4.998,1.327
			C14.297,19.111,15.984,20,19.204,20c2.923,0,4.56-0.72,5.985-1.457C25.688,18.285,26,17.771,26,17.21v-14
			C26,2.687,25.727,2.201,25.279,1.929z M23,16.272C22.044,16.695,20.951,17,19.204,17c-2.479,0-3.646-0.615-4.999-1.327
			C12.715,14.889,11.027,14,7.809,14C5.65,14,4.184,14.399,3,14.898V4.226C4.274,3.558,5.449,3,7.809,3
			c2.478,0,3.646,0.615,4.998,1.327C14.297,5.111,15.984,6,19.204,6C20.791,6,21.999,5.788,23,5.476V16.272z"/>
	</g>
</g>
<g>
</g>
<g>
</g>
<g>
</g>
<g>
</g>
<g>
</g>
<g>
</g>
<g>
</g>
<g>
</g>
<g>
</g>
<g>
</g>
<g>
</g>
<g>
</g>
<g>
</g>
<g>
</g>
<g>
</g>
</svg>
