<?xml version="1.0" encoding="iso-8859-1"?>
<!-- Generator: Adobe Illustrator 18.0.0, SVG Export Plug-In . SVG Version: 6.00 Build 0)  -->
<!DOCTYPE svg PUBLIC "-//W3C//DTD SVG 1.1//EN" "http://www.w3.org/Graphics/SVG/1.1/DTD/svg11.dtd">
<svg version="1.1" id="Capa_1" xmlns="http://www.w3.org/2000/svg" xmlns:xlink="http://www.w3.org/1999/xlink" x="0px" y="0px"
	 viewBox="0 0 32.852 24" style="enable-background:new 0 0 32.852 24;" xml:space="preserve">
<g id="Wi-Fi">
	<g>
		<path style="fill-rule:evenodd;clip-rule:evenodd;" d="M16.426,18c-1.656,0-3,1.344-3,3c0,1.656,1.344,3,3,3c1.656,0,3-1.344,3-3
			C19.426,19.344,18.082,18,16.426,18z M32.5,7.511C28.488,2.737,22.629,0,16.426,0C10.223,0,4.365,2.737,0.352,7.511
			c-0.533,0.634-0.451,1.58,0.184,2.113C0.817,9.86,1.158,9.976,1.499,9.976c0.428,0,0.853-0.182,1.15-0.535
			C6.089,5.348,11.111,3,16.426,3c5.315,0,10.337,2.348,13.777,6.44c0.297,0.353,0.722,0.535,1.15,0.535
			c0.341,0,0.683-0.115,0.964-0.352C32.951,9.091,33.033,8.144,32.5,7.511z M16.426,6c-4.431,0-8.615,1.955-11.481,5.364
			c-0.533,0.634-0.451,1.58,0.184,2.113c0.281,0.236,0.623,0.352,0.964,0.352c0.428,0,0.853-0.182,1.149-0.535
			C9.535,10.565,12.883,9,16.426,9c3.543,0,6.891,1.565,9.185,4.294c0.297,0.354,0.722,0.535,1.149,0.535
			c0.341,0,0.683-0.115,0.964-0.352c0.635-0.533,0.717-1.48,0.184-2.113C25.041,7.955,20.857,6,16.426,6z M16.426,12
			c-2.66,0-5.171,1.173-6.889,3.218c-0.533,0.634-0.451,1.58,0.184,2.113c0.281,0.236,0.623,0.352,0.964,0.352
			c0.428,0,0.853-0.182,1.149-0.535C12.981,15.783,14.655,15,16.426,15s3.445,0.783,4.592,2.148
			c0.297,0.354,0.722,0.535,1.149,0.535c0.341,0,0.683-0.115,0.964-0.352c0.635-0.533,0.717-1.479,0.184-2.113
			C21.597,13.173,19.086,12,16.426,12z"/>
	</g>
</g>
<g>
</g>
<g>
</g>
<g>
</g>
<g>
</g>
<g>
</g>
<g>
</g>
<g>
</g>
<g>
</g>
<g>
</g>
<g>
</g>
<g>
</g>
<g>
</g>
<g>
</g>
<g>
</g>
<g>
</g>
</svg>
