<?xml version="1.0" encoding="iso-8859-1"?>
<!-- Generator: Adobe Illustrator 18.0.0, SVG Export Plug-In . SVG Version: 6.00 Build 0)  -->
<!DOCTYPE svg PUBLIC "-//W3C//DTD SVG 1.1//EN" "http://www.w3.org/Graphics/SVG/1.1/DTD/svg11.dtd">
<svg version="1.1" id="Capa_1" xmlns="http://www.w3.org/2000/svg" xmlns:xlink="http://www.w3.org/1999/xlink" x="0px" y="0px"
	 viewBox="0 0 32 32" style="enable-background:new 0 0 32 32;" xml:space="preserve">
<g id="Wind_x5F_Cone">
	<g>
		<path style="fill-rule:evenodd;clip-rule:evenodd;" d="M29.54,7.639L11.765,3.097v0.001C11.515,3.032,11.258,3,11,3
			c-2.934,0-4.613,3.818-4.938,8H4V4.488C4.604,4.032,5,3.315,5,2.5C5,1.119,3.881,0,2.5,0S0,1.119,0,2.5
			c0,0.815,0.396,1.532,1,1.988V30.5C1,31.328,1.671,32,2.5,32C3.329,32,4,31.328,4,30.5V14h2.062c0.325,4.182,2.004,8,4.938,8
			c0.259,0,0.517-0.032,0.764-0.097h0l17.775-4.542C31.355,16.898,32,14.452,32,12.5S31.355,8.102,29.54,7.639z M11.019,18.998
			C10.568,19.06,9.356,17.338,9.064,14h3.864C12.651,16.997,11.601,18.849,11.019,18.998z M9.064,11
			c0.291-3.285,1.486-4.997,1.957-4.997h0.001c0.58,0.148,1.629,2,1.906,4.997H9.064z M19.87,16.735l-4.695,1.2
			C15.732,16.299,16,14.363,16,12.5c0-1.863-0.268-3.799-0.825-5.435l4.695,1.2C20.207,8.464,21,9.946,21,12.5
			C21,15.054,20.207,16.536,19.87,16.735z M28.596,14.506l-4.998,1.277C23.868,14.743,24,13.605,24,12.5
			c0-1.104-0.132-2.243-0.402-3.283l4.998,1.277C28.753,10.748,29,11.444,29,12.5C29,13.556,28.753,14.252,28.596,14.506z"/>
	</g>
</g>
<g>
</g>
<g>
</g>
<g>
</g>
<g>
</g>
<g>
</g>
<g>
</g>
<g>
</g>
<g>
</g>
<g>
</g>
<g>
</g>
<g>
</g>
<g>
</g>
<g>
</g>
<g>
</g>
<g>
</g>
</svg>
