<?xml version="1.0" encoding="iso-8859-1"?>
<!-- Generator: Adobe Illustrator 18.0.0, SVG Export Plug-In . SVG Version: 6.00 Build 0)  -->
<!DOCTYPE svg PUBLIC "-//W3C//DTD SVG 1.1//EN" "http://www.w3.org/Graphics/SVG/1.1/DTD/svg11.dtd">
<svg version="1.1" id="Capa_1" xmlns="http://www.w3.org/2000/svg" xmlns:xlink="http://www.w3.org/1999/xlink" x="0px" y="0px"
	 viewBox="0 0 32 26" style="enable-background:new 0 0 32 26;" xml:space="preserve">
<g id="Wind">
	<g>
		<path style="fill-rule:evenodd;clip-rule:evenodd;" d="M19.5,15h-18C0.671,15,0,15.672,0,16.5S0.671,18,1.5,18h18
			c1.378,0,2.5,1.121,2.5,2.5c0,1.379-1.122,2.5-2.5,2.5c-1.378,0-2.5-1.121-2.5-2.5c0-0.828-0.671-1.5-1.5-1.5
			c-0.829,0-1.5,0.672-1.5,1.5c0,3.032,2.467,5.5,5.5,5.5c3.033,0,5.5-2.468,5.5-5.5C25,17.468,22.533,15,19.5,15z M25.5,0
			C21.916,0,19,2.916,19,6.5C19,7.328,19.671,8,20.5,8C21.329,8,22,7.328,22,6.5C22,4.57,23.57,3,25.5,3C27.43,3,29,4.57,29,6.5
			S27.43,10,25.5,10h-21C3.671,10,3,10.672,3,11.5S3.671,13,4.5,13h21c3.584,0,6.5-2.916,6.5-6.5S29.084,0,25.5,0z"/>
	</g>
</g>
<g>
</g>
<g>
</g>
<g>
</g>
<g>
</g>
<g>
</g>
<g>
</g>
<g>
</g>
<g>
</g>
<g>
</g>
<g>
</g>
<g>
</g>
<g>
</g>
<g>
</g>
<g>
</g>
<g>
</g>
</svg>
