<?xml version="1.0" encoding="iso-8859-1"?>
<!-- Generator: Adobe Illustrator 18.0.0, SVG Export Plug-In . SVG Version: 6.00 Build 0)  -->
<!DOCTYPE svg PUBLIC "-//W3C//DTD SVG 1.1//EN" "http://www.w3.org/Graphics/SVG/1.1/DTD/svg11.dtd">
<svg version="1.1" id="Capa_1" xmlns="http://www.w3.org/2000/svg" xmlns:xlink="http://www.w3.org/1999/xlink" x="0px" y="0px"
	 viewBox="0 0 34 30" style="enable-background:new 0 0 34 30;" xml:space="preserve">
<g id="Cloud_x5F_Hail">
	<g>
		<path style="fill-rule:evenodd;clip-rule:evenodd;" d="M17.5,27c-0.828,0-1.5,0.671-1.5,1.5c0,0.829,0.672,1.5,1.5,1.5
			c0.828,0,1.5-0.671,1.5-1.5C19,27.671,18.328,27,17.5,27z M12.5,17c-0.828,0-1.5,0.671-1.5,1.5v3c0,0.829,0.672,1.5,1.5,1.5
			c0.828,0,1.5-0.671,1.5-1.5v-3C14,17.671,13.328,17,12.5,17z M12.5,24c-0.828,0-1.5,0.671-1.5,1.5c0,0.829,0.672,1.5,1.5,1.5
			c0.828,0,1.5-0.671,1.5-1.5C14,24.671,13.328,24,12.5,24z M22.5,17c-0.828,0-1.5,0.671-1.5,1.5v3c0,0.829,0.672,1.5,1.5,1.5
			c0.828,0,1.5-0.671,1.5-1.5v-3C24,17.671,23.328,17,22.5,17z M17.5,20c-0.828,0-1.5,0.671-1.5,1.5v3c0,0.829,0.672,1.5,1.5,1.5
			c0.828,0,1.5-0.671,1.5-1.5v-3C19,20.671,18.328,20,17.5,20z M30,11.5c0-4.06-3.227-7.357-7.254-7.487
			C20.823,1.572,17.849,0,14.5,0C8.919,0,4.368,4.357,4.032,9.854C1.637,11.106,0,13.609,0,16.5C0,20.643,3.357,24,7.5,24
			C8.328,24,9,23.329,9,22.5C9,21.671,8.328,21,7.5,21C5.019,21,3,18.981,3,16.5c0-1.679,0.928-3.207,2.422-3.987l1.501-0.785
			l0.103-1.691C7.268,6.091,10.551,3,14.5,3c2.307,0,4.453,1.046,5.89,2.869l0.864,1.097l1.396,0.045C25.089,7.09,27,9.062,27,11.5
			v1.999l1.846,0.77C30.154,14.815,31,16.083,31,17.5c0,1.93-1.57,3.5-3.5,3.5c-0.828,0-1.5,0.671-1.5,1.5
			c0,0.829,0.672,1.5,1.5,1.5c3.59,0,6.5-2.91,6.5-6.5C34,14.796,32.349,12.48,30,11.5z M22.5,24c-0.828,0-1.5,0.671-1.5,1.5
			c0,0.829,0.672,1.5,1.5,1.5c0.828,0,1.5-0.671,1.5-1.5C24,24.671,23.328,24,22.5,24z"/>
	</g>
</g>
<g>
</g>
<g>
</g>
<g>
</g>
<g>
</g>
<g>
</g>
<g>
</g>
<g>
</g>
<g>
</g>
<g>
</g>
<g>
</g>
<g>
</g>
<g>
</g>
<g>
</g>
<g>
</g>
<g>
</g>
</svg>
