<?xml version="1.0" encoding="iso-8859-1"?>
<!-- Generator: Adobe Illustrator 18.0.0, SVG Export Plug-In . SVG Version: 6.00 Build 0)  -->
<!DOCTYPE svg PUBLIC "-//W3C//DTD SVG 1.1//EN" "http://www.w3.org/Graphics/SVG/1.1/DTD/svg11.dtd">
<svg version="1.1" id="Capa_1" xmlns="http://www.w3.org/2000/svg" xmlns:xlink="http://www.w3.org/1999/xlink" x="0px" y="0px"
	 viewBox="0 0 31.997 31.997" style="enable-background:new 0 0 31.997 31.997;" xml:space="preserve">
<g id="Settings">
	<g>
		<path style="fill-rule:evenodd;clip-rule:evenodd;" d="M30.997,8.057c-0.225-0.526-0.696-0.907-1.259-1.017
			c-0.108-0.021-0.219-0.031-0.327-0.031c-0.453,0-0.893,0.178-1.22,0.505l-5.337,5.337c-0.09,0.09-0.215,0.146-0.353,0.146
			c-0.139,0-0.264-0.057-0.354-0.146l-3-3c-0.091-0.091-0.146-0.216-0.146-0.354c0-0.139,0.056-0.264,0.146-0.354l5.337-5.337
			c0.405-0.405,0.583-0.985,0.474-1.548C24.85,1.696,24.469,1.226,23.943,1c-1.556-0.664-3.189-1-4.788-1
			c-2.699,0-5.296,0.957-7.245,2.905c-1.91,1.911-2.873,4.447-2.908,7.092c-0.018,1.295,0.193,2.615,0.614,3.9l-9.029,9.029
			c-0.431,0.43-0.624,1.007-0.58,1.569c0.036,0.458,0.229,0.907,0.58,1.259l5.656,5.656c0.391,0.391,0.902,0.586,1.414,0.586
			c0.512,0,1.023-0.195,1.414-0.586l9.03-9.029c1.236,0.404,2.504,0.608,3.751,0.608c2.697,0,5.293-0.955,7.241-2.903
			C32.194,16.985,32.783,12.238,30.997,8.057z M26.972,17.966c-1.306,1.306-3.124,2.024-5.12,2.024c-0.938,0-1.886-0.155-2.818-0.46
			c-0.306-0.1-0.62-0.148-0.933-0.148c-0.783,0-1.55,0.307-2.121,0.879l-8.323,8.322l-4.242-4.242l8.322-8.322
			c0.799-0.799,1.081-1.978,0.73-3.053c-0.325-0.995-0.485-2-0.466-2.969c0.039-1.914,0.746-3.685,2.029-4.97
			C15.338,3.72,17.157,3,19.155,3c0.567,0,1.146,0.059,1.721,0.173l-3.837,3.838c-0.669,0.661-1.037,1.544-1.037,2.486
			c0,0.935,0.364,1.813,1.025,2.475l3,3c0.661,0.661,1.54,1.025,2.475,1.025c0.935,0,1.813-0.364,2.475-1.025l3.849-3.849
			C29.337,13.707,28.681,16.256,26.972,17.966z"/>
	</g>
</g>
<g>
</g>
<g>
</g>
<g>
</g>
<g>
</g>
<g>
</g>
<g>
</g>
<g>
</g>
<g>
</g>
<g>
</g>
<g>
</g>
<g>
</g>
<g>
</g>
<g>
</g>
<g>
</g>
<g>
</g>
</svg>
