<?xml version="1.0" encoding="iso-8859-1"?>
<!-- Generator: Adobe Illustrator 18.0.0, SVG Export Plug-In . SVG Version: 6.00 Build 0)  -->
<!DOCTYPE svg PUBLIC "-//W3C//DTD SVG 1.1//EN" "http://www.w3.org/Graphics/SVG/1.1/DTD/svg11.dtd">
<svg version="1.1" id="Capa_1" xmlns="http://www.w3.org/2000/svg" xmlns:xlink="http://www.w3.org/1999/xlink" x="0px" y="0px"
	 viewBox="0 0 34 25" style="enable-background:new 0 0 34 25;" xml:space="preserve">
<g id="Activity">
	<g>
		<path style="fill-rule:evenodd;clip-rule:evenodd;" d="M33.871,9.892l-4-9C29.638,0.367,29.111,0,28.5,0
			c-0.714,0-1.311,0.498-1.463,1.166l-3.951,17.386L17.888,5.93C17.663,5.384,17.126,5,16.5,5c-0.619,0-1.15,0.375-1.379,0.91
			l-4.726,11.026l-2.553-5.106C7.597,11.338,7.088,11,6.5,11c-0.463,0-0.878,0.21-1.152,0.541l-5,5.999
			C0.131,17.801,0,18.135,0,18.5C0,19.328,0.672,20,1.5,20c0.463,0,0.878-0.21,1.152-0.54l3.531-4.237l2.974,5.947
			C9.403,21.662,9.912,22,10.5,22c0.619,0,1.15-0.375,1.379-0.91l4.593-10.717l5.641,13.698C22.337,24.616,22.874,25,23.5,25
			c0.714,0,1.31-0.499,1.463-1.166l4-17.6l2.166,4.874C31.362,11.633,31.889,12,32.5,12c0.828,0,1.5-0.672,1.5-1.5
			C34,10.284,33.954,10.078,33.871,9.892z"/>
	</g>
</g>
<g>
</g>
<g>
</g>
<g>
</g>
<g>
</g>
<g>
</g>
<g>
</g>
<g>
</g>
<g>
</g>
<g>
</g>
<g>
</g>
<g>
</g>
<g>
</g>
<g>
</g>
<g>
</g>
<g>
</g>
</svg>
