<?xml version="1.0" encoding="UTF-8" standalone="no"?>
<!-- Created with Inkscape (http://www.inkscape.org/) -->

<svg
   xmlns:dc="http://purl.org/dc/elements/1.1/"
   xmlns:cc="http://creativecommons.org/ns#"
   xmlns:rdf="http://www.w3.org/1999/02/22-rdf-syntax-ns#"
   xmlns:svg="http://www.w3.org/2000/svg"
   xmlns="http://www.w3.org/2000/svg"
   xmlns:sodipodi="http://sodipodi.sourceforge.net/DTD/sodipodi-0.dtd"
   xmlns:inkscape="http://www.inkscape.org/namespaces/inkscape"
   width="417.48593"
   height="317.97226"
   id="svg2"
   version="1.1"
   inkscape:version="0.48.5 r10040"
   sodipodi:docname="resume.svg">
  <defs
     id="defs4" />
  <sodipodi:namedview
     id="base"
     pagecolor="#ffffff"
     bordercolor="#666666"
     borderopacity="1.0"
     inkscape:pageopacity="0.0"
     inkscape:pageshadow="2"
     inkscape:zoom="0.33176471"
     inkscape:cx="304.57321"
     inkscape:cy="301.19598"
     inkscape:document-units="px"
     inkscape:current-layer="g3158"
     showgrid="false"
     inkscape:snap-bbox="true"
     inkscape:window-width="1038"
     inkscape:window-height="731"
     inkscape:window-x="683"
     inkscape:window-y="20"
     inkscape:window-maximized="0"
     fit-margin-top="0"
     fit-margin-left="0"
     fit-margin-right="0"
     fit-margin-bottom="0" />
  <metadata
     id="metadata7">
    <rdf:RDF>
      <cc:Work
         rdf:about="">
        <dc:format>image/svg+xml</dc:format>
        <dc:type
           rdf:resource="http://purl.org/dc/dcmitype/StillImage" />
        <dc:title></dc:title>
      </cc:Work>
    </rdf:RDF>
  </metadata>
  <g
     inkscape:label="Layer 1"
     inkscape:groupmode="layer"
     id="layer1"
     transform="translate(-108.39988,-150.51904)">
    <g
       id="g3158"
       transform="translate(61.142857,53.50504)">
      <g
         id="g3162">
        <g
           id="g3164">
          <g
             id="g3166">
            <polygon
               id="polygon3168"
               points="298.716,383.21 283.643,394.44 282.663,353.77 312.867,353.04 313.849,393.708 "
               style="fill:#bd2508" />
            <polygon
               id="polygon3170"
               points="313.849,393.708 282.446,363.565 282.663,353.77 312.867,353.04 "
               style="opacity:0.2" />
            <polygon
               id="polygon3172"
               points="298.716,383.21 297.998,353.396 282.663,353.77 283.643,394.44 "
               style="opacity:0.1;fill:#ffffff" />
          </g>
          <g
             id="g3174">
            <path
               id="path3176"
               d="m 415.852,226.776 c 42.804,8.021 53.408,30.94 31.814,68.757 -88.774,30.499 -173.509,69.708 -254.219,117.626 -25.955,14.145 -55.201,-60.606 -31.814,-68.759 110.16,-32.355 182.326,-69.634 254.219,-117.624 z"
               inkscape:connector-curvature="0"
               style="fill:#f6e7b5" />
            <path
               id="path3178"
               d="m 192.248,372.82 c 7.384,18.245 6.66,38.04 -2.159,41.61 -8.82,3.569 -23.157,-10.506 -30.539,-28.752 -7.384,-18.244 -5.459,-35.862 3.362,-39.428 8.817,-3.57 21.95,8.326 29.336,26.57 z"
               inkscape:connector-curvature="0"
               style="opacity:0.1" />
            <path
               id="path3180"
               d="m 163.013,345.162 c -9.077,3.673 -10.177,22.117 -2.458,41.194 0.03,0.076 0.065,0.15 0.095,0.228 -7.515,-18.738 -6.513,-36.753 2.271,-40.307 8.82,-3.567 22.145,8.791 29.76,27.616 7.549,18.651 6.654,36.637 -1.953,40.43 0.082,-0.029 0.164,-0.051 0.24,-0.081 9.079,-3.677 10.182,-22.113 2.459,-41.19 -7.719,-19.078 -21.336,-31.563 -30.414,-27.89 z"
               inkscape:connector-curvature="0"
               style="opacity:0.7;fill:#ffffff" />
            <path
               id="path3182"
               d="m 437.446,244.311 c -64.619,44.143 -171.801,66.945 -264.443,96.693 33.037,4.036 38.312,27.611 40.115,29.89 l 243.421,-95.508 c 5.106,-18.11 0.824,-32.676 -19.093,-31.075 z"
               inkscape:connector-curvature="0"
               style="opacity:0.1" />
            <g
               id="g3184">
              <path
                 id="path3186"
                 d="m 193.721,376.458 c -0.906,-2.676 -2.71,-6.197 -4.019,-8.497 -6.362,2.286 -15.771,8.424 -21.729,13.431 16.331,7.061 25.747,18.879 22.526,33.027 0.126,-0.047 -0.172,-0.062 -0.044,-0.115 8.138,-3.293 9.212,-20.267 3.266,-37.846 z"
                 inkscape:connector-curvature="0"
                 style="opacity:0.2" />
              <path
                 id="path3188"
                 d="m 192.424,373.251 c -1.168,-2.884 -2.96,-6.838 -4.352,-9.394 -6.039,2.127 -13.201,5.986 -18.705,11.075 16.203,8.507 23.076,24.393 20.721,39.498 0.122,-0.044 0.247,-0.076 0.366,-0.126 8.817,-3.568 9.701,-21.948 1.97,-41.053 z"
                 inkscape:connector-curvature="0"
                 style="fill:#f6e7b5" />
              <path
                 id="path3190"
                 d="m 192.424,373.251 c -1.168,-2.884 -2.96,-6.838 -4.352,-9.394 -6.039,2.127 -13.201,5.986 -18.705,11.075 16.203,8.507 23.076,24.393 20.721,39.498 0.122,-0.044 0.247,-0.076 0.366,-0.126 8.817,-3.568 9.701,-21.948 1.97,-41.053 z"
                 inkscape:connector-curvature="0"
                 style="opacity:0.2;fill:#f6e7b5" />
            </g>
            <g
               id="g3192">
              <path
                 id="path3194"
                 d="m 415.881,226.853 c -67.745,43.913 -147.131,82.546 -242.861,114.188 13.011,-1.764 31.745,7.355 37.231,20.921 0.083,0.192 0.053,0.149 0.247,0.641 L 464.74,259.709 c -2.762,-15.505 -24.304,-37.137 -48.859,-32.856 z"
                 inkscape:connector-curvature="0"
                 style="fill:#f6e7b5" />
              <g
                 id="g3196">
                <path
                   id="path3198"
                   d="m 442.674,231.868 c -90.518,51.371 -148.263,77.249 -248.56,113.653 2.713,1.819 6.208,4.54 9.29,7.502 L 457.087,244.461 c -4.347,-5.473 -9.824,-10.573 -14.413,-12.593 z"
                   inkscape:connector-curvature="0"
                   style="opacity:0.7;fill:#ffffff" />
                <path
                   id="path3200"
                   d="m 203.403,353.023 c 3.046,2.924 5.722,6.154 6.84,8.918 0.078,0.194 0.06,0.17 0.253,0.661 L 464.74,259.709 c 0.116,-3.484 -3.178,-9.572 -7.625,-15.172 L 203.403,353.023 z"
                   inkscape:connector-curvature="0"
                   style="opacity:0.4;fill:#ffffff" />
              </g>
            </g>
          </g>
          <g
             id="g3202">
            <path
               id="path3204"
               d="m 302.285,288.68 c -5.639,2.283 -28.941,13.575 -33.997,16.345 22.932,-8.684 40.233,-0.123 46.441,15.219 4.812,11.886 3.37,23.286 -10.413,33.774 0.48,-0.184 25.495,-11.82 25.976,-12.027 12.328,-5.254 13.125,-19.005 6.787,-34.674 -6.341,-15.666 -24.353,-22.863 -34.794,-18.637 z"
               inkscape:connector-curvature="0"
               style="fill:#bd2508" />
            <path
               id="path3206"
               d="m 290.426,294.105 c -8.656,4.111 -18.973,9.187 -22.138,10.919 22.932,-8.684 40.233,-0.123 46.441,15.219 4.812,11.886 3.37,23.286 -10.413,33.774 0.323,-0.123 11.287,-5.996 18.875,-9.519 1.875,-0.869 4.608,-16.795 -1.408,-30.326 -6.212,-13.989 -24.018,-23.661 -31.357,-20.067 z"
               inkscape:connector-curvature="0"
               style="opacity:0.2;fill:#bd2508" />
            <g
               id="g3208">
              <polygon
                 id="polygon3210"
                 points="337.116,385.151 330.313,405.879 304.383,353.877 331.422,340.394 357.351,392.398 "
                 style="fill:#bd2508" />
              <polygon
                 id="polygon3212"
                 points="304.383,353.877 317.63,347.273 331.942,341.436 334.405,346.365 306.798,358.717 "
                 style="opacity:0.1" />
              <polygon
                 id="polygon3214"
                 points="337.116,385.151 318.113,347.033 304.383,353.877 330.313,405.879 "
                 style="opacity:0.1;fill:#ffffff" />
            </g>
          </g>
        </g>
        <g
           id="g3216">
          <g
             id="g3218">
            <path
               id="path3220"
               d="m 268.882,304.371 c -46.38,-17.54 -80.48,-26.17 -124.02,-30.52 -3.96,-0.39 -8,-0.75 -12.14,-1.08 -10.17,-0.81 -20.92,-1.43 -32.48,-1.9 l 18.84,-30.32 3.62,-5.91 10.22,-16.41 3.29,-5.27 2.86,-4.36 4.59,-7 5.73,-1.18 c 33.88759,-5.51035 64.24454,-25.64831 97.97206,-18.77355 z"
               inkscape:connector-curvature="0"
               style="fill:#222e4a"
               sodipodi:nodetypes="ccccccccccccc" />
            <path
               id="path3222"
               d="m 404.754,208.127 c -62.867,25.761 -94.4,52.65 -135.875,96.239 l -30.178,-122.36 93.148,-19.194 27.161,17.008 5.979,3.797 6.548,3.975 33.217,20.535 z"
               inkscape:connector-curvature="0"
               style="fill:#1e2840" />
          </g>
          <path
             id="path3224"
             d="m 371.309,187.637 c -44.423,21.708 -72.849,46.646 -110.641,85.679 l -0.234,-0.08 -2.274,-0.83 C 206.471,252.929 170.443,244.431 118.897,240.59 l 3.713,-5.933 c 49.916,3.909 85.728,12.385 135.917,31.138 0.036,-0.007 0.028,-0.038 0.061,-0.044 35.867,-36.867 63.825,-60.946 106.31,-82.116 l 6.411,4.002 z"
             inkscape:connector-curvature="0"
             style="fill:#1d1d22" />
          <polygon
             id="polygon3226"
             points="251.782,238.158 138.933,208.581 143.271,201.68 331.483,162.883 358.827,179.855 "
             style="opacity:0.2" />
          <g
             id="g3228">
            <path
               id="path3230"
               d="M 242.70137,220.98687 144.252,209.21 l -5.18,-0.61 -5.14,-0.62 -82.09,-9.8 c -2.2,-0.26 -3.99,-1.73 -4.46,-3.67 -0.48,-1.94 0.45,-3.95 2.32,-5.01 L 212.18073,97.016331 c 11.14649,41.380149 23.50607,82.643129 30.52064,123.970539 z"
               inkscape:connector-curvature="0"
               style="fill:#263454"
               sodipodi:nodetypes="ccccccccc" />
            <path
               id="path3232"
               d="m 405.248,128.504 c 1.876,-1.068 2.805,-3.07 2.327,-5.011 -0.479,-1.941 -2.264,-3.409 -4.468,-3.672 l -190.919,-22.807 -2.063,1.174 30.214,122.506 2.424,0.29 162.485,-92.48 z"
               inkscape:connector-curvature="0"
               style="fill:#222e4a" />
          </g>
          <g
             id="g3234">
            <path
               id="path3236"
               d="m 223.002,160.19 c -28.92,11.58 -53.29,22.21 -73.61,40.23 -2.13,1.89 -4.21,3.85 -6.25,5.91 0.43,0.85 0.8,1.81 1.11,2.88 0.55,1.97 0.86,4.27 0.83,6.71 -0.05,3.65 -0.84,6.88 -2.07,9.1 -0.09,6.47 -0.17,12.93 -0.25,19.4 -0.02,0.01 -0.04,-0.01 -0.06,0.01 l 2.16,29.42 c -3.96,-0.39 -8,-0.75 -12.14,-1.08 l 1.96,-28.69 c -0.11,-0.08 -0.22,-0.14 -0.32,-0.23 0.08,-6.47 0.16,-12.93 0.25,-19.4 -0.83,-1.69 -1.42,-3.83 -1.69,-6.22 l 3.29,-5.27 2.86,-4.36 -5.14,-0.62 c 0.46,-1.3 1.03,-2.41 1.69,-3.26 0.08,-0.6 0.29,-1.13 0.63,-1.5 22.53,-24.32 50.23,-36.62 84.11,-50.16 1.21,-0.48 2.77,0.72 3.5,2.69 0.73,1.97 0.35,3.96 -0.86,4.44 z"
               inkscape:connector-curvature="0"
               style="opacity:0.4" />
            <g
               id="g3238">
              <path
                 id="path3240"
                 d="m 126.262,207.461 c -0.934,0.18 -2.036,-0.562 -2.743,-1.976 -0.915,-1.824 -0.829,-4.072 0.193,-5.024 24.238,-22.62 52.758,-32.877 87.522,-43.935 1.245,-0.384 2.717,0.923 3.304,2.942 0.585,2.02 0.058,3.976 -1.18,4.37 -34.396,10.941 -62.592,21.071 -86.336,43.225 -0.23,0.216 -0.486,0.346 -0.76,0.398 z"
                 inkscape:connector-curvature="0"
                 style="fill:#f5bb4e" />
              <path
                 id="path3242"
                 d="m 131.599,213.778 c -0.594,6.977 -3.814,12.239 -7.189,11.752 -3.373,-0.486 -5.626,-6.539 -5.032,-13.515 0.597,-6.978 3.817,-12.24 7.192,-11.755 3.376,0.488 5.627,6.539 5.029,13.518 z"
                 inkscape:connector-curvature="0"
                 style="fill:#f09c2d" />
              <g
                 id="g3244">
                <g
                   id="g3246">
                  <polygon
                     id="polygon3248"
                     points="108.795,340.346 121.795,240.001 119.377,239.721 105.183,339.926 "
                     style="fill:#efc84a" />
                  <polygon
                     id="polygon3250"
                     points="121.795,240.001 108.795,340.346 114.323,340.987 124.078,240.372 125.26,240.403 "
                     style="fill:#f39c12" />
                  <polygon
                     id="polygon3252"
                     points="127.153,240.623 125.783,240.464 127.234,342.619 "
                     style="fill:#a14000" />
                  <polygon
                     id="polygon3254"
                     points="123.008,341.995 127.243,342.487 125.783,240.464 125.26,240.403 "
                     style="fill:#d35400" />
                  <polygon
                     id="polygon3256"
                     points="123.008,341.995 125.285,240.043 124.113,239.849 114.323,340.987 "
                     style="fill:#e67e22" />
                </g>
              </g>
              <g
                 id="g3258">
                <path
                   id="path3260"
                   d="m 127.218,242.051 c -2.711,1.605 -5.962,1.135 -8.335,-1.201 0.553,-6.471 1.106,-12.943 1.66,-19.413 2.605,1.515 5.536,1.936 8.337,1.203 -0.555,6.469 -1.107,12.942 -1.662,19.411 z"
                   inkscape:connector-curvature="0"
                   style="fill:#efc84a" />
                <path
                   id="path3262"
                   d="m 123.375,222.646 c -0.785,-0.211 -1.53,-0.5 -2.191,-0.861 -0.549,6.417 -1.053,13.265 -1.603,19.683 0.645,0.469 1.386,0.854 2.168,1.124 0.556,-6.519 1.075,-13.425 1.626,-19.946 z"
                   inkscape:connector-curvature="0"
                   style="opacity:0.4;fill:#ffffff" />
              </g>
            </g>
            <path
               id="path3264"
               d="m 257.822,152.332 c 1.301,5.275 -9.401,11.867 -23.901,14.726 -14.5,2.858 -27.308,0.902 -28.609,-4.373 -1.3,-5.274 9.4,-11.866 23.899,-14.725 14.5,-2.859 27.311,-0.901 28.611,4.372 z"
               inkscape:connector-curvature="0" />
            <path
               id="path3266"
               d="m 255.125,151.998 c 1.193,4.835 -9.316,11.018 -23.472,13.809 -14.157,2.791 -26.598,1.134 -27.791,-3.702 -1.193,-4.836 9.315,-11.02 23.472,-13.811 14.156,-2.791 26.598,-1.133 27.791,3.704 z"
               inkscape:connector-curvature="0"
               style="fill:#222e4a" />
          </g>
        </g>
      </g>
    </g>
  </g>
</svg>
